<svg width="50" height="50" viewBox="0 0 50 50" fill="none" xmlns="http://www.w3.org/2000/svg">
<path d="M10.4922 46.0938C8.8867 46.0321 7.36353 45.3672 6.22671 44.2318C5.0899 43.0965 4.42309 41.5742 4.35937 39.9687L4.30469 39.0625H45.7109L45.6562 39.8984C45.6097 41.5188 44.9484 43.0607 43.8065 44.2113C42.6646 45.3619 41.1278 46.0349 39.5078 46.0938H10.4922Z" fill="#E09742"/>
<path d="M7.42187 39.0625C6.992 39.0635 6.56613 38.9799 6.16859 38.8163C5.77104 38.6528 5.40961 38.4125 5.10491 38.1093C4.80022 37.806 4.55824 37.4457 4.39279 37.049C4.22733 36.6522 4.14165 36.2267 4.14063 35.7969V35.6797C4.14062 35.2492 4.22555 34.8229 4.39055 34.4252C4.55554 34.0275 4.79736 33.6663 5.10215 33.3623C5.40695 33.0582 5.76873 32.8172 6.16679 32.6532C6.56484 32.4891 6.99134 32.4052 7.42187 32.4062H25.8516L30.4688 36.5703C30.5935 36.6823 30.7542 36.7461 30.9219 36.75C31.0936 36.7433 31.2584 36.6801 31.3906 36.5703L36.0156 32.3984H42.5781C43.0087 32.3974 43.4352 32.4813 43.8332 32.6454C44.2313 32.8094 44.5931 33.0504 44.8978 33.3544C45.2026 33.6585 45.4445 34.0197 45.6095 34.4174C45.7744 34.815 45.8594 35.2413 45.8594 35.6719V35.7891C45.8594 36.2196 45.7744 36.6459 45.6095 37.0436C45.4445 37.4412 45.2026 37.8024 44.8978 38.1065C44.5931 38.4106 44.2313 38.6515 43.8332 38.8156C43.4352 38.9796 43.0087 39.0635 42.5781 39.0625H7.42187ZM7.42187 30.25C6.55299 30.25 5.71957 29.9054 5.10444 29.2917C4.48931 28.678 4.14269 27.8454 4.14063 26.9766V26.8594C4.14269 25.9905 4.48931 25.1579 5.10444 24.5442C5.71957 23.9306 6.55299 23.5859 7.42187 23.5859H42.5781C43.447 23.5859 44.2804 23.9306 44.8956 24.5442C45.5107 25.1579 45.8573 25.9905 45.8594 26.8594V26.9766C45.8573 27.8454 45.5107 28.678 44.8956 29.2917C44.2804 29.9054 43.447 30.25 42.5781 30.25H7.42187Z" fill="#C61E24"/>
<path d="M25.8594 32.3984H5.75781V30.2344H44.2422V32.3984H36.0313L30.9453 36.9844L25.8594 32.3984Z" fill="#E5E04F"/>
<path d="M39.2812 29.8437C38.618 29.8445 37.9613 29.7129 37.3496 29.4567C36.7379 29.2005 36.1834 28.8247 35.7188 28.3515C35.252 27.8774 34.6957 27.5009 34.082 27.2439C33.4684 26.9869 32.8098 26.8546 32.1445 26.8546C31.4793 26.8546 30.8206 26.9869 30.207 27.2439C29.5934 27.5009 29.037 27.8774 28.5703 28.3515C28.1047 28.8257 27.549 29.2019 26.9359 29.4582C26.3227 29.7145 25.6645 29.8455 25 29.8437C24.2641 29.8539 23.5361 29.6906 22.875 29.3671C22.3609 29.0879 21.8811 28.7497 21.4453 28.3593C20.9787 27.8811 20.4209 27.5013 19.805 27.2424C19.1891 26.9834 18.5275 26.8505 17.8594 26.8515C17.1944 26.847 16.5355 26.9768 15.9219 27.2333C15.3084 27.4897 14.753 27.8674 14.2891 28.3437C13.8244 28.8171 13.27 29.1931 12.6583 29.4498C12.0466 29.7064 11.3899 29.8387 10.7266 29.8387C10.0632 29.8387 9.40651 29.7064 8.79483 29.4498C8.18315 29.1931 7.62877 28.8171 7.16406 28.3437C6.52951 27.7277 5.75865 27.27 4.91406 27.0077C4.81479 26.9753 4.71283 26.9518 4.60938 26.9374L3.96875 26.8124V26.1562C3.93976 25.5049 4.1265 24.8623 4.5 24.3281C4.69622 24.072 4.95146 23.8673 5.24394 23.7312C5.53642 23.5952 5.85746 23.5319 6.17969 23.5468H40.8516C41.1328 23.5468 41.4375 23.5468 41.8125 23.5468H43.8125C44.1357 23.5333 44.4574 23.5971 44.7509 23.733C45.0444 23.8689 45.3012 24.0729 45.5 24.3281C45.8676 24.8648 46.0512 25.5062 46.0234 26.1562V26.8124L45.3828 26.9374C45.3004 26.9473 45.2193 26.9656 45.1406 26.9921C44.2776 27.2476 43.4894 27.7087 42.8438 28.3359C42.3793 28.8105 41.8253 29.1882 41.2137 29.4471C40.6022 29.7059 39.9453 29.8407 39.2812 29.8437Z" fill="#88A50F"/>
<path d="M7.38278 23.5781H6.2031C5.91384 23.5825 5.62731 23.5216 5.36488 23.3999C5.10245 23.2781 4.87089 23.0987 4.68747 22.875C4.50797 22.6515 4.37762 22.3926 4.30492 22.1153C4.23223 21.838 4.21883 21.5484 4.2656 21.2656C5.15205 16.4212 7.70926 12.041 11.4921 8.88757C15.275 5.73412 20.0439 4.00708 24.9687 4.00708C29.8936 4.00708 34.6625 5.73412 38.4453 8.88757C42.2282 12.041 44.7854 16.4212 45.6718 21.2656C45.7286 21.5428 45.726 21.8289 45.664 22.105C45.6021 22.381 45.4823 22.6408 45.3125 22.8672C45.1299 23.0904 44.8998 23.2701 44.6389 23.3931C44.3781 23.5161 44.0931 23.5793 43.8047 23.5781H7.38278Z" fill="#E09742"/>
<path d="M19.2032 12.5001C19.2093 12.2821 19.2796 12.0707 19.4052 11.8925C19.5307 11.7142 19.7061 11.5769 19.9092 11.4977C20.1124 11.4185 20.3344 11.4009 20.5475 11.4472C20.7606 11.4935 20.9553 11.6015 21.1074 11.7578C21.2594 11.9142 21.362 12.1118 21.4024 12.3261C21.4427 12.5404 21.419 12.7619 21.3342 12.9628C21.2494 13.1636 21.1072 13.3351 20.9255 13.4557C20.7438 13.5762 20.5306 13.6406 20.3126 13.6407C20.1648 13.6386 20.0189 13.6075 19.8832 13.5491C19.7475 13.4907 19.6246 13.4061 19.5216 13.3002C19.4186 13.1942 19.3375 13.0691 19.2828 12.9318C19.2282 12.7945 19.2011 12.6478 19.2032 12.5001ZM29.6876 13.6407C29.9122 13.6453 30.1332 13.5831 30.3223 13.4618C30.5115 13.3405 30.6603 13.1657 30.7499 12.9596C30.8395 12.7536 30.8657 12.5255 30.8253 12.3045C30.7849 12.0834 30.6797 11.8794 30.523 11.7183C30.3664 11.5572 30.1653 11.4464 29.9455 11.3998C29.7257 11.3533 29.497 11.3732 29.2885 11.457C29.08 11.5408 28.9011 11.6848 28.7746 11.8705C28.6482 12.0562 28.5798 12.2754 28.5782 12.5001C28.5751 12.6481 28.6014 12.7952 28.6557 12.933C28.7099 13.0707 28.791 13.1963 28.8943 13.3024C28.9975 13.4086 29.1208 13.4931 29.257 13.5512C29.3931 13.6093 29.5395 13.6397 29.6876 13.6407ZM15.6251 17.5469C15.8475 17.55 16.0659 17.487 16.2526 17.366C16.4393 17.2449 16.5859 17.0713 16.6739 16.8669C16.7619 16.6625 16.7873 16.4367 16.7469 16.2179C16.7065 15.9991 16.6022 15.7972 16.447 15.6377C16.2919 15.4782 16.093 15.3683 15.8754 15.3218C15.6578 15.2754 15.4313 15.2945 15.2246 15.3768C15.0179 15.459 14.8402 15.6008 14.714 15.784C14.5878 15.9673 14.5188 16.1838 14.5157 16.4063C14.5105 16.5556 14.5352 16.7045 14.5885 16.844C14.6419 16.9836 14.7226 17.1111 14.826 17.2189C14.9295 17.3267 15.0535 17.4126 15.1907 17.4717C15.328 17.5307 15.4757 17.5616 15.6251 17.5626V17.5469ZM34.3751 17.5469C34.5975 17.55 34.8159 17.487 35.0026 17.366C35.1893 17.2449 35.3359 17.0713 35.4239 16.8669C35.5119 16.6625 35.5373 16.4367 35.4969 16.2179C35.4565 15.9991 35.3522 15.7972 35.197 15.6377C35.0419 15.4782 34.843 15.3683 34.6254 15.3218C34.4078 15.2754 34.1813 15.2945 33.9746 15.3768C33.7679 15.459 33.5902 15.6008 33.464 15.784C33.3378 15.9673 33.2688 16.1838 33.2657 16.4063C33.2605 16.5556 33.2852 16.7045 33.3385 16.844C33.3919 16.9836 33.4726 17.1111 33.576 17.2189C33.6795 17.3267 33.8035 17.4126 33.9407 17.4717C34.078 17.5307 34.2257 17.5616 34.3751 17.5626V17.5469ZM25.0001 17.5469C25.2225 17.55 25.4409 17.487 25.6276 17.366C25.8143 17.2449 25.9609 17.0713 26.0489 16.8669C26.1369 16.6625 26.1623 16.4367 26.1219 16.2179C26.0815 15.9991 25.9772 15.7972 25.822 15.6377C25.6669 15.4782 25.468 15.3683 25.2504 15.3218C25.0328 15.2754 24.8063 15.2945 24.5996 15.3768C24.3929 15.459 24.2152 15.6008 24.089 15.784C23.9628 15.9673 23.8938 16.1838 23.8907 16.4063C23.8855 16.5556 23.9102 16.7045 23.9635 16.844C24.0169 16.9836 24.0976 17.1111 24.201 17.2189C24.3045 17.3267 24.4285 17.4126 24.5657 17.4717C24.703 17.5307 24.8507 17.5616 25.0001 17.5626V17.5469ZM45.0157 30.1329C45.0199 30.1666 45.0199 30.2007 45.0157 30.2344V32.4297C45.5194 32.8048 45.9281 33.2929 46.209 33.8546C46.4898 34.4163 46.635 35.0361 46.6329 35.6641V35.7891C46.6344 36.7369 46.3025 37.6551 45.6954 38.3829C45.9102 38.4588 46.0962 38.5996 46.2278 38.7857C46.3593 38.9717 46.4299 39.194 46.4297 39.4219C46.4297 43.5079 43.3048 46.8282 39.5001 46.8282H10.4923C6.67194 46.8282 3.56256 43.5079 3.56256 39.4219C3.56246 39.194 3.63303 38.9717 3.76456 38.7857C3.89608 38.5996 4.08209 38.4588 4.29694 38.3829C3.68979 37.6551 3.35794 36.7369 3.35944 35.7891V35.6641C3.3573 35.0361 3.50249 34.4163 3.78335 33.8546C4.06422 33.2929 4.47292 32.8048 4.97662 32.4297V30.2344C4.97246 30.2007 4.97246 30.1666 4.97662 30.1329C4.62082 29.8448 4.31923 29.4956 4.086 29.1016C3.79175 28.657 3.59964 28.1528 3.5235 27.6251C3.31751 27.1697 3.20082 26.6791 3.17975 26.1797C3.12156 25.3402 3.36847 24.508 3.87506 23.836C3.97619 23.7041 4.08859 23.5812 4.211 23.4688C4.17194 23.4688 4.14069 23.3907 4.10162 23.3516C3.84326 23.0433 3.65609 22.6819 3.55346 22.2929C3.45083 21.904 3.43526 21.4972 3.50787 21.1016C4.41293 16.0623 7.06062 11.5015 10.9879 8.21666C14.9153 4.93184 19.8723 3.13208 24.9922 3.13208C30.1122 3.13208 35.0692 4.93184 38.9966 8.21666C42.9239 11.5015 45.5716 16.0623 46.4766 21.1016C46.5492 21.4972 46.5337 21.904 46.431 22.2929C46.3284 22.6819 46.1412 23.0433 45.8829 23.3516C45.8438 23.3907 45.8126 23.4376 45.7735 23.4688C45.8959 23.5812 46.0083 23.7041 46.1094 23.836C46.616 24.508 46.8629 25.3402 46.8047 26.1797C46.7837 26.6791 46.667 27.1697 46.461 27.6251C46.3849 28.1528 46.1928 28.657 45.8985 29.1016C45.6676 29.4949 45.3687 29.8441 45.0157 30.1329ZM5.30475 22.3751C5.41187 22.5104 5.54851 22.6195 5.70422 22.6939C5.85993 22.7684 6.03059 22.8063 6.20319 22.8047H43.7969C43.9695 22.8063 44.1402 22.7684 44.2959 22.6939C44.4516 22.6195 44.5882 22.5104 44.6954 22.3751C44.8052 22.24 44.8844 22.0828 44.9276 21.9142C44.9707 21.7456 44.9768 21.5697 44.9454 21.3985C44.1038 16.7213 41.6452 12.4886 37.9994 9.44025C34.3536 6.39189 29.7524 4.72175 25.0001 4.72175C20.2477 4.72175 15.6466 6.39189 12.0007 9.44025C8.35492 12.4886 5.89635 16.7213 5.05475 21.3985C5.02331 21.5697 5.02938 21.7456 5.07254 21.9142C5.1157 22.0828 5.19493 22.24 5.30475 22.3751ZM44.8594 39.8829H5.14069C5.18885 41.2898 5.76721 42.6265 6.75975 43.6249C7.75229 44.6232 9.08561 45.2093 10.4923 45.2657H39.5079C40.9145 45.2093 42.2478 44.6232 43.2404 43.6249C44.2329 42.6265 44.8113 41.2898 44.8594 39.8829ZM42.5782 33.1719H36.3282L31.9219 37.1563C31.6525 37.3979 31.3034 37.5315 30.9415 37.5315C30.5796 37.5315 30.2304 37.3979 29.961 37.1563L25.5469 33.1719H7.42194C6.76025 33.1719 6.12554 33.4342 5.65693 33.9014C5.18831 34.3686 4.92401 35.0024 4.92194 35.6641V35.7891C4.92401 36.4508 5.18831 37.0847 5.65693 37.5518C6.12554 38.019 6.76025 38.2813 7.42194 38.2813H42.5782C43.2399 38.2813 43.8746 38.019 44.3432 37.5518C44.8118 37.0847 45.0761 36.4508 45.0782 35.7891V35.6641C45.0761 35.0024 44.8118 34.3686 44.3432 33.9014C43.8746 33.4342 43.2399 33.1719 42.5782 33.1719ZM6.53912 31.0157V31.6094H26.1563L27.8907 33.1719L30.9454 35.9376L34.0001 33.1719L35.7344 31.6094H43.461V31.0157H6.53912ZM21.5626 29.4532C21.336 29.2969 21.1251 29.1094 20.9219 28.9454C20.5271 28.5303 20.0521 28.1998 19.5256 27.974C18.9992 27.7481 18.4323 27.6317 17.8594 27.6317C17.2866 27.6317 16.7197 27.7481 16.1933 27.974C15.6668 28.1998 15.1917 28.5303 14.7969 28.9454C14.5938 29.1094 14.3829 29.2969 14.1563 29.4532H21.5626ZM35.8438 29.4532C35.6172 29.2969 35.4063 29.1094 35.2032 28.9454C34.8084 28.5303 34.3333 28.1998 33.8069 27.974C33.2804 27.7481 32.7135 27.6317 32.1407 27.6317C31.5678 27.6317 31.001 27.7481 30.4745 27.974C29.948 28.1998 29.473 28.5303 29.0782 28.9454C28.8751 29.1094 28.6641 29.2969 28.4376 29.4532H35.8438ZM44.7579 27.961C44.2472 28.2247 43.7742 28.5558 43.3516 28.9454C43.1485 29.1094 42.9376 29.2891 42.7188 29.4454C43.1595 29.4001 43.5804 29.2389 43.9385 28.9782C44.2967 28.7174 44.5794 28.3665 44.7579 27.961ZM7.25787 29.4454C7.03912 29.2891 6.82819 29.1094 6.62506 28.9454C6.20248 28.5558 5.7295 28.2247 5.21881 27.961C5.39922 28.3697 5.68553 28.7228 6.04813 28.9838C6.41074 29.2447 6.83647 29.4041 7.28131 29.4454H7.25787ZM45.2422 26.1719C45.2637 25.6893 45.1355 25.2117 44.8751 24.8047C44.7443 24.6499 44.5778 24.5291 44.39 24.4529C44.2022 24.3767 43.9986 24.3473 43.7969 24.3672H6.20319C6.00148 24.3473 5.79794 24.3767 5.61012 24.4529C5.4223 24.5291 5.25583 24.6499 5.12506 24.8047C4.86467 25.2117 4.73642 25.6893 4.75787 26.1719C4.88287 26.1719 5.00006 26.2266 5.10944 26.2657C6.06267 26.5508 6.93524 27.0567 7.65631 27.7422C8.05238 28.1565 8.52829 28.4863 9.05532 28.7116C9.58235 28.9369 10.1496 29.053 10.7227 29.053C11.2959 29.053 11.8631 28.9369 12.3901 28.7116C12.9171 28.4863 13.3931 28.1565 13.7891 27.7422C14.8728 26.6707 16.3354 26.0697 17.8594 26.0697C19.3835 26.0697 20.846 26.6707 21.9297 27.7422C22.3229 28.0977 22.7554 28.407 23.2188 28.6641C23.7718 28.9377 24.3833 29.0718 25.0001 29.0547C25.5741 29.056 26.1425 28.9402 26.6703 28.7145C27.1982 28.4889 27.6746 28.1581 28.0704 27.7422C29.1541 26.6707 30.6167 26.0697 32.1407 26.0697C33.6647 26.0697 35.1273 26.6707 36.211 27.7422C36.6071 28.1565 37.083 28.4863 37.61 28.7116C38.137 28.9369 38.7042 29.053 39.2774 29.053C39.8506 29.053 40.4178 28.9369 40.9448 28.7116C41.4718 28.4863 41.9478 28.1565 42.3438 27.7422C43.0649 27.0567 43.9375 26.5508 44.8907 26.2657C45.0001 26.2266 45.1172 26.2032 45.2422 26.1719Z" fill="#4A4A4A"/>
</svg>
