<svg width="54" height="50" viewBox="0 0 54 50" fill="none" xmlns="http://www.w3.org/2000/svg">
<g filter="url(#filter0_i_208_2983)">
<path d="M43.5281 12.598C43.9693 12.9654 44.4922 13.4529 44.6649 13.5836C44.7944 13.6816 45.0534 13.8776 45.5422 13.8099C48.2016 13.2591 44.5077 9.81704 44.2151 9.55386C43.9354 9.30228 39.1728 4.38251 38.2999 3.7635C37.427 3.14449 36.0819 4.79434 35.958 5.43002C35.834 6.0657 36.8413 6.95324 37.4073 7.36076C37.7908 7.48431 42.9764 12.1388 43.5281 12.598Z" fill="#F17B22"/>
</g>
<g filter="url(#filter1_i_208_2983)">
<path d="M32.5157 7.28661C31.8352 8.71075 33.7666 9.42641 34.8174 9.60623C35.0175 9.6449 38.9204 11.0088 39.6209 11.2785C40.3215 11.5482 43.0735 13.5442 43.724 12.0877C44.4745 10.9548 43.3237 10.3614 42.7232 9.87594C42.1228 9.39044 38.37 7.82605 36.7188 6.909C35.0676 5.99194 33.3663 5.50644 32.5157 7.28661Z" fill="#F17B22"/>
</g>
<g filter="url(#filter2_i_208_2983)">
<path d="M43.2341 16.2087C43.7544 16.4245 44.3849 16.7302 44.585 16.8021C44.7352 16.8561 45.0354 16.9639 45.4857 16.7482C47.8875 15.3995 43.4342 13.2418 43.0839 13.0799C42.7491 12.9252 36.8794 9.68141 35.8786 9.35774C34.8779 9.03408 34.0273 11.03 34.0773 11.6774C34.1273 12.3247 35.3282 12.8641 35.9787 13.0799C36.379 13.0799 42.5836 15.939 43.2341 16.2087Z" fill="#F17B22"/>
</g>
<g filter="url(#filter3_iii_208_2983)">
<path d="M19.8661 5.15592C19.8661 8.00345 17.725 10.3118 15.0837 10.3118C12.4424 10.3118 10.3013 8.00345 10.3013 5.15592C10.3013 2.30838 12.4424 0 15.0837 0C17.725 0 19.8661 2.30838 19.8661 5.15592ZM14.0459 5.15592C14.0459 5.77383 14.5105 6.27474 15.0837 6.27474C15.6568 6.27474 16.1215 5.77383 16.1215 5.15592C16.1215 4.53801 15.6568 4.03709 15.0837 4.03709C14.5105 4.03709 14.0459 4.53801 14.0459 5.15592Z" fill="#F59C24"/>
</g>
<ellipse cx="11.2744" cy="7.34055" rx="0.162116" ry="0.174777" fill="#A24B08"/>
<ellipse cx="13.3814" cy="4.71897" rx="0.162116" ry="0.174777" fill="#A24B08"/>
<ellipse cx="13.7056" cy="1.57321" rx="0.162116" ry="0.174777" fill="#A24B08"/>
<ellipse cx="17.03" cy="2.53417" rx="0.081058" ry="0.0873884" fill="#A24B08"/>
<ellipse cx="17.678" cy="7.77733" rx="0.081058" ry="0.0873884" fill="#A24B08"/>
<g filter="url(#filter4_iii_208_2983)">
<path d="M15.0834 11.5016C15.0834 14.3492 12.9422 16.6575 10.301 16.6575C7.65972 16.6575 5.51855 14.3492 5.51855 11.5016C5.51855 8.65409 7.65972 6.3457 10.301 6.3457C12.9422 6.3457 15.0834 8.65409 15.0834 11.5016ZM9.2632 11.5016C9.2632 12.1195 9.72783 12.6204 10.301 12.6204C10.8741 12.6204 11.3388 12.1195 11.3388 11.5016C11.3388 10.8837 10.8741 10.3828 10.301 10.3828C9.72783 10.3828 9.2632 10.8837 9.2632 11.5016Z" fill="#F59C24"/>
</g>
<ellipse cx="6.49122" cy="13.6865" rx="0.162116" ry="0.174777" fill="#A24B08"/>
<ellipse cx="8.59888" cy="11.0647" rx="0.162116" ry="0.174777" fill="#A24B08"/>
<ellipse cx="8.92286" cy="7.91843" rx="0.162116" ry="0.174777" fill="#A24B08"/>
<ellipse cx="12.2466" cy="8.87987" rx="0.081058" ry="0.0873884" fill="#A24B08"/>
<ellipse cx="12.895" cy="14.123" rx="0.081058" ry="0.0873884" fill="#A24B08"/>
<g filter="url(#filter5_iii_208_2983)">
<path d="M27.591 8.32852C27.591 11.1761 25.4498 13.4844 22.8085 13.4844C20.1673 13.4844 18.0261 11.1761 18.0261 8.32852C18.0261 5.48099 20.1673 3.17261 22.8085 3.17261C25.4498 3.17261 27.591 5.48099 27.591 8.32852ZM21.7708 8.32852C21.7708 8.94643 22.2354 9.44735 22.8085 9.44735C23.3817 9.44735 23.8463 8.94643 23.8463 8.32852C23.8463 7.71061 23.3817 7.2097 22.8085 7.2097C22.2354 7.2097 21.7708 7.71061 21.7708 8.32852Z" fill="#F59C24"/>
</g>
<ellipse cx="19.3674" cy="10.1172" rx="0.162116" ry="0.174777" fill="#A24B08"/>
<ellipse cx="21.4749" cy="7.49485" rx="0.162116" ry="0.174777" fill="#A24B08"/>
<ellipse cx="21.7988" cy="4.34934" rx="0.162116" ry="0.174777" fill="#A24B08"/>
<ellipse cx="25.1216" cy="5.31029" rx="0.081058" ry="0.0873884" fill="#A24B08"/>
<ellipse cx="25.7712" cy="10.5535" rx="0.081058" ry="0.0873884" fill="#A24B08"/>
<path d="M6.43829 29.7455C6.43829 28.9523 6.19304 23.9947 5.88647 21.8134C7.78718 25.2506 13.0601 30.3404 26.3037 30.3404C39.5474 28.9127 45.4948 23.6642 46.1692 21.4167L44.8816 32.5218L30.1665 38.6692L8.82951 38.0743C8.03243 35.6286 6.43829 30.5388 6.43829 29.7455Z" fill="#9A8846" stroke="#9B8846" stroke-width="0.364401"/>
<path d="M35.0844 45.5907C35.7211 46.4779 37.7219 46.1799 38.6427 45.9201C38.8367 45.8653 39.4642 45.8731 40.1039 45.4813C41.3834 44.6976 42.8663 44.7016 44.8982 44.1414C46.6792 43.5067 47.4353 42.1313 48.8311 40.3641C51.2593 36.14 50.9904 34.024 49.3114 30.0348C47.6323 26.0456 44.6191 26.7508 41.9258 27.26C39.2324 27.7693 35.0051 30.5865 34.6853 30.7824C34.3654 30.9783 33.1077 32.2048 32.4643 34.1954C31.8209 36.1859 32.2715 38.6468 32.475 39.4345C32.6785 40.2221 33.1726 43.5686 33.7651 43.89C34.6083 44.2858 34.2884 44.4817 35.0844 45.5907Z" fill="#F1D042" stroke="#6B4B0A" stroke-width="0.364401"/>
<path d="M45.277 32.7158C45.4603 32.4211 45.918 31.791 46.124 31.5128L44.9646 29.7141C44.3649 29.2452 43.047 28.243 42.5731 27.9859C42.1841 28.4522 36.7029 30.8971 36.2231 31.1909C36.2084 31.428 35.7178 32.6408 35.4888 33.0091C35.2598 33.3774 35.874 34.1416 36.0557 34.4864C36.2374 34.8313 34.8671 35.4425 35.0015 36.5005C35.136 37.5586 35.6158 37.2647 36.0265 37.2412C36.4372 37.2177 37.4839 38.4012 37.8947 38.3777C38.3054 38.3542 38.9233 37.5196 39.4249 37.6685C39.8262 37.7877 40.0161 38.5228 40.0609 38.8755C40.1215 38.9904 40.3888 39.1764 40.9732 39.0009C41.5577 38.8254 43.9138 36.8197 45.0188 35.8389C45.1412 35.5358 45.3773 34.7527 45.3424 34.0442C45.2988 33.1586 45.048 33.0841 45.277 32.7158Z" fill="#DC9123" stroke="#6B4B0A" stroke-width="0.1822"/>
<path d="M48.4282 34.435C48.7393 34.062 48.3709 30.821 48.5345 29.1242C52.2488 34.8319 49.6668 39.3021 47.8215 41.4207C46.6074 43.5327 44.7002 44.1232 43.0665 44.333C40.2394 44.6962 39.5523 45.8012 37.1309 45.9158C34.3249 45.8098 33.1512 40.3708 33.1076 39.4852C33.6783 39.3638 35.2048 40.2534 35.979 40.9196C36.7531 41.5858 38.7595 42.1815 39.421 42.2325C39.8949 42.4896 42.4051 40.9369 43.601 40.1284C43.83 39.7601 45.204 37.5501 45.5712 36.641C45.9383 35.7319 48.0392 34.9013 48.4282 34.435Z" fill="#C3A216"/>
<path d="M42.0101 36.4625C42.4063 36.1439 43.2488 35.5214 43.4494 35.581C43.7002 35.6554 43.2167 37.548 42.0101 36.4625Z" fill="#E1A034"/>
<path d="M40.7997 36.9758C41.1108 36.6028 41.6902 36.6585 41.941 36.733C41.941 36.733 41.9628 37.1757 41.483 37.4696C41.0032 37.7635 40.4107 37.4421 40.7997 36.9758Z" fill="#E1A034"/>
<path d="M39.8438 35.9648C39.9128 35.6944 40.2327 35.4985 40.7343 35.6474C41.1356 35.7666 40.9305 36.2875 40.7779 36.533C40.3514 36.7943 39.4119 37.2328 39.0659 36.8973C39.3858 36.7014 39.7747 36.2352 39.8438 35.9648Z" fill="#E1A034"/>
<path d="M36.3763 35.8078C36.193 36.1025 36.7239 36.7352 37.0123 37.0148C38.0627 36.5995 38.4081 35.2476 38.3172 35.0752C38.2263 34.9028 37.474 34.6794 37.0632 34.7028C36.7347 34.7216 36.4683 35.4473 36.3763 35.8078Z" fill="#E1A034"/>
<path d="M41.1487 34.0252C41.2214 34.1631 40.9342 34.6887 40.7815 34.9343C40.0037 35.8668 38.9569 34.6834 38.9352 34.2405C38.9134 33.7977 39.5531 33.4059 39.713 33.308C39.8729 33.21 40.4436 33.0886 40.6944 33.1631C40.9452 33.2375 41.0578 33.8527 41.1487 34.0252Z" fill="#E1A034"/>
<path d="M43.1842 31.8661C43.1625 31.4233 43.6422 31.1295 43.9621 30.9336C44.1827 30.7984 44.5092 30.8245 44.7022 30.8661C44.8662 30.8651 45.2168 30.9862 45.3069 31.4783C45.4196 32.0936 44.3909 32.9517 44.1401 32.8772C43.8893 32.8027 43.206 32.3089 43.1842 31.8661Z" fill="#E1A034"/>
<path d="M44.3436 33.6648C44.3989 33.4485 44.1849 33.2299 44.071 33.1476C43.9039 33.0979 43.5055 33.0378 43.2496 33.1945L43.2495 33.1946C42.9297 33.3905 42.6099 33.5864 42.3809 33.9547C42.061 34.1506 41.5812 34.4445 41.7629 34.7893C41.9446 35.1342 42.3554 35.1107 42.6752 34.9148C42.9951 34.7189 43.4276 35.1382 43.7475 34.9423C44.0673 34.7463 44.2746 33.9352 44.3436 33.6648Z" fill="#E1A034"/>
<path d="M37.7939 34.4834C38.2612 34.3073 38.4466 33.6734 38.4809 33.3784C38.1392 33.1315 36.8597 33.9152 36.7907 34.1856C36.7216 34.456 37.2096 34.7036 37.7939 34.4834Z" fill="#E1A034"/>
<path d="M44.7836 30.8866C44.7605 30.8798 44.7331 30.8727 44.7022 30.8661M44.7022 30.8661C44.5092 30.8245 44.1827 30.7984 43.9621 30.9336C43.6422 31.1295 43.1625 31.4233 43.1842 31.8661C43.206 32.3089 43.8893 32.8027 44.1401 32.8772C44.3909 32.9517 45.4196 32.0936 45.3069 31.4783C45.2168 30.9862 44.8662 30.8651 44.7022 30.8661ZM42.0101 36.4625C42.4063 36.1439 43.2488 35.5214 43.4494 35.581C43.7002 35.6554 43.2167 37.548 42.0101 36.4625ZM41.941 36.733C41.6902 36.6585 41.1108 36.6028 40.7997 36.9758C40.4107 37.4421 41.0032 37.7635 41.483 37.4696C41.9628 37.1757 41.941 36.733 41.941 36.733ZM40.7779 36.533C40.9305 36.2875 41.1356 35.7666 40.7343 35.6474C40.2327 35.4985 39.9128 35.6944 39.8438 35.9648C39.7747 36.2352 39.3858 36.7014 39.0659 36.8973C39.4119 37.2328 40.3514 36.7943 40.7779 36.533ZM37.0123 37.0148C36.7239 36.7352 36.193 36.1025 36.3763 35.8078C36.4683 35.4473 36.7347 34.7216 37.0632 34.7028C37.474 34.6794 38.2263 34.9028 38.3172 35.0752C38.4081 35.2476 38.0627 36.5995 37.0123 37.0148ZM40.7815 34.9343C40.9342 34.6887 41.2214 34.1631 41.1487 34.0252C41.0578 33.8527 40.9452 33.2375 40.6944 33.1631C40.4436 33.0886 39.8729 33.21 39.713 33.308C39.5531 33.4059 38.9134 33.7977 38.9352 34.2405C38.9569 34.6834 40.0037 35.8668 40.7815 34.9343ZM44.071 33.1476C44.1849 33.2299 44.3989 33.4485 44.3436 33.6648C44.2746 33.9352 44.0673 34.7463 43.7475 34.9423C43.4276 35.1382 42.9951 34.7189 42.6752 34.9148C42.3554 35.1107 41.9446 35.1342 41.7629 34.7893C41.5812 34.4445 42.061 34.1506 42.3809 33.9547C42.6099 33.5864 42.9297 33.3905 43.2496 33.1945C43.5055 33.0378 43.9039 33.0979 44.071 33.1476ZM38.4809 33.3784C38.4466 33.6734 38.2612 34.3073 37.7939 34.4834C37.2096 34.7036 36.7216 34.456 36.7907 34.1856C36.8597 33.9152 38.1392 33.1315 38.4809 33.3784Z" stroke="#6B4B0A" stroke-width="0.1822"/>
<path d="M37.179 36.0789C37.2928 36.1612 37.5802 36.198 37.8187 35.687M39.7379 34.5116C39.6918 34.6918 39.7458 35.0084 40.3303 34.8329M40.3776 34.1198C40.4612 34.1446 40.6422 34.1401 40.6975 33.9238M43.8961 31.9647C43.9639 32.2273 44.2094 32.6395 44.6485 32.1881M44.5358 31.5729C44.5661 31.6304 44.6405 31.6913 44.6958 31.475M43.5725 33.7594C43.747 33.9567 43.9498 34.395 43.3653 34.5706" stroke="#6B4B0A" stroke-width="0.1822"/>
<path d="M39.0112 33.1323C38.0807 32.9723 36.4778 33.5436 35.838 33.9354C35.7472 33.763 35.5752 33.4514 35.6346 33.1477C35.9326 32.509 36.2321 31.8651 36.3689 31.3296C36.6887 31.1337 40.7391 29.1851 42.7188 28.1245L44.0854 29.1121C44.3588 29.3096 45.2013 30.0252 45.223 30.468C45.1164 30.5333 44.5383 30.6137 44.0817 30.7109C43.5111 30.8323 42.8241 31.9373 42.0026 31.9843C41.1812 32.0313 40.1525 32.8894 39.0112 33.1323Z" fill="#C5A116"/>
<path d="M1.59735 39.5695C1.41613 40.6741 2.96572 42.0708 3.76317 42.631C3.93113 42.7491 4.34762 43.2551 5.04673 43.5023C6.44494 43.9968 7.43908 45.1831 9.18964 46.4283C10.8228 47.4232 12.2755 47.1021 14.4274 47.0283C18.9604 46.1269 20.2328 44.4898 21.8436 40.4681C23.4544 36.4463 20.9446 34.5153 18.7844 32.7078C16.6241 30.9004 11.8478 29.4201 11.4982 29.2965C11.1487 29.1729 9.46104 28.9935 7.66152 29.818C5.86201 30.6426 4.47495 32.6565 4.07086 33.3484C3.66676 34.0403 1.70084 36.6843 1.87841 37.3732C2.17343 38.3123 1.82387 38.1887 1.59735 39.5695Z" fill="#F1D042" stroke="#6B4B0A" stroke-width="0.364401"/>
<path d="M17.2921 39.0498C17.6176 38.9979 18.358 38.9397 18.6875 38.9171L19.1433 36.7826C19.0623 35.9887 18.8646 34.2631 18.7225 33.712C18.1408 33.715 12.7773 30.9835 12.253 30.7981C12.0803 30.9457 10.9177 31.3694 10.5108 31.4342C10.1039 31.499 9.99202 32.503 9.87736 32.8798C9.7627 33.2567 8.42179 32.5738 7.7856 33.3923C7.1494 34.2108 7.67373 34.3963 7.96596 34.7083C8.25818 35.0203 8.14911 36.6514 8.44133 36.9634C8.73356 37.2754 9.7221 37.2076 9.957 37.7081C10.1449 38.1084 9.76776 38.7542 9.5557 39.0271C9.51748 39.1527 9.5694 39.491 10.0828 39.8396C10.5962 40.1881 13.5574 40.7204 14.9738 40.943C15.2642 40.837 15.9607 40.499 16.4238 39.9949C17.0026 39.3648 16.8852 39.1146 17.2921 39.0498Z" fill="#DC9123" stroke="#6B4B0A" stroke-width="0.1822"/>
<path d="M18.2283 42.7208C18.6937 42.7184 20.6717 40.2456 21.9469 39.2356C20.5241 46.037 15.7186 46.9812 13.0234 46.9324C10.7568 47.3831 9.06925 46.2577 7.82698 45.0949C5.67714 43.0824 4.45649 43.2769 2.75003 41.4212C0.936557 39.1103 3.88265 34.5172 4.46152 33.8871C4.92852 34.261 5.34378 36.0774 5.40669 37.1432C5.4696 38.2089 6.40919 40.2108 6.81887 40.7731C6.96092 41.3242 9.71457 42.284 11.0736 42.6951C11.4805 42.6302 13.9218 42.2414 14.7929 41.9233C15.664 41.6052 17.6467 42.7238 18.2283 42.7208Z" fill="#C3A216"/>
<path d="M12.5222 38.9616C13.0074 39.0636 14.0012 39.3177 14.0952 39.5179C14.2126 39.7681 12.5879 40.6544 12.5222 38.9616Z" fill="#E1A034"/>
<path d="M11.3561 38.3406C11.8214 38.3382 12.1726 38.838 12.2901 39.0883C12.2901 39.0883 12.0006 39.4033 11.4763 39.2179C10.952 39.0324 10.7744 38.3436 11.3561 38.3406Z" fill="#E1A034"/>
<path d="M11.4078 36.8979C11.6399 36.7713 11.9894 36.8949 12.2243 37.3954C12.4123 37.7958 11.9167 37.9823 11.6455 38.0255C11.1794 37.8607 10.2467 37.4056 10.2445 36.9039C10.594 37.0275 11.1757 37.0246 11.4078 36.8979Z" fill="#E1A034"/>
<path d="M9.18464 34.0247C8.85914 34.0766 8.78148 34.9257 8.78334 35.3437C9.7747 35.903 10.9352 35.2699 10.9925 35.0815C11.0498 34.893 10.6975 34.1423 10.4053 33.8303C10.1715 33.5807 9.49411 33.8559 9.18464 34.0247Z" fill="#E1A034"/>
<path d="M13.617 36.6356C13.5711 36.7864 13.0171 36.9105 12.7459 36.9537C11.5825 36.9597 11.6916 35.3287 11.9811 35.0136C12.2705 34.6986 12.9696 34.9458 13.1444 35.0076C13.3191 35.0694 13.7862 35.4433 13.9036 35.6935C14.0211 35.9437 13.6743 36.4472 13.617 36.6356Z" fill="#E1A034"/>
<path d="M16.4679 36.809C16.7574 36.494 17.2817 36.6794 17.6313 36.803C17.8724 36.8883 18.074 37.1664 18.1751 37.3484C18.2861 37.4786 18.4386 37.8398 18.1612 38.2426C17.8144 38.7461 16.5336 38.5019 16.4162 38.2516C16.2987 38.0014 16.1785 37.1241 16.4679 36.809Z" fill="#E1A034"/>
<path d="M16.0121 38.9435C16.1978 38.8422 16.2041 38.5245 16.1841 38.3782C16.1058 38.2114 15.8793 37.853 15.5996 37.7542L15.5996 37.7541C15.25 37.6305 14.9005 37.5069 14.4936 37.5718C14.1441 37.4481 13.6198 37.2627 13.5051 37.6396C13.3904 38.0164 13.6827 38.3285 14.0322 38.4521C14.3818 38.5757 14.3846 39.2028 14.7341 39.3264C15.0837 39.45 15.78 39.0701 16.0121 38.9435Z" fill="#E1A034"/>
<path d="M11.0471 34.266C11.4822 34.5206 12.0422 34.2424 12.2677 34.0715C12.2076 33.6329 10.8094 33.1384 10.5773 33.265C10.3451 33.3916 10.5031 33.9477 11.0471 34.266Z" fill="#E1A034"/>
<path d="M18.2157 37.4271C18.2049 37.4041 18.1913 37.3774 18.1751 37.3484M18.1751 37.3484C18.074 37.1664 17.8724 36.8883 17.6313 36.803C17.2817 36.6794 16.7574 36.494 16.4679 36.809C16.1785 37.1241 16.2987 38.0014 16.4162 38.2516C16.5336 38.5019 17.8144 38.7461 18.1612 38.2426C18.4386 37.8398 18.2861 37.4786 18.1751 37.3484ZM12.5222 38.9616C13.0074 39.0636 14.0012 39.3177 14.0952 39.5179C14.2126 39.7681 12.5879 40.6544 12.5222 38.9616ZM12.2901 39.0883C12.1726 38.838 11.8214 38.3382 11.3561 38.3406C10.7744 38.3436 10.952 39.0324 11.4763 39.2179C12.0006 39.4033 12.2901 39.0883 12.2901 39.0883ZM11.6455 38.0255C11.9167 37.9823 12.4123 37.7958 12.2243 37.3954C11.9894 36.8949 11.6399 36.7713 11.4078 36.8979C11.1757 37.0246 10.594 37.0275 10.2445 36.9039C10.2467 37.4056 11.1794 37.8607 11.6455 38.0255ZM8.78334 35.3437C8.78148 34.9257 8.85914 34.0766 9.18464 34.0247C9.49411 33.8559 10.1715 33.5807 10.4053 33.8303C10.6975 34.1423 11.0498 34.893 10.9925 35.0815C10.9352 35.2699 9.7747 35.903 8.78334 35.3437ZM12.7459 36.9537C13.0171 36.9105 13.5711 36.7864 13.617 36.6356C13.6743 36.4472 14.0211 35.9437 13.9036 35.6935C13.7862 35.4433 13.3191 35.0694 13.1444 35.0076C12.9696 34.9458 12.2705 34.6986 11.9811 35.0136C11.6916 35.3287 11.5825 36.9597 12.7459 36.9537ZM16.1841 38.3782C16.2041 38.5245 16.1978 38.8422 16.0121 38.9435C15.78 39.0701 15.0837 39.45 14.7341 39.3264C14.3846 39.2028 14.3818 38.5757 14.0322 38.4521C13.6827 38.3285 13.3904 38.0164 13.5051 37.6396C13.6198 37.2627 14.1441 37.4481 14.4936 37.5718C14.9005 37.5069 15.2501 37.6306 15.5996 37.7542C15.8793 37.853 16.1058 38.2114 16.1841 38.3782ZM12.2677 34.0715C12.0422 34.2424 11.4822 34.5206 11.0471 34.266C10.5031 33.9477 10.3451 33.3916 10.5773 33.265C10.8094 33.1384 12.2076 33.6329 12.2677 34.0715Z" stroke="#6B4B0A" stroke-width="0.1822"/>
<path d="M9.53809 34.8472C9.55813 34.9934 9.726 35.2475 10.2372 35.0944M12.3345 35.8361C12.1798 35.9205 11.9987 36.1764 12.5121 36.525M13.0336 36.0833C13.0728 36.1667 13.1975 36.3082 13.3832 36.2069M16.8787 37.443C16.744 37.6737 16.6259 38.1467 17.2311 38.1937M17.5778 37.6902C17.5587 37.753 17.5669 37.8533 17.7526 37.752M15.4288 38.3912C15.4106 38.663 15.2459 39.1196 14.7325 38.771" stroke="#6B4B0A" stroke-width="0.1822"/>
<path d="M12.792 34.3285C12.2763 33.4783 10.8065 32.5829 10.1074 32.3357C10.1647 32.1472 10.2631 31.8005 10.5115 31.6438C11.1505 31.4524 11.794 31.2585 12.2537 31.0077C12.6032 31.1313 16.6641 33.0543 18.7232 33.9216L18.9637 35.6762C19.0118 36.0271 19.0867 37.1806 18.7973 37.4957C18.6808 37.4545 18.2369 37.0471 17.8633 36.748C17.3963 36.3741 16.1756 36.5686 15.5912 35.9445C15.0067 35.3204 13.726 35.0762 12.792 34.3285Z" fill="#C5A116"/>
<path d="M16.9976 44.4363C17.1448 45.5468 19.0209 46.3533 19.9406 46.6177C20.1343 46.6734 20.6764 47.0143 21.4121 47.0143C22.8837 47.0143 24.1712 47.8075 26.1946 48.4024C28.034 48.799 29.3215 48.0058 31.3449 47.2126C35.3915 44.8329 36.1273 42.8499 36.4952 38.4872C36.8631 34.1245 33.92 33.133 31.3449 32.1414C28.7697 31.1499 23.8034 31.3482 23.4355 31.3482C23.0676 31.3482 21.4121 31.7448 19.9406 33.133C18.4691 34.5211 17.7334 36.9007 17.5494 37.694C17.3655 38.4872 16.2618 41.6601 16.6297 42.255C17.1815 43.0482 16.8137 43.0482 16.9976 44.4363Z" fill="#F1D042" stroke="#6B4B0A" stroke-width="0.364401"/>
<path d="M31.7605 38.6689C32.0548 38.5103 32.7415 38.2062 33.0481 38.074L32.8642 35.8927C32.5576 35.1655 31.8709 33.5923 31.5766 33.1164C31.0248 33.3147 25.1387 32.5215 24.5869 32.5215C24.4656 32.7198 23.4833 33.513 23.1154 33.7113C22.7475 33.9096 22.9314 34.9011 22.9314 35.2977C22.9314 35.6944 21.4599 35.4961 21.092 36.4876C20.7241 37.4791 21.276 37.4791 21.6438 37.6774C22.0117 37.8757 22.3796 39.4621 22.7475 39.6604C23.1154 39.8588 24.0351 39.4621 24.4029 39.8588C24.6972 40.176 24.5256 40.9164 24.4029 41.2469C24.4029 41.3791 24.5501 41.6832 25.1387 41.8418C25.7273 42.0004 28.6949 41.5113 30.1051 41.2469C30.3503 41.0486 30.9144 40.4933 31.2087 39.8588C31.5766 39.0655 31.3926 38.8672 31.7605 38.6689Z" fill="#DC9123" stroke="#6B4B0A" stroke-width="0.1822"/>
<path d="M33.7117 41.8418C34.1532 41.6831 35.3178 38.6689 36.2375 37.2808C36.8518 44.2214 32.5587 46.7333 29.9836 47.5926C27.9602 48.7824 26.0314 48.2801 24.5148 47.5926C21.8902 46.4028 20.7866 46.9977 18.6287 45.8079C16.2375 44.2214 17.709 38.8672 18.0769 38.074C18.6287 38.2723 19.5484 39.8587 19.9163 40.8502C20.2841 41.8418 21.7557 43.4282 22.3075 43.8248C22.6018 44.3007 25.4958 44.2875 26.906 44.2214L26.906 44.2214C27.2739 44.0231 29.4811 42.8333 30.2169 42.2384C30.9526 41.6435 33.1599 42.0401 33.7117 41.8418Z" fill="#C3A216"/>
<path d="M27.2027 40.1877C27.6932 40.1216 28.711 40.029 28.8581 40.1877C29.0421 40.386 27.7545 41.7741 27.2027 40.1877Z" fill="#E1A034"/>
<path d="M25.9151 39.9894C26.3565 39.8308 26.8348 40.1877 27.0187 40.386C27.0187 40.386 26.8348 40.7826 26.283 40.7826C25.7311 40.7826 25.3633 40.1877 25.9151 39.9894Z" fill="#E1A034"/>
<path d="M25.5472 38.6012C25.7311 38.4029 26.099 38.4029 26.4669 38.7995C26.7612 39.1168 26.3443 39.4606 26.099 39.5928C25.6085 39.5928 24.5907 39.4738 24.4435 38.9978C24.8114 38.9978 25.3632 38.7995 25.5472 38.6012Z" fill="#E1A034"/>
<path d="M22.6042 36.6182C22.3098 36.7768 22.4815 37.6097 22.6042 38.0063C23.7078 38.2046 24.6275 37.2131 24.6275 37.0148C24.6275 36.8165 24.0756 36.2216 23.7078 36.0233C23.4135 35.8646 22.8494 36.3538 22.6042 36.6182Z" fill="#E1A034"/>
<path d="M27.5705 37.6097C27.5705 37.7683 27.08 38.0724 26.8347 38.2046C25.7311 38.6012 25.3632 37.0148 25.5472 36.6182C25.7311 36.2216 26.4669 36.2216 26.6508 36.2216C26.8347 36.2216 27.3865 36.4199 27.5705 36.6182C27.7544 36.8165 27.5705 37.4114 27.5705 37.6097Z" fill="#E1A034"/>
<path d="M30.3296 36.8165C30.5135 36.4199 31.0653 36.4199 31.4332 36.4199C31.687 36.4199 31.9589 36.6164 32.1077 36.7553C32.2507 36.8418 32.5001 37.1338 32.3529 37.6097C32.169 38.2046 30.8814 38.4029 30.6975 38.2046C30.5135 38.0063 30.1456 37.2131 30.3296 36.8165Z" fill="#E1A034"/>
<path d="M30.5135 38.9978C30.6607 38.8392 30.5748 38.5351 30.5135 38.4029C30.3909 38.2707 30.0721 38.0063 29.7778 38.0063H29.7777C29.4098 38.0063 29.042 38.0063 28.6741 38.2046C28.3062 38.2046 27.7544 38.2046 27.7544 38.6012C27.7544 38.9978 28.1223 39.1961 28.4902 39.1961C28.8581 39.1961 29.042 39.7911 29.4099 39.7911C29.7778 39.7911 30.3296 39.1961 30.5135 38.9978Z" fill="#E1A034"/>
<path d="M24.4435 36.2216C24.9306 36.3173 25.3823 35.8648 25.5472 35.6267C25.3633 35.23 23.8917 35.23 23.7078 35.4284C23.5238 35.6267 23.8347 36.1019 24.4435 36.2216Z" fill="#E1A034"/>
<path d="M32.169 36.8165C32.1521 36.7983 32.1314 36.7775 32.1077 36.7553M32.1077 36.7553C31.9589 36.6164 31.687 36.4199 31.4332 36.4199C31.0653 36.4199 30.5135 36.4199 30.3296 36.8165C30.1456 37.2131 30.5135 38.0063 30.6975 38.2046C30.8814 38.4029 32.169 38.2046 32.3529 37.6097C32.5001 37.1338 32.2507 36.8418 32.1077 36.7553ZM27.2027 40.1877C27.6932 40.1216 28.711 40.029 28.8581 40.1877C29.0421 40.386 27.7545 41.7741 27.2027 40.1877ZM27.0187 40.386C26.8348 40.1877 26.3565 39.8308 25.9151 39.9894C25.3633 40.1877 25.7311 40.7826 26.283 40.7826C26.8348 40.7826 27.0187 40.386 27.0187 40.386ZM26.099 39.5928C26.3443 39.4606 26.7612 39.1168 26.4669 38.7995C26.099 38.4029 25.7311 38.4029 25.5472 38.6012C25.3632 38.7995 24.8114 38.9978 24.4435 38.9978C24.5907 39.4738 25.6085 39.5928 26.099 39.5928ZM22.6042 38.0063C22.4815 37.6097 22.3098 36.7768 22.6042 36.6182C22.8494 36.3538 23.4135 35.8646 23.7078 36.0233C24.0756 36.2216 24.6275 36.8165 24.6275 37.0148C24.6275 37.2131 23.7078 38.2046 22.6042 38.0063ZM26.8347 38.2046C27.08 38.0724 27.5705 37.7683 27.5705 37.6097C27.5705 37.4114 27.7544 36.8165 27.5705 36.6182C27.3865 36.4199 26.8347 36.2216 26.6508 36.2216C26.4669 36.2216 25.7311 36.2216 25.5472 36.6182C25.3632 37.0148 25.7311 38.6012 26.8347 38.2046ZM30.5135 38.4029C30.5748 38.5351 30.6607 38.8392 30.5135 38.9978C30.3296 39.1961 29.7778 39.7911 29.4099 39.7911C29.042 39.7911 28.8581 39.1961 28.4902 39.1961C28.1223 39.1961 27.7544 38.9978 27.7544 38.6012C27.7544 38.2046 28.3062 38.2046 28.6741 38.2046C29.042 38.0063 29.4099 38.0063 29.7778 38.0063C30.0721 38.0063 30.3909 38.2707 30.5135 38.4029ZM25.5472 35.6267C25.3823 35.8648 24.9306 36.3173 24.4435 36.2216C23.8347 36.1019 23.5238 35.6267 23.7078 35.4284C23.8917 35.23 25.3633 35.23 25.5472 35.6267Z" stroke="#6B4B0A" stroke-width="0.1822"/>
<path d="M23.1777 37.2812C23.239 37.4135 23.472 37.5985 23.9135 37.2812M26.1208 37.2812C25.9981 37.4135 25.9 37.7175 26.4886 37.8762M26.8565 37.2812C26.9178 37.3474 27.0772 37.4399 27.2244 37.2812M30.9032 37.2812C30.8419 37.5457 30.8664 38.0348 31.455 37.8762M31.6389 37.2812C31.6389 37.3474 31.6757 37.4399 31.8229 37.2812M29.7996 38.6694C29.8609 38.9338 29.8363 39.4229 29.2477 39.2643" stroke="#6B4B0A" stroke-width="0.1822"/>
<path d="M26.1206 35.6948C25.3849 35.0602 23.7294 34.7033 22.9937 34.7033C22.9936 34.505 22.9869 34.1424 23.1776 33.91C23.7294 33.5134 24.2848 33.113 24.6491 32.7202C25.017 32.7202 29.4315 33.1829 31.6388 33.3151L32.3746 34.9016C32.5217 35.2189 32.9264 36.2897 32.7425 36.6863C32.6198 36.6863 32.0803 36.4483 31.6388 36.2897C31.087 36.0914 29.9834 36.6863 29.2476 36.2897C28.5118 35.8931 27.2243 36.0914 26.1206 35.6948Z" fill="#C5A116"/>
<path d="M32.0059 40.8505C32.0672 40.6522 32.337 40.2556 32.9256 40.2556C33.6614 40.2556 33.8453 39.2641 34.2132 38.8675M19.498 36.2895C19.682 36.0912 20.1602 35.6946 20.6017 35.6946C21.1535 35.6946 21.3374 35.4963 21.5214 34.9014C21.6685 34.4254 21.9506 34.1743 22.0732 34.1082" stroke="#BF9E14" stroke-width="0.364401"/>
<path d="M45.4421 21.0203C45.4421 23.0842 43.6116 25.236 39.9881 26.9253C36.4388 28.58 31.4716 29.6279 25.9358 29.6279C20.4001 29.6279 15.4328 28.58 11.8836 26.9253C8.26007 25.236 6.42956 23.0842 6.42956 21.0203C6.42956 18.9565 8.26007 16.8046 11.8836 15.1153C15.4328 13.4607 20.4001 12.4127 25.9358 12.4127C31.4716 12.4127 36.4388 13.4607 39.9881 15.1153C43.6116 16.8046 45.4421 18.9565 45.4421 21.0203Z" fill="#9A8846" stroke="#FFFFB5" stroke-width="1.82201"/>
<path d="M27.0397 28.5555C36.1825 28.5555 41.7549 25.9775 43.9621 22.4081C42.1227 19.2352 35.4468 15.864 26.304 15.864C17.1611 15.864 7.72607 18.199 7.72607 21.8131C7.72607 25.4273 17.4749 28.7538 27.0397 28.5555Z" fill="#6E4C0C"/>
<path d="M18.7624 26.7716C18.7624 26.9906 18.5977 26.9699 18.3945 26.9699C18.1913 26.9699 18.0266 26.9906 18.0266 26.7716C18.0266 26.5525 18.1913 26.5732 18.3945 26.5732C18.5977 26.5732 18.7624 26.5525 18.7624 26.7716Z" fill="#B5A02C"/>
<path d="M17.2907 25.1852C17.2907 25.4042 17.126 25.3835 16.9228 25.3835C16.7196 25.3835 16.5549 25.4042 16.5549 25.1852C16.5549 24.9661 16.7196 24.9868 16.9228 24.9868C17.126 24.9868 17.2907 24.9661 17.2907 25.1852Z" fill="#B5A02C"/>
<path d="M16.923 24.3919C16.923 24.611 16.7583 24.5902 16.5551 24.5902C16.352 24.5902 16.1873 24.611 16.1873 24.3919C16.1873 24.1729 16.352 24.1936 16.5551 24.1936C16.7583 24.1936 16.923 24.1729 16.923 24.3919Z" fill="#B5A02C"/>
<path d="M14.7157 25.1852C14.7157 25.4042 14.551 25.3835 14.3479 25.3835C14.1447 25.3835 13.98 25.4042 13.98 25.1852C13.98 24.9661 14.1447 24.9868 14.3479 24.9868C14.551 24.9868 14.7157 24.9661 14.7157 25.1852Z" fill="#B5A02C"/>
<path d="M15.0839 22.8053C15.0839 23.0243 14.9192 23.0036 14.716 23.0036C14.5128 23.0036 14.3481 23.0243 14.3481 22.8053C14.3481 22.5862 14.5128 22.6069 14.716 22.6069C14.9192 22.6069 15.0839 22.5862 15.0839 22.8053Z" fill="#B5A02C"/>
<path d="M16.1872 22.4088C16.1872 22.6278 16.0225 22.6071 15.8193 22.6071C15.6161 22.6071 15.4514 22.6278 15.4514 22.4088C15.4514 22.1897 15.6161 22.2104 15.8193 22.2104C16.0225 22.2104 16.1872 22.1897 16.1872 22.4088Z" fill="#B5A02C"/>
<path d="M18.3942 20.8224C18.3942 21.0414 18.2295 21.0207 18.0263 21.0207C17.8232 21.0207 17.6584 21.0414 17.6584 20.8224C17.6584 20.6033 17.8232 20.624 18.0263 20.624C18.2295 20.624 18.3942 20.6033 18.3942 20.8224Z" fill="#B5A02C"/>
<path d="M12.5082 23.5987C12.5082 23.8178 12.3435 23.797 12.1403 23.797C11.9372 23.797 11.7725 23.8178 11.7725 23.5987C11.7725 23.3797 11.9372 23.4004 12.1403 23.4004C12.3435 23.4004 12.5082 23.3797 12.5082 23.5987Z" fill="#B5A02C"/>
<path d="M11.0368 23.9952C11.0368 24.2143 10.8721 24.1935 10.6689 24.1935C10.4657 24.1935 10.301 24.2143 10.301 23.9952C10.301 23.7762 10.4657 23.7969 10.6689 23.7969C10.8721 23.7969 11.0368 23.7762 11.0368 23.9952Z" fill="#B5A02C"/>
<path d="M11.037 22.0121C11.037 22.2311 10.8723 22.2104 10.6691 22.2104C10.466 22.2104 10.3013 22.2311 10.3013 22.0121C10.3013 21.793 10.466 21.8137 10.6691 21.8137C10.8723 21.8137 11.037 21.793 11.037 22.0121Z" fill="#B5A02C"/>
<path d="M13.1789 19.8033C13.2941 19.9831 13.1477 20.067 12.9805 20.1915C12.8133 20.316 12.6887 20.434 12.5736 20.2542C12.4584 20.0745 12.6048 19.9905 12.7719 19.866C12.9391 19.7415 13.0637 19.6236 13.1789 19.8033Z" fill="#B5A02C"/>
<path d="M22.4798 25.349C22.4929 25.567 22.3273 25.5578 22.1245 25.572C21.9218 25.5862 21.7587 25.6183 21.7455 25.4003C21.7324 25.1823 21.898 25.1914 22.1008 25.1772C22.3035 25.163 22.4666 25.131 22.4798 25.349Z" fill="#B5A02C"/>
<path d="M26.866 26.3739C26.8791 26.5919 26.7135 26.5827 26.5107 26.5969C26.308 26.6111 26.1449 26.6432 26.1318 26.4252C26.1187 26.2072 26.2843 26.2163 26.487 26.2021C26.6898 26.1879 26.8529 26.1559 26.866 26.3739Z" fill="#B5A02C"/>
<path d="M30.9124 25.5804C30.9255 25.7984 30.7599 25.7893 30.5571 25.8034C30.3544 25.8176 30.1913 25.8497 30.1782 25.6317C30.1651 25.4137 30.3306 25.4228 30.5334 25.4087C30.7361 25.3945 30.8993 25.3624 30.9124 25.5804Z" fill="#B5A02C"/>
<path d="M34.959 24.7874C34.9721 25.0054 34.8065 24.9963 34.6038 25.0105C34.401 25.0246 34.2379 25.0568 34.2248 24.8388C34.2117 24.6208 34.3773 24.6299 34.58 24.6157C34.7828 24.6015 34.9459 24.5694 34.959 24.7874Z" fill="#B5A02C"/>
<path d="M36.4307 23.598C36.4438 23.816 36.2782 23.8068 36.0754 23.821C35.8727 23.8352 35.7096 23.8673 35.6965 23.6493C35.6834 23.4313 35.849 23.4404 36.0517 23.4262C36.2545 23.4121 36.4176 23.38 36.4307 23.598Z" fill="#B5A02C"/>
<path d="M33.8557 23.598C33.8688 23.816 33.7032 23.8068 33.5005 23.821C33.2977 23.8352 33.1346 23.8673 33.1215 23.6493C33.1084 23.4313 33.274 23.4404 33.4768 23.4262C33.6795 23.4121 33.8426 23.38 33.8557 23.598Z" fill="#B5A02C"/>
<path d="M32.7522 24.3912C32.7653 24.6092 32.5997 24.6001 32.397 24.6142C32.1942 24.6284 32.0311 24.6605 32.018 24.4425C32.0049 24.2245 32.1705 24.2336 32.3732 24.2195C32.576 24.2053 32.7391 24.1732 32.7522 24.3912Z" fill="#B5A02C"/>
<path d="M28.3372 25.5804C28.3503 25.7984 28.1847 25.7893 27.9819 25.8034C27.7792 25.8176 27.6161 25.8497 27.603 25.6317C27.5899 25.4137 27.7555 25.4228 27.9582 25.4087C28.1609 25.3945 28.3241 25.3624 28.3372 25.5804Z" fill="#B5A02C"/>
<path d="M23.187 27.9608C23.2001 28.1788 23.0345 28.1696 22.8318 28.1838C22.629 28.198 22.4659 28.2301 22.4528 28.0121C22.4397 27.7941 22.6053 27.8032 22.8081 27.789C23.0108 27.7749 23.1739 27.7428 23.187 27.9608Z" fill="#B5A02C"/>
<path d="M33.1199 22.4078C33.133 22.6258 32.9674 22.6167 32.7647 22.6308C32.5619 22.645 32.3988 22.6771 32.3857 22.4591C32.3726 22.2411 32.5382 22.2502 32.7409 22.2361C32.9437 22.2219 33.1068 22.1898 33.1199 22.4078Z" fill="#B5A02C"/>
<path d="M35.3274 21.2176C35.3405 21.4356 35.1749 21.4265 34.9722 21.4406C34.7694 21.4548 34.6063 21.4869 34.5932 21.2689C34.5801 21.0509 34.7457 21.06 34.9484 21.0459C35.1512 21.0317 35.3143 20.9996 35.3274 21.2176Z" fill="#B5A02C"/>
<path d="M35.3274 19.2352C35.3405 19.4532 35.1749 19.444 34.9722 19.4582C34.7694 19.4724 34.6063 19.5045 34.5932 19.2865C34.5801 19.0685 34.7457 19.0776 34.9484 19.0634C35.1512 19.0493 35.3143 19.0172 35.3274 19.2352Z" fill="#B5A02C"/>
<path d="M36.4307 20.4246C36.4438 20.6427 36.2782 20.6335 36.0754 20.6477C35.8727 20.6618 35.7096 20.694 35.6965 20.476C35.6834 20.258 35.849 20.2671 36.0517 20.2529C36.2545 20.2387 36.4176 20.2066 36.4307 20.4246Z" fill="#B5A02C"/>
<path d="M39.0059 20.8209C39.019 21.0389 38.8534 21.0297 38.6506 21.0439C38.4479 21.0581 38.2848 21.0902 38.2717 20.8722C38.2586 20.6542 38.4242 20.6633 38.6269 20.6491C38.8297 20.635 38.9928 20.6029 39.0059 20.8209Z" fill="#B5A02C"/>
<path d="M39.0059 22.4078C39.019 22.6258 38.8534 22.6167 38.6506 22.6308C38.4479 22.645 38.2848 22.6771 38.2717 22.4591C38.2586 22.2411 38.4242 22.2502 38.6269 22.2361C38.8297 22.2219 38.9928 22.1898 39.0059 22.4078Z" fill="#B5A02C"/>
<path d="M39.0059 25.5804C39.019 25.7984 38.8534 25.7893 38.6506 25.8034C38.4479 25.8176 38.2848 25.8497 38.2717 25.6317C38.2586 25.4137 38.4242 25.4228 38.6269 25.4087C38.8297 25.3945 38.9928 25.3624 39.0059 25.5804Z" fill="#B5A02C"/>
<path d="M41.5808 22.4078C41.5939 22.6258 41.4283 22.6167 41.2256 22.6308C41.0228 22.645 40.8597 22.6771 40.8466 22.4591C40.8335 22.2411 40.9991 22.2502 41.2019 22.2361C41.4046 22.2219 41.5677 22.1898 41.5808 22.4078Z" fill="#B5A02C"/>
<path d="M19.3142 16.6577C17.1069 16.6577 8.82965 18.4425 8.27783 21.417C9.19753 23.0034 30.5345 25.4249 31.8221 21.8555C33.1097 18.286 21.5215 17.2526 19.3142 16.6577Z" fill="#79570F" fill-opacity="0.6"/>
<path d="M13.98 21.1267C16.3712 19.4081 23.7656 16.5657 34.2133 18.9454C29.4309 16.764 18.5785 15.3759 13.98 21.1267Z" fill="#FAE39D"/>
<path d="M32.19 27.0759C35.133 26.1505 40.9455 23.6254 40.6512 20.9284C41.7548 22.1183 41.0191 25.8861 32.19 27.0759Z" fill="#FAE39D"/>
<path d="M13.98 21.1267C16.3712 19.4081 23.7656 16.5657 34.2133 18.9454C29.4309 16.764 18.5785 15.3759 13.98 21.1267Z" stroke="#623E00" stroke-width="0.1822"/>
<path d="M32.19 27.0759C35.133 26.1505 40.9455 23.6254 40.6512 20.9284C41.7548 22.1183 41.0191 25.8861 32.19 27.0759Z" stroke="#623E00" stroke-width="0.1822"/>
<defs>
<filter id="filter0_i_208_2983" x="35.9475" y="3.62695" width="10.552" height="10.5381" filterUnits="userSpaceOnUse" color-interpolation-filters="sRGB">
<feFlood flood-opacity="0" result="BackgroundImageFix"/>
<feBlend mode="normal" in="SourceGraphic" in2="BackgroundImageFix" result="shape"/>
<feColorMatrix in="SourceAlpha" type="matrix" values="0 0 0 0 0 0 0 0 0 0 0 0 0 0 0 0 0 0 127 0" result="hardAlpha"/>
<feOffset dy="0.341184"/>
<feGaussianBlur stdDeviation="0.170592"/>
<feComposite in2="hardAlpha" operator="arithmetic" k2="-1" k3="1"/>
<feColorMatrix type="matrix" values="0 0 0 0 0 0 0 0 0 0 0 0 0 0 0 0 0 0 0.25 0"/>
<feBlend mode="normal" in2="shape" result="effect1_innerShadow_208_2983"/>
</filter>
<filter id="filter1_i_208_2983" x="32.3738" y="6.08594" width="11.5962" height="6.86987" filterUnits="userSpaceOnUse" color-interpolation-filters="sRGB">
<feFlood flood-opacity="0" result="BackgroundImageFix"/>
<feBlend mode="normal" in="SourceGraphic" in2="BackgroundImageFix" result="shape"/>
<feColorMatrix in="SourceAlpha" type="matrix" values="0 0 0 0 0 0 0 0 0 0 0 0 0 0 0 0 0 0 127 0" result="hardAlpha"/>
<feOffset dy="0.341184"/>
<feGaussianBlur stdDeviation="0.170592"/>
<feComposite in2="hardAlpha" operator="arithmetic" k2="-1" k3="1"/>
<feColorMatrix type="matrix" values="0 0 0 0 0 0 0 0 0 0 0 0 0 0 0 0 0 0 0.25 0"/>
<feBlend mode="normal" in2="shape" result="effect1_innerShadow_208_2983"/>
</filter>
<filter id="filter2_i_208_2983" x="34.0752" y="9.32251" width="12.1182" height="7.89587" filterUnits="userSpaceOnUse" color-interpolation-filters="sRGB">
<feFlood flood-opacity="0" result="BackgroundImageFix"/>
<feBlend mode="normal" in="SourceGraphic" in2="BackgroundImageFix" result="shape"/>
<feColorMatrix in="SourceAlpha" type="matrix" values="0 0 0 0 0 0 0 0 0 0 0 0 0 0 0 0 0 0 127 0" result="hardAlpha"/>
<feOffset dy="0.341184"/>
<feGaussianBlur stdDeviation="0.170592"/>
<feComposite in2="hardAlpha" operator="arithmetic" k2="-1" k3="1"/>
<feColorMatrix type="matrix" values="0 0 0 0 0 0 0 0 0 0 0 0 0 0 0 0 0 0 0.25 0"/>
<feBlend mode="normal" in2="shape" result="effect1_innerShadow_208_2983"/>
</filter>
<filter id="filter3_iii_208_2983" x="8.84367" y="-1.4576" width="11.0225" height="13.2271" filterUnits="userSpaceOnUse" color-interpolation-filters="sRGB">
<feFlood flood-opacity="0" result="BackgroundImageFix"/>
<feBlend mode="normal" in="SourceGraphic" in2="BackgroundImageFix" result="shape"/>
<feColorMatrix in="SourceAlpha" type="matrix" values="0 0 0 0 0 0 0 0 0 0 0 0 0 0 0 0 0 0 127 0" result="hardAlpha"/>
<feOffset dy="1.4576"/>
<feGaussianBlur stdDeviation="0.728802"/>
<feComposite in2="hardAlpha" operator="arithmetic" k2="-1" k3="1"/>
<feColorMatrix type="matrix" values="0 0 0 0 0 0 0 0 0 0 0 0 0 0 0 0 0 0 0.25 0"/>
<feBlend mode="normal" in2="shape" result="effect1_innerShadow_208_2983"/>
<feColorMatrix in="SourceAlpha" type="matrix" values="0 0 0 0 0 0 0 0 0 0 0 0 0 0 0 0 0 0 127 0" result="hardAlpha"/>
<feOffset dx="-1.82201" dy="-0.364401"/>
<feGaussianBlur stdDeviation="0.728802"/>
<feComposite in2="hardAlpha" operator="arithmetic" k2="-1" k3="1"/>
<feColorMatrix type="matrix" values="0 0 0 0 0 0 0 0 0 0 0 0 0 0 0 0 0 0 0.25 0"/>
<feBlend mode="normal" in2="effect1_innerShadow_208_2983" result="effect2_innerShadow_208_2983"/>
<feColorMatrix in="SourceAlpha" type="matrix" values="0 0 0 0 0 0 0 0 0 0 0 0 0 0 0 0 0 0 127 0" result="hardAlpha"/>
<feOffset dy="-2.18641"/>
<feGaussianBlur stdDeviation="0.728802"/>
<feComposite in2="hardAlpha" operator="arithmetic" k2="-1" k3="1"/>
<feColorMatrix type="matrix" values="0 0 0 0 0 0 0 0 0 0 0 0 0 0 0 0 0 0 0.25 0"/>
<feBlend mode="normal" in2="effect2_innerShadow_208_2983" result="effect3_innerShadow_208_2983"/>
</filter>
<filter id="filter4_iii_208_2983" x="4.06095" y="4.8881" width="11.0225" height="13.2271" filterUnits="userSpaceOnUse" color-interpolation-filters="sRGB">
<feFlood flood-opacity="0" result="BackgroundImageFix"/>
<feBlend mode="normal" in="SourceGraphic" in2="BackgroundImageFix" result="shape"/>
<feColorMatrix in="SourceAlpha" type="matrix" values="0 0 0 0 0 0 0 0 0 0 0 0 0 0 0 0 0 0 127 0" result="hardAlpha"/>
<feOffset dy="1.4576"/>
<feGaussianBlur stdDeviation="0.728802"/>
<feComposite in2="hardAlpha" operator="arithmetic" k2="-1" k3="1"/>
<feColorMatrix type="matrix" values="0 0 0 0 0 0 0 0 0 0 0 0 0 0 0 0 0 0 0.25 0"/>
<feBlend mode="normal" in2="shape" result="effect1_innerShadow_208_2983"/>
<feColorMatrix in="SourceAlpha" type="matrix" values="0 0 0 0 0 0 0 0 0 0 0 0 0 0 0 0 0 0 127 0" result="hardAlpha"/>
<feOffset dx="-1.82201" dy="-0.364401"/>
<feGaussianBlur stdDeviation="0.728802"/>
<feComposite in2="hardAlpha" operator="arithmetic" k2="-1" k3="1"/>
<feColorMatrix type="matrix" values="0 0 0 0 0 0 0 0 0 0 0 0 0 0 0 0 0 0 0.25 0"/>
<feBlend mode="normal" in2="effect1_innerShadow_208_2983" result="effect2_innerShadow_208_2983"/>
<feColorMatrix in="SourceAlpha" type="matrix" values="0 0 0 0 0 0 0 0 0 0 0 0 0 0 0 0 0 0 127 0" result="hardAlpha"/>
<feOffset dy="-2.18641"/>
<feGaussianBlur stdDeviation="0.728802"/>
<feComposite in2="hardAlpha" operator="arithmetic" k2="-1" k3="1"/>
<feColorMatrix type="matrix" values="0 0 0 0 0 0 0 0 0 0 0 0 0 0 0 0 0 0 0.25 0"/>
<feBlend mode="normal" in2="effect2_innerShadow_208_2983" result="effect3_innerShadow_208_2983"/>
</filter>
<filter id="filter5_iii_208_2983" x="16.5685" y="1.715" width="11.0225" height="13.2271" filterUnits="userSpaceOnUse" color-interpolation-filters="sRGB">
<feFlood flood-opacity="0" result="BackgroundImageFix"/>
<feBlend mode="normal" in="SourceGraphic" in2="BackgroundImageFix" result="shape"/>
<feColorMatrix in="SourceAlpha" type="matrix" values="0 0 0 0 0 0 0 0 0 0 0 0 0 0 0 0 0 0 127 0" result="hardAlpha"/>
<feOffset dy="1.4576"/>
<feGaussianBlur stdDeviation="0.728802"/>
<feComposite in2="hardAlpha" operator="arithmetic" k2="-1" k3="1"/>
<feColorMatrix type="matrix" values="0 0 0 0 0 0 0 0 0 0 0 0 0 0 0 0 0 0 0.25 0"/>
<feBlend mode="normal" in2="shape" result="effect1_innerShadow_208_2983"/>
<feColorMatrix in="SourceAlpha" type="matrix" values="0 0 0 0 0 0 0 0 0 0 0 0 0 0 0 0 0 0 127 0" result="hardAlpha"/>
<feOffset dx="-1.82201" dy="-0.364401"/>
<feGaussianBlur stdDeviation="0.728802"/>
<feComposite in2="hardAlpha" operator="arithmetic" k2="-1" k3="1"/>
<feColorMatrix type="matrix" values="0 0 0 0 0 0 0 0 0 0 0 0 0 0 0 0 0 0 0.25 0"/>
<feBlend mode="normal" in2="effect1_innerShadow_208_2983" result="effect2_innerShadow_208_2983"/>
<feColorMatrix in="SourceAlpha" type="matrix" values="0 0 0 0 0 0 0 0 0 0 0 0 0 0 0 0 0 0 127 0" result="hardAlpha"/>
<feOffset dy="-2.18641"/>
<feGaussianBlur stdDeviation="0.728802"/>
<feComposite in2="hardAlpha" operator="arithmetic" k2="-1" k3="1"/>
<feColorMatrix type="matrix" values="0 0 0 0 0 0 0 0 0 0 0 0 0 0 0 0 0 0 0.25 0"/>
<feBlend mode="normal" in2="effect2_innerShadow_208_2983" result="effect3_innerShadow_208_2983"/>
</filter>
</defs>
</svg>
