<svg width="50" height="50" viewBox="0 0 50 50" fill="none" xmlns="http://www.w3.org/2000/svg">
<g clip-path="url(#clip0_208_2173)">
<path opacity="0.15" d="M19.7524 49.1249C26.1957 49.1249 31.419 48.3321 31.419 47.3541C31.419 46.3761 26.1957 45.5833 19.7524 45.5833C13.309 45.5833 8.08569 46.3761 8.08569 47.3541C8.08569 48.3321 13.309 49.1249 19.7524 49.1249Z" fill="#45413C"/>
<path d="M29.2315 45.1667C28.6065 44.0209 25.794 43.1876 22.044 42.8751C21.5232 42.8751 21.2107 42.4584 21.2107 41.9376V34.5417H18.5024V41.9376C18.5024 42.4584 18.0857 42.7709 17.669 42.8751C13.919 43.0834 11.0024 44.0209 10.4815 45.1667C10.3774 45.3751 10.4815 45.6876 10.6899 45.7918C11.6274 46.2084 14.4399 47.4584 19.9607 47.4584C25.4815 47.4584 28.294 46.3126 29.2315 45.7918C29.2315 45.6876 29.3357 45.3751 29.2315 45.1667Z" fill="#00B8F0" stroke="#45413C" stroke-miterlimit="10" stroke-linecap="round" stroke-linejoin="round"/>
<path d="M27.9817 10.0626C27.9817 9.02092 24.3359 8.29175 19.7525 8.29175C15.1692 8.29175 11.5234 9.12508 11.5234 10.0626L10.1692 26.9376C10.1692 32.2501 14.44 36.5209 19.7525 36.5209C25.065 36.5209 29.3359 32.2501 29.3359 26.9376L27.9817 10.0626Z" fill="#00B8F0"/>
<path d="M28.2942 14.3335L27.9817 10.1668C27.9817 9.12516 24.3359 8.396 19.7525 8.396C15.1692 8.396 11.5234 9.22933 11.5234 10.1668L10.1692 27.0418C10.1692 28.6043 10.5859 30.1668 11.2109 31.4168C11.2109 31.4168 16.94 28.8127 21.5234 23.8127C26.1067 18.8127 28.2942 14.3335 28.2942 14.3335Z" fill="#4ACFFF"/>
<path d="M19.7526 11.8334C24.2974 11.8334 27.9818 11.0406 27.9818 10.0626C27.9818 9.08458 24.2974 8.29175 19.7526 8.29175C15.2078 8.29175 11.5234 9.08458 11.5234 10.0626C11.5234 11.0406 15.2078 11.8334 19.7526 11.8334Z" fill="#00B8F0"/>
<path d="M27.9817 10.0626C27.9817 9.02092 24.3359 8.29175 19.7525 8.29175C15.1692 8.29175 11.5234 9.12508 11.5234 10.0626L10.1692 26.9376C10.1692 32.2501 14.44 36.5209 19.7525 36.5209C25.065 36.5209 29.3359 32.2501 29.3359 26.9376L27.9817 10.0626Z" stroke="#45413C" stroke-miterlimit="10" stroke-linecap="round" stroke-linejoin="round"/>
<path d="M27.9818 10.0625C27.9818 11.1042 24.3359 11.8333 19.7526 11.8333C15.1693 11.8333 11.5234 11 11.5234 10.0625" stroke="#45413C" stroke-miterlimit="10" stroke-linecap="round" stroke-linejoin="round"/>
<path d="M7.77328 12.6667C7.25245 12.9792 6.62745 12.7709 6.41911 12.2501C5.37745 9.64589 6.31495 6.62506 8.81495 5.06256C11.3149 3.50006 14.4399 4.02089 16.3149 6.10423C16.7316 6.52089 16.5233 7.14589 16.1066 7.45839L7.77328 12.6667Z" fill="#6DD627" stroke="#45413C" stroke-miterlimit="10" stroke-linecap="round" stroke-linejoin="round"/>
<path d="M13.3982 16.9375L12.4607 26.9375C12.4607 31 15.6899 34.2292 19.7524 34.2292C23.8149 34.2292 27.044 31 27.044 26.9375L26.1065 16.9375H13.3982Z" fill="#FF8A14"/>
<path d="M19.7524 26.9375C16.6274 26.9375 13.919 26.5208 12.5649 26L12.4607 26.9375C12.4607 31 15.6899 34.2292 19.7524 34.2292C23.8149 34.2292 27.044 31 27.044 26.9375L26.9399 26C25.5857 26.5208 22.8774 26.9375 19.7524 26.9375Z" fill="#FF6242"/>
<path d="M19.7524 17.875C23.2617 17.875 26.1065 17.4553 26.1065 16.9375C26.1065 16.4197 23.2617 16 19.7524 16C16.2431 16 13.3982 16.4197 13.3982 16.9375C13.3982 17.4553 16.2431 17.875 19.7524 17.875Z" fill="#FF8A14"/>
<path d="M22.0439 18.2916H24.7523V11.5208C23.9189 11.6249 22.9814 11.7291 22.0439 11.8333V18.2916Z" fill="#BF8DF2" stroke="#45413C" stroke-miterlimit="10" stroke-linecap="round" stroke-linejoin="round"/>
<path d="M26.1065 16.9375C26.1065 17.4583 23.294 17.875 19.7524 17.875C16.2107 17.875 13.3982 17.4583 13.3982 16.9375L12.4607 26.9375C12.4607 28.1875 12.7732 29.2292 13.294 30.2708C15.3774 29.125 18.7107 26.9375 21.6274 23.7083C23.6065 21.5208 25.169 19.4375 26.2107 17.7708L26.1065 16.9375Z" fill="#FFAA54"/>
<path d="M12.5649 26L12.4607 26.9375C12.4607 28.1875 12.7732 29.2292 13.294 30.2708C14.544 29.5417 16.419 28.3958 18.1899 26.9375C15.794 26.8333 13.7107 26.4167 12.5649 26Z" fill="#FF866E"/>
<path d="M25.7942 7.04167L29.3359 2.875L27.0442 1L22.9817 6.10417C22.3567 6.9375 22.0442 7.875 22.0442 8.91667V11.8333C23.0859 11.7292 23.9192 11.625 24.7525 11.5208V9.95833C24.7525 8.8125 25.1692 7.77083 25.7942 7.04167Z" fill="#9F5AE5" stroke="#45413C" stroke-miterlimit="10" stroke-linecap="round" stroke-linejoin="round"/>
<g clip-path="url(#clip1_208_2173)">
<path d="M42.7383 30.0462C42.6223 30.0002 42.5455 29.8892 42.5406 29.7664L42.1983 20.1897C42.1849 19.8175 41.9531 19.4884 41.6091 19.3519L38.9265 18.2872C38.768 18.2243 38.6887 18.0407 38.7516 17.8822C38.8145 17.7237 38.9981 17.6444 39.1566 17.7073L41.8392 18.772C42.4113 18.9991 42.7981 19.5464 42.8214 20.1641L43.1622 29.7447C43.1696 29.9176 43.0325 30.0601 42.8596 30.0675C42.8186 30.0692 42.7769 30.0615 42.7383 30.0462Z" fill="#EE4267"/>
<path d="M45.1028 26.5464L47.7605 32.1382C47.9174 32.4869 47.9293 32.8853 47.7882 33.2409L46.9198 35.4288C46.2141 37.2069 44.9191 38.6884 43.2466 39.622C41.7252 40.4678 39.9022 40.5854 38.2841 39.9388L35.733 38.9262C34.1118 38.2873 32.8641 36.9554 32.3384 35.2926C31.7628 33.4623 31.8347 31.4998 32.5404 29.7217L33.4088 27.5339C33.5499 27.1783 33.8318 26.8964 34.1851 26.7503L39.7226 24.3082L45.1028 26.5464Z" fill="#13AD4C"/>
<path d="M47.8879 32.663L45.3024 30.6435C44.7839 30.2363 44.1485 30.011 43.4905 30.0004L41.9814 29.9697C41.2091 29.954 40.4692 29.6425 39.9148 29.1003L39.1095 28.3109C38.6264 27.8372 37.9977 27.5385 37.3249 27.4639C36.119 27.3343 34.9147 27.2008 33.7089 27.0712C33.7312 27.0488 33.752 27.0302 33.7728 27.0116C33.7867 26.9992 33.8005 26.9868 33.8144 26.9744C33.8198 26.9721 33.8229 26.9643 33.8283 26.962C33.8421 26.9496 33.8599 26.9388 33.8737 26.9264C33.8915 26.9155 33.9069 26.8992 33.9246 26.8884C33.9439 26.8737 33.9655 26.8643 33.9847 26.8496C33.9971 26.8411 34.0079 26.8364 34.0241 26.8294C34.0349 26.8248 34.0418 26.8186 34.0526 26.8139C34.0935 26.7899 34.1367 26.7712 34.1837 26.7541L39.7212 24.312L45.1661 26.4775L47.7591 32.142C47.7871 32.2068 47.8112 32.2701 47.8299 32.3357C47.8354 32.3557 47.8408 32.3758 47.8439 32.3905C47.8463 32.3959 47.8447 32.3997 47.8486 32.4013C47.8517 32.4159 47.8549 32.4306 47.8565 32.4491C47.8588 32.4545 47.8596 32.4638 47.8604 32.4731C47.8635 32.4877 47.8666 32.5024 47.8659 32.5155C47.8667 32.5248 47.869 32.5302 47.8698 32.5394C47.8753 32.5595 47.8754 32.5819 47.8754 32.6043C47.877 32.6228 47.8771 32.6452 47.8787 32.6638C47.8856 32.6576 47.8841 32.6614 47.8879 32.663Z" fill="#13AD4C"/>
<path d="M47.8879 32.663L45.3024 30.6435C44.7839 30.2363 44.1485 30.011 43.4905 30.0004L41.9814 29.9697C41.2091 29.954 40.4692 29.6425 39.9148 29.1003L39.1095 28.3109C38.6264 27.8372 37.9977 27.5385 37.3249 27.4639C36.119 27.3343 34.9147 27.2008 33.7089 27.0712C33.7312 27.0488 33.752 27.0302 33.7728 27.0116C33.7867 26.9992 33.8005 26.9868 33.8144 26.9744C33.8198 26.9721 33.8229 26.9643 33.8283 26.962C33.8421 26.9496 33.8599 26.9388 33.8737 26.9264C33.8915 26.9155 33.9069 26.8992 33.9246 26.8884C33.9439 26.8737 33.9655 26.8643 33.9847 26.8496C33.9971 26.8411 34.0079 26.8364 34.0241 26.8294C34.0349 26.8248 34.0418 26.8186 34.0526 26.8139C34.0935 26.7899 34.1367 26.7712 34.1837 26.7541L39.7212 24.312L45.1661 26.4775L47.7591 32.142C47.7871 32.2068 47.8112 32.2701 47.8299 32.3357C47.8354 32.3557 47.8408 32.3758 47.8439 32.3905C47.8463 32.3959 47.8447 32.3997 47.8486 32.4013C47.8517 32.4159 47.8549 32.4306 47.8565 32.4491C47.8588 32.4545 47.8596 32.4638 47.8604 32.4731C47.8635 32.4877 47.8666 32.5024 47.8659 32.5155C47.8667 32.5248 47.869 32.5302 47.8698 32.5394C47.8753 32.5595 47.8754 32.5819 47.8754 32.6043C47.877 32.6228 47.8771 32.6452 47.8787 32.6638C47.8856 32.6576 47.8841 32.6614 47.8879 32.663Z" fill="#FDEB96"/>
<path d="M35.3452 27.2106L40.8812 24.7724L39.7215 24.3122L34.1856 26.7504C34.0104 26.8196 33.8516 26.9266 33.7192 27.0575C34.2468 27.1147 34.7705 27.1705 35.2981 27.2278C35.3143 27.2208 35.329 27.2176 35.3452 27.2106Z" fill="#FDDE47"/>
</g>
</g>
<defs>
<clipPath id="clip0_208_2173">
<rect width="50" height="50" fill="white"/>
</clipPath>
<clipPath id="clip1_208_2173">
<rect width="21.2928" height="21.2928" fill="white" transform="translate(34.8547 16) rotate(21.6477)"/>
</clipPath>
</defs>
</svg>
