<svg width="51" height="50" viewBox="0 0 51 50" fill="none" xmlns="http://www.w3.org/2000/svg">
<path opacity="0.15" d="M26.5417 49.0624C32.985 49.0624 38.2083 48.2696 38.2083 47.2916C38.2083 46.3136 32.985 45.5208 26.5417 45.5208C20.0983 45.5208 14.875 46.3136 14.875 47.2916C14.875 48.2696 20.0983 49.0624 26.5417 49.0624Z" fill="#45413C"/>
<path d="M36.0208 45.1042C35.3958 43.9584 32.5833 43.1251 28.8333 42.8126C28.3125 42.8126 28 42.3959 28 41.8751V34.4792H25.2917V41.8751C25.2917 42.3959 24.875 42.7084 24.4583 42.8126C20.7083 43.0209 17.7917 43.9584 17.2708 45.1042C17.1667 45.3126 17.2708 45.6251 17.4792 45.7293C18.4167 46.1459 21.2292 47.3959 26.75 47.3959C32.2708 47.3959 35.0833 46.2501 36.0208 45.7293C36.0208 45.6251 36.125 45.3126 36.0208 45.1042Z" fill="#00B8F0" stroke="#45413C" stroke-miterlimit="10" stroke-linecap="round" stroke-linejoin="round"/>
<path d="M34.6576 12.6937C34.6576 11.6974 31.0435 11 26.5 11C21.9565 11 18.3424 11.797 18.3424 12.6937L17 28.8339C17 33.9151 21.2337 38 26.5 38C31.7663 38 36 33.9151 36 28.8339L34.6576 12.6937Z" fill="#00B8F0"/>
<path d="M35 16.6742L34.6897 12.6923C34.6897 11.6968 31.069 11 26.5172 11C21.9655 11 18.3448 11.7964 18.3448 12.6923L17 28.819C17 30.3122 17.4138 31.8054 18.0345 33C18.0345 33 23.7241 30.5113 28.2759 25.733C32.8276 20.9548 35 16.6742 35 16.6742Z" fill="#4ACFFF"/>
<path d="M26.2292 14.5417C30.774 14.5417 34.4583 13.7488 34.4583 12.7708C34.4583 11.7928 30.774 11 26.2292 11C21.6843 11 18 11.7928 18 12.7708C18 13.7488 21.6843 14.5417 26.2292 14.5417Z" fill="#00B8F0"/>
<path d="M34.6576 12.6937C34.6576 11.6974 31.0435 11 26.5 11C21.9565 11 18.3424 11.797 18.3424 12.6937L17 28.8339C17 33.9151 21.2337 38 26.5 38C31.7663 38 36 33.9151 36 28.8339L34.6576 12.6937Z" stroke="#45413C" stroke-miterlimit="10" stroke-linecap="round" stroke-linejoin="round"/>
<path d="M34.7711 13C34.7711 14.0417 31.1252 14.7708 26.5419 14.7708C21.9586 14.7708 18.3127 13.9375 18.3127 13" stroke="#45413C" stroke-miterlimit="10" stroke-linecap="round" stroke-linejoin="round"/>
<path d="M14.5626 12.6042C14.0418 12.9167 13.4168 12.7084 13.2084 12.1876C12.1668 9.58339 13.1043 6.56256 15.6043 5.00006C18.1043 3.43756 21.2293 3.95839 23.1043 6.04173C23.5209 6.45839 23.3126 7.08339 22.8959 7.39589L14.5626 12.6042Z" fill="#6DD627" stroke="#45413C" stroke-miterlimit="10" stroke-linecap="round" stroke-linejoin="round"/>
<path d="M20.1875 16.875L19.25 26.875C19.25 30.9375 22.4792 34.1667 26.5417 34.1667C30.6042 34.1667 33.8333 30.9375 33.8333 26.875L32.8958 16.875H20.1875Z" fill="#FF8A14"/>
<path d="M26.5417 26.875C23.4167 26.875 20.7083 26.4583 19.3542 25.9375L19.25 26.875C19.25 30.9375 22.4792 34.1667 26.5417 34.1667C30.6042 34.1667 33.8333 30.9375 33.8333 26.875L33.7292 25.9375C32.375 26.4583 29.6667 26.875 26.5417 26.875Z" fill="#FF6242"/>
<path d="M26.5417 17.8125C30.051 17.8125 32.8958 17.3928 32.8958 16.875C32.8958 16.3572 30.051 15.9375 26.5417 15.9375C23.0324 15.9375 20.1875 16.3572 20.1875 16.875C20.1875 17.3928 23.0324 17.8125 26.5417 17.8125Z" fill="#FF8A14"/>
<path d="M28.8333 18.2291H31.5416V11.4583C30.7083 11.5624 29.7708 11.6666 28.8333 11.7708V18.2291Z" fill="#BF8DF2" stroke="#45413C" stroke-miterlimit="10" stroke-linecap="round" stroke-linejoin="round"/>
<path d="M32.8958 16.875C32.8958 17.3958 30.0833 17.8125 26.5417 17.8125C23 17.8125 20.1875 17.3958 20.1875 16.875L19.25 26.875C19.25 28.125 19.5625 29.1667 20.0833 30.2083C22.1667 29.0625 25.5 26.875 28.4167 23.6458C30.3958 21.4583 31.9583 19.375 33 17.7083L32.8958 16.875Z" fill="#FFAA54"/>
<path d="M19.3542 25.9375L19.25 26.875C19.25 28.125 19.5625 29.1667 20.0833 30.2083C21.3333 29.4792 23.2083 28.3333 24.9792 26.875C22.5833 26.7708 20.5 26.3542 19.3542 25.9375Z" fill="#FF866E"/>
<path d="M32.6 9.57692L36 5.73077L33.8 4L29.9 8.71154C29.3 9.48077 29 10.3462 29 11.3077V14C30 13.9038 30.8 13.8077 31.6 13.7115V12.2692C31.6 11.2115 32 10.25 32.6 9.57692Z" fill="#9F5AE5" stroke="#45413C" stroke-miterlimit="10" stroke-linecap="round" stroke-linejoin="round"/>
</svg>
