<svg width="50" height="50" viewBox="0 0 50 50" fill="none" xmlns="http://www.w3.org/2000/svg">
<path d="M18.8911 26.1722L17.6192 26.3668C17.4373 26.3946 17.2517 26.3864 17.073 26.3425C16.8943 26.2986 16.726 26.2199 16.5777 26.1109C16.4294 26.002 16.3041 25.8649 16.2087 25.7075C16.1134 25.5501 16.0501 25.3755 16.0222 25.1936L13.4366 8.29259C13.3804 7.92526 13.4725 7.55065 13.6925 7.25116C13.9125 6.95168 14.2424 6.75186 14.6098 6.69567L15.6486 6.53674C16.0777 6.47109 16.5154 6.5786 16.8653 6.83563C17.2152 7.09266 17.4486 7.47816 17.5143 7.90732L20.0642 24.5752C20.092 24.7571 20.0838 24.9427 20.0399 25.1214C19.996 25.3 19.9173 25.4683 19.8084 25.6166C19.6994 25.7649 19.5624 25.8903 19.405 25.9856C19.2476 26.0809 19.073 26.1443 18.8911 26.1721L18.8911 26.1722Z" fill="#F7D926"/>
<path d="M15.2534 6.64771L14.5505 6.75511C13.7836 6.87241 13.3205 7.5326 13.4526 8.39511L16.2493 26.6771L18.2703 26.3679C15.9046 20.0982 14.9647 13.5936 15.2534 6.64771Z" fill="#E5C217"/>
<path d="M14.6473 7.09448C14.4997 7.17259 14.3746 7.28718 14.2838 7.42733C14.2631 7.46258 14.2401 7.49538 14.2212 7.53083L14.1678 7.63863C14.1528 7.67588 14.1403 7.71438 14.1264 7.75158C14.1123 7.78904 14.1013 7.8276 14.0935 7.86688C14.0217 8.18177 14.0059 8.50687 14.047 8.82723L14.0584 8.94853C14.0627 8.98893 14.0716 9.02948 14.0779 9.06988L14.1171 9.31263C14.15 9.47998 14.1796 9.64763 14.2101 9.81558C14.2406 9.98353 14.2677 10.1515 14.2967 10.3195L14.3771 10.8245C14.4805 11.4982 14.567 12.1745 14.6366 12.8533C14.7038 13.5326 14.7566 14.2141 14.7626 14.9027C14.5626 14.2438 14.4092 13.5777 14.2702 12.9094C14.133 12.2409 14.0134 11.5696 13.9113 10.8957L13.8372 10.3899C13.8146 10.221 13.7901 10.0523 13.7691 9.88318C13.7481 9.71403 13.726 9.54503 13.7075 9.37543L13.6857 9.11068C13.6832 9.06638 13.6782 9.02263 13.6777 8.97798L13.678 8.84393C13.6789 8.48893 13.7266 8.12223 13.8771 7.78858C13.8944 7.74645 13.9151 7.70574 13.9388 7.66683C13.9624 7.62758 13.9845 7.58803 14.0092 7.55008L14.0917 7.44133C14.1196 7.40578 14.1543 7.37513 14.1853 7.34283C14.2163 7.31053 14.2547 7.28463 14.2886 7.25593C14.3243 7.22908 14.3629 7.20593 14.4005 7.18273C14.4773 7.13983 14.5607 7.11 14.6473 7.09448Z" fill="#E2B700"/>
<path d="M16.7409 28.6722L15.4691 28.8668C15.2872 28.8946 15.1016 28.8864 14.9229 28.8425C14.7442 28.7986 14.5759 28.7199 14.4276 28.6109C14.2793 28.502 14.1539 28.3649 14.0586 28.2075C13.9633 28.0501 13.8999 27.8755 13.8721 27.6936L11.2865 10.7926C11.2587 10.6107 11.2669 10.4251 11.3108 10.2464C11.3547 10.0677 11.4334 9.89945 11.5423 9.75116C11.6513 9.60288 11.7883 9.4775 11.9457 9.38218C12.1031 9.28687 12.2777 9.22349 12.4596 9.19567L13.4984 9.03674C13.9276 8.97109 14.3653 9.0786 14.7151 9.33563C15.065 9.59266 15.2985 9.97816 15.3641 10.4073L17.9141 27.0752C17.9703 27.4425 17.8782 27.8171 17.6582 28.1166C17.4382 28.4161 17.1083 28.6159 16.7409 28.6721L16.7409 28.6722Z" fill="#F7D926"/>
<path d="M13.1035 9.14771L12.4006 9.25511C11.6337 9.37241 11.1706 10.0326 11.3027 10.8951L14.0994 29.1771L16.1204 28.8679C13.7547 22.5982 12.8148 16.0936 13.1035 9.14771Z" fill="#E5C217"/>
<path d="M12.4974 9.59448C12.3498 9.67259 12.2247 9.78718 12.1339 9.92733C12.1132 9.96258 12.0902 9.99538 12.0713 10.0308L12.0179 10.1386C12.0029 10.1759 11.9904 10.2144 11.9765 10.2516C11.9624 10.289 11.9514 10.3276 11.9436 10.3669C11.8718 10.6818 11.856 11.0069 11.8971 11.3272L11.9085 11.4485C11.9128 11.4889 11.9217 11.5295 11.928 11.5699L11.9672 11.8126C12.0001 11.98 12.0297 12.1476 12.0602 12.3156C12.0907 12.4835 12.1178 12.6515 12.1468 12.8195L12.2272 13.3245C12.3306 13.9982 12.4171 14.6745 12.4867 15.3533C12.5539 16.0326 12.6067 16.7141 12.6127 17.4027C12.4127 16.7438 12.2593 16.0777 12.1203 15.4094C11.9831 14.7409 11.8635 14.0696 11.7614 13.3957L11.6873 12.8899C11.6647 12.721 11.6402 12.5523 11.6192 12.3832C11.5982 12.214 11.5761 12.045 11.5576 11.8754L11.5358 11.6107C11.5333 11.5664 11.5283 11.5226 11.5278 11.478L11.5281 11.3439C11.529 10.9889 11.5767 10.6222 11.7272 10.2886C11.7445 10.2464 11.7652 10.2057 11.7889 10.1668C11.8125 10.1276 11.8346 10.088 11.8593 10.0501L11.9418 9.94133C11.9697 9.90578 12.0044 9.87513 12.0354 9.84283C12.0664 9.81053 12.1048 9.78463 12.1387 9.75593C12.1744 9.72908 12.213 9.70593 12.2506 9.68273C12.3274 9.63983 12.4108 9.61 12.4974 9.59448Z" fill="#E2B700"/>
<path d="M37.4319 6.89262L38.1969 7.04716C38.3673 7.08157 38.5292 7.1492 38.6734 7.24618C38.8177 7.34317 38.9414 7.46761 39.0375 7.61241C39.1336 7.75721 39.2003 7.91952 39.2337 8.09009C39.2671 8.26065 39.2666 8.43612 39.2322 8.60648L35.8158 25.5179C35.7462 25.862 35.5429 26.1643 35.2505 26.3585C34.9581 26.5526 34.6005 26.6226 34.2564 26.5531L33.2731 26.3545C32.9291 26.2849 32.6268 26.0816 32.4326 25.7892C32.2385 25.4968 32.1685 25.1392 32.238 24.7952L35.6103 8.10196C35.6915 7.70002 35.9291 7.34679 36.2707 7.11999C36.6124 6.89319 37.0301 6.81139 37.432 6.89259L37.4319 6.89262Z" fill="#F7D926"/>
<path d="M37.6952 6.99707L38.3174 7.12277C38.9962 7.25987 39.3687 7.92947 39.1958 8.78497L35.5335 26.9134L33.7449 26.552C36.2593 20.3719 37.5129 13.9204 37.6952 6.99707Z" fill="#E5C217"/>
<path d="M38.2094 7.45801C38.2938 7.48014 38.3731 7.51843 38.443 7.57076C38.4785 7.59704 38.512 7.62608 38.543 7.65761L38.5903 7.70511L38.6321 7.75706L38.6741 7.80991C38.6868 7.82831 38.6976 7.84771 38.7094 7.86676C38.7338 7.90438 38.7555 7.94366 38.7744 7.98431L38.8305 8.10681L38.8738 8.23371C38.9814 8.57691 38.9938 8.93776 38.9688 9.28596C38.9659 9.37431 38.9531 9.46031 38.9425 9.54696L38.9253 9.67696C38.9197 9.72081 38.9134 9.76346 38.9062 9.80456C38.8795 9.97146 38.8496 10.1377 38.8206 10.3042C38.7916 10.4707 38.7593 10.6365 38.7289 10.8026L38.6317 11.3001C38.4984 11.9623 38.3491 12.6214 38.1838 13.2773C38.0164 13.9327 37.8355 14.5854 37.6108 15.2293C37.6537 14.5487 37.7405 13.877 37.8408 13.208C37.9426 12.5393 38.0608 11.8739 38.1956 11.2119L38.2989 10.7158C38.3353 10.5508 38.37 10.3856 38.4079 10.2208C38.4458 10.0561 38.4829 9.89126 38.5229 9.72711C38.5442 9.64386 38.5571 9.56646 38.5756 9.48581C38.593 9.40581 38.6128 9.32581 38.6225 9.24581C38.6859 8.92873 38.6994 8.6037 38.6625 8.28246L38.645 8.16336L38.6154 8.04751C38.6055 8.00882 38.5927 7.97091 38.5772 7.93411L38.5559 7.87766L38.5296 7.82381L38.5028 7.76936L38.4704 7.71841C38.4487 7.68394 38.4245 7.65112 38.398 7.62021C38.3451 7.55552 38.2813 7.50062 38.2094 7.45801Z" fill="#E2B700"/>
<path d="M34.0058 5.19624L34.7858 5.22431C35.1366 5.23693 35.468 5.38838 35.7071 5.64534C35.9462 5.9023 36.0734 6.24372 36.0608 6.5945L35.4403 23.8365C35.4341 24.0102 35.3936 24.1809 35.3214 24.339C35.2492 24.4971 35.1465 24.6394 35.0192 24.7577C34.892 24.8761 34.7427 24.9683 34.5798 25.029C34.417 25.0897 34.2438 25.1177 34.0701 25.1114L33.0674 25.0753C32.7166 25.0627 32.3852 24.9113 32.1461 24.6543C31.907 24.3974 31.7797 24.0559 31.7924 23.7052L32.4048 6.68578C32.4121 6.48284 32.4594 6.28334 32.5438 6.09865C32.6282 5.91396 32.7481 5.74771 32.8968 5.60939C33.0455 5.47107 33.2199 5.36339 33.4102 5.2925C33.6005 5.22161 33.8029 5.1889 34.0058 5.19624Z" fill="#F7D926"/>
<path d="M34.283 5.25659L34.9173 5.27939C35.6095 5.30439 36.0858 5.90439 36.0545 6.77664L35.3895 25.2593L33.5657 25.1937C35.0415 18.6868 35.2292 12.1173 34.283 5.25659Z" fill="#E5C217"/>
<path d="M34.865 5.62769C34.9519 5.63582 35.0364 5.66069 35.1138 5.70094C35.1533 5.72107 35.191 5.74428 35.2268 5.77034L35.2812 5.80949L35.3312 5.85399L35.3812 5.89934C35.3967 5.91539 35.4106 5.93279 35.4252 5.94969C35.4555 5.98277 35.4834 6.01798 35.5087 6.05504L35.584 6.16679L35.6473 6.28494C35.8094 6.60609 35.8802 6.95994 35.912 7.30779C35.9236 7.39544 35.9249 7.48234 35.9286 7.56959L35.9327 7.70059C35.9344 7.74474 35.9351 7.78784 35.9346 7.82959C35.9354 7.99864 35.9329 8.16754 35.9314 8.33654C35.9298 8.50554 35.925 8.67429 35.922 8.84319L35.907 9.34969C35.8831 10.0249 35.843 10.6995 35.7866 11.3734C35.728 12.0474 35.6557 12.7208 35.5388 13.3927C35.4704 12.7141 35.4467 12.0373 35.4367 11.3609C35.4284 10.6845 35.4369 10.0088 35.4621 9.33364L35.4833 8.82739C35.4924 8.65874 35.4998 8.48999 35.5104 8.32134C35.5211 8.15269 35.5304 7.98404 35.5436 7.81554C35.5511 7.72994 35.5512 7.65149 35.5563 7.56889C35.5605 7.48729 35.5671 7.40519 35.5636 7.32434C35.5745 7.00117 35.5349 6.67829 35.4462 6.36734L35.4096 6.25269L35.3615 6.14319C35.3454 6.10664 35.3266 6.07133 35.3053 6.03754L35.2753 5.98529L35.2403 5.93644L35.2053 5.88704L35.165 5.84204C35.1381 5.81159 35.1089 5.78318 35.0777 5.75704C35.0149 5.70181 34.9429 5.65803 34.865 5.62769Z" fill="#E2B700"/>
<path d="M39.3318 11.1426L40.0968 11.2972C40.2672 11.3316 40.4291 11.3992 40.5733 11.4962C40.7176 11.5932 40.8413 11.7176 40.9374 11.8624C41.0335 12.0072 41.1002 12.1695 41.1336 12.3401C41.167 12.5106 41.1665 12.6861 41.1321 12.8565L37.7157 29.7679C37.6812 29.9383 37.6136 30.1002 37.5166 30.2444C37.4196 30.3887 37.2952 30.5124 37.1504 30.6085C37.0056 30.7046 36.8433 30.7713 36.6727 30.8047C36.5022 30.8381 36.3267 30.8375 36.1563 30.8031L35.173 30.6045C34.829 30.5349 34.5267 30.3316 34.3325 30.0392C34.1384 29.7468 34.0684 29.3892 34.1379 29.0452L37.5102 12.352C37.5914 11.95 37.829 11.5968 38.1706 11.37C38.5123 11.1432 38.93 11.0614 39.3319 11.1426L39.3318 11.1426Z" fill="#F7D926"/>
<path d="M39.5953 11.2471L40.2175 11.3728C40.8964 11.5099 41.2688 12.1795 41.096 13.035L37.4337 31.1634L35.645 30.802C38.1594 24.6219 39.4131 18.1704 39.5953 11.2471Z" fill="#E5C217"/>
<path d="M40.1093 11.708C40.1937 11.7301 40.273 11.7684 40.3429 11.8208C40.3785 11.847 40.4119 11.8761 40.4429 11.9076L40.4902 11.9551L40.532 12.0071L40.574 12.0599C40.5867 12.0783 40.5975 12.0977 40.6093 12.1168C40.6337 12.1544 40.6554 12.1937 40.6743 12.2343L40.7304 12.3568L40.7737 12.4837C40.8813 12.8269 40.8937 13.1878 40.8687 13.536C40.8658 13.6243 40.853 13.7103 40.8424 13.797L40.8252 13.927C40.8196 13.9708 40.8133 14.0135 40.8061 14.0546C40.7794 14.2215 40.7495 14.3877 40.7205 14.5542C40.6915 14.7207 40.6592 14.8865 40.6288 15.0526L40.5316 15.5501C40.3983 16.2123 40.249 16.8714 40.0837 17.5273C39.9163 18.1827 39.7354 18.8354 39.5107 19.4793C39.5536 18.7987 39.6404 18.127 39.7407 17.458C39.8425 16.7893 39.9607 16.1239 40.0955 15.4619L40.1988 14.9658C40.2352 14.8008 40.2699 14.6358 40.3078 14.4708C40.3457 14.3058 40.3828 14.1413 40.4228 13.9771C40.4441 13.8939 40.457 13.8165 40.4755 13.7358C40.4929 13.6558 40.5127 13.5758 40.5224 13.4958C40.5858 13.1787 40.5993 12.8537 40.5624 12.5325L40.5449 12.4134L40.5153 12.2975C40.5054 12.2588 40.4926 12.2209 40.4771 12.1841L40.4558 12.1277L40.4295 12.0738L40.4027 12.0194L40.3703 11.9684C40.3486 11.9339 40.3244 11.9011 40.2979 11.8702C40.245 11.8055 40.1812 11.7506 40.1093 11.708Z" fill="#E2B700"/>
<path d="M27.1961 5.09985H27.9765C28.3275 5.09987 28.6641 5.23931 28.9123 5.4875C29.1605 5.73569 29.2999 6.07231 29.2999 6.4233V23.6764C29.2999 24.0274 29.1605 24.364 28.9123 24.6122C28.6641 24.8604 28.3275 24.9999 27.9765 24.9999H26.9734C26.7996 24.9999 26.6275 24.9656 26.4669 24.8991C26.3063 24.8326 26.1604 24.7351 26.0375 24.6122C25.9146 24.4893 25.8172 24.3434 25.7506 24.1829C25.6841 24.0223 25.6499 23.8502 25.6499 23.6764V6.646C25.6499 6.23594 25.8128 5.84267 26.1028 5.55271C26.3927 5.26275 26.786 5.09985 27.1961 5.09985Z" fill="#F7D926"/>
<path d="M27.4751 5.1499H28.1101C28.8026 5.1499 29.3001 5.73245 29.3001 6.60525V25.0999H27.4751C28.7161 18.5442 28.6674 11.9722 27.4751 5.1499Z" fill="#E5C217"/>
<path d="M28.0701 5.5C28.1572 5.50496 28.2426 5.52678 28.3214 5.56425C28.3615 5.58294 28.4001 5.60477 28.4368 5.62955L28.4926 5.6667L28.5439 5.7094L28.5955 5.7529C28.6116 5.7684 28.626 5.7853 28.6413 5.80165C28.6728 5.83364 28.7019 5.86781 28.7285 5.9039L28.8078 6.0129L28.8753 6.1287C29.0489 6.4437 29.1323 6.79505 29.1766 7.14135C29.1914 7.2285 29.1958 7.3153 29.2026 7.4024L29.2115 7.53315C29.2147 7.5772 29.2169 7.6203 29.218 7.662C29.2249 7.8309 29.2285 7.9998 29.233 8.1687C29.2376 8.3376 29.2388 8.5065 29.2419 8.6754L29.2449 9.1821C29.2452 9.8577 29.2294 10.5333 29.1974 11.2089C29.1631 11.8845 29.1151 12.5601 29.0224 13.2357C28.9297 12.5601 28.8817 11.8845 28.8474 11.2089C28.8148 10.5333 28.799 9.8577 28.7999 9.1821L28.803 8.6754C28.806 8.5065 28.8073 8.3376 28.8118 8.1687C28.8164 7.9998 28.8199 7.8309 28.8268 7.662C28.8312 7.5762 28.8285 7.4978 28.8307 7.4151C28.8319 7.3334 28.8357 7.25105 28.8292 7.17045C28.8285 6.84709 28.7773 6.52582 28.6775 6.21825L28.6367 6.105L28.5848 5.9973C28.5673 5.96135 28.5473 5.92674 28.5248 5.89375L28.4928 5.8426L28.4563 5.795L28.4192 5.74695L28.3774 5.70345C28.3493 5.67396 28.3191 5.64657 28.287 5.6215C28.2224 5.56862 28.1489 5.5275 28.0701 5.5Z" fill="#E2B700"/>
<path d="M22.068 23.7104L21.0764 23.8621C20.7294 23.9152 20.3756 23.8283 20.0927 23.6204C19.8098 23.4126 19.6211 23.101 19.568 22.754L16.9589 5.69928C16.9058 5.35232 16.9927 4.99848 17.2005 4.71561C17.4083 4.43273 17.72 4.244 18.067 4.19092L18.8384 4.07289C19.2438 4.01088 19.6572 4.11243 19.9876 4.3552C20.3181 4.59798 20.5386 4.96209 20.6006 5.36744L23.1761 22.202C23.2292 22.549 23.1422 22.9028 22.9344 23.1857C22.7266 23.4686 22.415 23.6573 22.068 23.7104Z" fill="#F7D926"/>
<path d="M18.5705 4.16455L17.943 4.26055C17.2584 4.3653 16.8546 5.0164 16.9866 5.87915L19.7833 24.1612L21.5873 23.8852C19.3692 17.5925 18.4235 11.0888 18.5705 4.16455Z" fill="#E5C217"/>
<path d="M18.0351 4.60059C17.9614 4.63973 17.8952 4.69146 17.8393 4.75344C17.8114 4.78308 17.7857 4.81471 17.7624 4.84809L17.7274 4.89744L17.6981 4.95054L17.6692 5.00309L17.6453 5.05849C17.6281 5.09452 17.6135 5.13177 17.6017 5.16994L17.5667 5.28424L17.5436 5.40234C17.4914 5.72148 17.4894 6.04682 17.5376 6.36659C17.5435 6.44719 17.5595 6.52804 17.5731 6.60859C17.5877 6.69004 17.5969 6.76794 17.6142 6.85214C17.6466 7.01804 17.6756 7.18444 17.7056 7.35074C17.7356 7.51704 17.7625 7.68374 17.791 7.85024L17.8707 8.35069C17.9732 9.01845 18.0597 9.68867 18.1302 10.3613C18.1984 11.0344 18.2531 11.7095 18.2636 12.3913C18.0697 11.7375 17.9201 11.0769 17.784 10.4143C17.6496 9.75139 17.5317 9.08595 17.4305 8.41799L17.3569 7.91669C17.3344 7.74924 17.3101 7.58209 17.289 7.41444C17.268 7.24679 17.246 7.07944 17.2272 6.91134C17.2222 6.86989 17.2177 6.82699 17.2142 6.78294L17.2032 6.65234C17.1967 6.56524 17.1882 6.47879 17.1894 6.39039C17.1808 6.04139 17.2102 5.68154 17.3341 5.34379L17.3833 5.21914L17.4452 5.09914C17.4661 5.05944 17.4897 5.02126 17.5159 4.98489C17.5286 4.96639 17.5403 4.94754 17.5539 4.92989L17.5983 4.87909L17.6426 4.82909L17.6921 4.78409C17.7246 4.75405 17.7594 4.72663 17.7963 4.70209C17.8686 4.65313 17.9497 4.61866 18.0351 4.60059Z" fill="#E2B700"/>
<path d="M23.2266 26.9H22.2234C21.8725 26.9 21.5358 26.7606 21.2877 26.5124C21.0395 26.2642 20.9 25.9276 20.9 25.5766L20.9 8.32347C20.9 7.97247 21.0395 7.63585 21.2877 7.38765C21.5359 7.13946 21.8725 7.00002 22.2235 7.00002H23.0039C23.414 7.00002 23.8072 7.16292 24.0972 7.45288C24.3872 7.74284 24.55 8.13611 24.55 8.54617L24.55 25.5766C24.55 25.9276 24.4106 26.2642 24.1624 26.5124C23.9142 26.7606 23.5776 26.9 23.2266 26.9Z" fill="#F7D926"/>
<path d="M22.7249 7.05005H22.0899C21.3974 7.05005 20.8999 7.6326 20.8999 8.5054V27H22.7249C21.4839 20.4443 21.5326 13.8723 22.7249 7.05005Z" fill="#E5C217"/>
<path d="M22.1302 7.40015C22.0514 7.42768 21.9781 7.4688 21.9135 7.52165C21.8814 7.54672 21.8512 7.57411 21.8232 7.6036L21.7813 7.6471L21.7443 7.69515L21.7078 7.74275L21.6758 7.7939C21.6532 7.82689 21.6332 7.8615 21.6158 7.89745L21.5638 8.00515L21.5231 8.1184C21.4232 8.42597 21.3721 8.74724 21.3714 9.0706C21.365 9.1512 21.3686 9.23355 21.3699 9.31525C21.372 9.39795 21.3693 9.47635 21.3737 9.56215C21.3806 9.73105 21.3842 9.89995 21.3887 10.0688C21.3933 10.2377 21.3945 10.4066 21.3976 10.5755L21.4006 11.0822C21.401 11.7578 21.3851 12.4334 21.3531 13.109C21.3187 13.7846 21.2707 14.4602 21.1781 15.1358C21.0854 14.4602 21.0374 13.7846 21.0031 13.109C20.9704 12.4334 20.9546 11.7578 20.9556 11.0822L20.9587 10.5755C20.9617 10.4066 20.963 10.2377 20.9675 10.0688C20.9721 9.89995 20.9756 9.73105 20.9825 9.56215C20.9836 9.52045 20.9859 9.47715 20.9891 9.4333L20.998 9.30255C21.0047 9.21545 21.0092 9.12865 21.0239 9.0415C21.0683 8.6952 21.1517 8.34395 21.3252 8.02885L21.3928 7.91305L21.472 7.80405C21.4986 7.76796 21.5278 7.73379 21.5592 7.7018C21.5745 7.68545 21.589 7.66855 21.605 7.65305L21.6566 7.60955L21.7079 7.56685L21.7637 7.5297C21.8004 7.50492 21.839 7.48308 21.8791 7.4644C21.9579 7.42697 22.0431 7.40515 22.1302 7.40015Z" fill="#E2B700"/>
<path d="M19.7679 31.4605L18.7763 31.6122C18.6045 31.6385 18.4292 31.6307 18.2605 31.5892C18.0917 31.5478 17.9327 31.4735 17.7927 31.3706C17.6526 31.2677 17.5342 31.1382 17.4441 30.9895C17.3541 30.8409 17.2942 30.6759 17.268 30.5041L14.6588 13.4494C14.6057 13.1024 14.6927 12.7486 14.9005 12.4657C15.1083 12.1829 15.42 11.9941 15.7669 11.941L16.5384 11.823C16.9437 11.761 17.3571 11.8625 17.6876 12.1053C18.0181 12.3481 18.2386 12.7122 18.3006 13.1176L20.876 29.9521C20.9291 30.2991 20.8422 30.6529 20.6344 30.9358C20.4266 31.2187 20.1149 31.4074 19.7679 31.4605Z" fill="#F7D926"/>
<path d="M16.2704 11.9143L15.643 12.0103C14.9584 12.1151 14.5545 12.7662 14.6865 13.6289L17.4833 31.9109L19.2873 31.6349C17.0692 25.3423 16.1235 18.8385 16.2704 11.9143Z" fill="#E5C217"/>
<path d="M15.7351 12.3503C15.6614 12.3895 15.5951 12.4412 15.5393 12.5032C15.5114 12.5328 15.4857 12.5645 15.4624 12.5978L15.4274 12.6472L15.3981 12.7003L15.3692 12.7528L15.3453 12.8082C15.328 12.8443 15.3135 12.8815 15.3017 12.9197L15.2667 13.034L15.2435 13.1521C15.1913 13.4712 15.1893 13.7966 15.2375 14.1163C15.2434 14.1969 15.2595 14.2778 15.273 14.3583C15.2877 14.4398 15.2968 14.5177 15.3142 14.6019C15.3465 14.7678 15.3756 14.9342 15.4056 15.1005C15.4356 15.2668 15.4624 15.4335 15.491 15.6L15.5706 16.1004C15.6731 16.7682 15.7596 17.4384 15.8301 18.1111C15.8983 18.7841 15.953 19.4592 15.9635 20.1411C15.7697 19.4873 15.6201 18.8267 15.4839 18.164C15.3495 17.5011 15.2317 16.8357 15.1305 16.1677L15.0569 15.6664C15.0343 15.499 15.01 15.3318 14.989 15.1642C14.9679 14.9965 14.9459 14.8292 14.9271 14.6611C14.9221 14.6196 14.9176 14.5767 14.9142 14.5327L14.9031 14.4021C14.8967 14.315 14.8881 14.2285 14.8893 14.1401C14.8808 13.7911 14.9102 13.4313 15.034 13.0935L15.0833 12.9689L15.1452 12.8489C15.166 12.8092 15.1896 12.771 15.2159 12.7346C15.2285 12.7161 15.2403 12.6973 15.2538 12.6796L15.2982 12.6288L15.3425 12.5788L15.392 12.5338C15.4245 12.5038 15.4594 12.4764 15.4962 12.4518C15.5685 12.4029 15.6496 12.3684 15.7351 12.3503Z" fill="#E2B700"/>
<path d="M30.3952 9.4441L31.1749 9.47219C31.5255 9.48483 31.8568 9.63624 32.0958 9.89313C32.3348 10.15 32.462 10.4913 32.4493 10.842L31.8282 28.0779C31.822 28.2515 31.7816 28.4222 31.7093 28.5802C31.6371 28.7382 31.5345 28.8804 31.4073 28.9988C31.2801 29.1171 31.1308 29.2092 30.968 29.2699C30.8052 29.3306 30.632 29.3586 30.4584 29.3523L29.4561 29.3162C29.1054 29.3035 28.7741 29.1521 28.5351 28.8952C28.2961 28.6384 28.169 28.297 28.1816 27.9464L28.7947 10.933C28.802 10.7302 28.8492 10.5307 28.9336 10.3461C29.018 10.1615 29.1379 9.99531 29.2865 9.85705C29.4352 9.71879 29.6096 9.61115 29.7998 9.5403C29.99 9.46944 30.1923 9.43676 30.3952 9.4441Z" fill="#F7D926"/>
<path d="M30.6829 9.50635L31.3172 9.52915C32.0094 9.55415 32.4857 10.1541 32.4544 11.0264L31.7894 29.509L29.9656 29.4434C31.4414 22.9366 31.6291 16.3671 30.6829 9.50635Z" fill="#E5C217"/>
<path d="M31.2649 9.87769C31.3518 9.88582 31.4363 9.91069 31.5137 9.95094C31.5532 9.97107 31.591 9.99428 31.6267 10.0203L31.6811 10.0595L31.7311 10.104L31.7811 10.1493C31.7966 10.1654 31.8105 10.1828 31.8251 10.1997C31.8554 10.2328 31.8833 10.268 31.9086 10.305L31.9839 10.4168L32.0472 10.5349C32.2093 10.8561 32.2801 11.2099 32.3119 11.5578C32.3235 11.6454 32.3248 11.7323 32.3285 11.8196L32.3326 11.9506C32.3343 11.9947 32.335 12.0378 32.3345 12.0796C32.3353 12.2486 32.3328 12.4175 32.3313 12.5865C32.3297 12.7555 32.3249 12.9243 32.3219 13.0932L32.3069 13.5997C32.283 14.2749 32.2429 14.9495 32.1865 15.6234C32.1279 16.2974 32.0556 16.9708 31.9387 17.6427C31.8703 16.9641 31.8466 16.2873 31.8366 15.6109C31.8283 14.9346 31.8368 14.2588 31.862 13.5836L31.8832 13.0774C31.8923 12.9087 31.8997 12.74 31.9103 12.5713C31.921 12.4027 31.9303 12.234 31.9435 12.0655C31.951 11.9799 31.9511 11.9015 31.9562 11.8189C31.9604 11.7373 31.967 11.6552 31.9635 11.5743C31.9744 11.2512 31.9348 10.9283 31.8461 10.6173L31.8095 10.5027L31.7614 10.3932C31.7453 10.3566 31.7265 10.3213 31.7052 10.2875L31.6752 10.2353L31.6402 10.1864L31.6052 10.137L31.5649 10.092C31.538 10.0616 31.5088 10.0332 31.4776 10.007C31.4148 9.95181 31.3428 9.90803 31.2649 9.87769Z" fill="#E2B700"/>
<path d="M24.4357 10.95H25.8142C26.0093 10.9499 26.2025 10.9884 26.3828 11.063C26.563 11.1377 26.7268 11.2471 26.8648 11.3851C27.0027 11.523 27.1122 11.6868 27.1869 11.8671C27.2615 12.0473 27.3 12.2405 27.3 12.4357V29.3643C27.3 29.7583 27.1434 30.1362 26.8648 30.4148C26.5862 30.6934 26.2083 30.85 25.8143 30.85H24.1857C23.7916 30.85 23.4137 30.6934 23.1351 30.4148C22.8565 30.1362 22.7 29.7583 22.7 29.3643V12.6857C22.7 12.2253 22.8828 11.7838 23.2083 11.4583C23.5338 11.1328 23.9753 10.95 24.4357 10.95Z" fill="#F7D926" stroke="#E5C31A" stroke-width="3.52941" stroke-miterlimit="10"/>
<path d="M25 11H25.8C26.6728 11 27.3 11.5825 27.3 12.4553V30.95H25C26.564 24.3943 26.5027 17.8223 25 11Z" fill="#E5C217"/>
<path d="M25.75 11.3499C25.93 11.3523 26.1063 11.401 26.262 11.4913C26.4222 11.584 26.5637 11.7059 26.6792 11.8507C26.9081 12.1454 27.0365 12.5038 27.1049 12.8601L27.128 12.9947C27.1368 13.0393 27.1431 13.0843 27.1469 13.1297L27.168 13.3997C27.1793 13.5766 27.1807 13.7454 27.1866 13.9187C27.1916 14.0909 27.1931 14.2632 27.1966 14.4354L27.2 14.9521C27.2003 15.641 27.1825 16.3299 27.1466 17.0188C27.1081 17.7078 27.0542 18.3967 26.95 19.0856C26.8458 18.3967 26.7919 17.7078 26.7534 17.0188C26.7168 16.3299 26.699 15.641 26.7001 14.9521L26.7035 14.4354C26.707 14.2632 26.7085 14.0909 26.7135 13.9187L26.7285 13.4044L26.7299 13.1582C26.7308 13.1174 26.7293 13.0766 26.7253 13.036L26.717 12.9142C26.699 12.592 26.6171 12.2766 26.4759 11.9864C26.3989 11.8441 26.2999 11.715 26.1824 11.6038C26.1509 11.578 26.1208 11.5488 26.0871 11.5249C26.0535 11.5001 26.0187 11.4771 25.9828 11.4559C25.9102 11.4104 25.8319 11.3748 25.75 11.3499Z" fill="#E2B700"/>
<path d="M29.282 15.5428L30.047 15.6973C30.2174 15.7317 30.3793 15.7993 30.5235 15.8963C30.6678 15.9933 30.7915 16.1178 30.8876 16.2626C30.9837 16.4074 31.0504 16.5697 31.0838 16.7402C31.1172 16.9108 31.1167 17.0863 31.0823 17.2566L27.6659 34.1681C27.5963 34.5121 27.393 34.8145 27.1006 35.0086C26.8082 35.2028 26.4506 35.2728 26.1065 35.2033L25.1232 35.0046C24.7792 34.9351 24.4769 34.7318 24.2827 34.4393C24.0886 34.1469 24.0186 33.7894 24.0881 33.4453L27.4604 16.7521C27.5416 16.3502 27.7792 15.9969 28.1208 15.7701C28.4625 15.5433 28.8802 15.4615 29.2821 15.5427L29.282 15.5428Z" fill="#F7D926"/>
<path d="M29.5453 15.6471L30.1675 15.7728C30.8463 15.9099 31.2188 16.5795 31.0459 17.435L27.3836 35.5634L25.595 35.202C28.1094 29.0219 29.363 22.5704 29.5453 15.6471Z" fill="#E5C217"/>
<path d="M30.0592 16.1079C30.1437 16.13 30.223 16.1683 30.2928 16.2207C30.3284 16.2469 30.3618 16.276 30.3928 16.3075L30.4401 16.355L30.482 16.407L30.5239 16.4598C30.5366 16.4782 30.5475 16.4976 30.5592 16.5167C30.5836 16.5543 30.6053 16.5936 30.6242 16.6342L30.6803 16.7567L30.7236 16.8836C30.8312 17.2268 30.8436 17.5877 30.8186 17.9359C30.8158 18.0242 30.803 18.1102 30.7924 18.1969L30.7752 18.3269C30.7696 18.3707 30.7633 18.4134 30.7561 18.4545C30.7294 18.6214 30.6994 18.7876 30.6704 18.9541C30.6414 19.1206 30.6092 19.2864 30.5788 19.4525L30.4816 19.95C30.3483 20.6122 30.199 21.2713 30.0337 21.9272C29.8662 22.5826 29.6854 23.2353 29.4607 23.8792C29.5036 23.1986 29.5903 22.5269 29.6907 21.8579C29.7924 21.1892 29.9107 20.5238 30.0454 19.8618L30.1487 19.3657C30.1852 19.2007 30.2199 19.0357 30.2578 18.8707C30.2957 18.7057 30.3328 18.5412 30.3728 18.377C30.3941 18.2938 30.4069 18.2164 30.4254 18.1357C30.4428 18.0557 30.4626 17.9757 30.4724 17.8957C30.5358 17.5786 30.5493 17.2536 30.5124 16.9324L30.4949 16.8133L30.4653 16.6974C30.4554 16.6587 30.4426 16.6208 30.427 16.584L30.4058 16.5276L30.3794 16.4737L30.3526 16.4193L30.3202 16.3683C30.2985 16.3338 30.2744 16.301 30.2479 16.2701C30.195 16.2054 30.1311 16.1505 30.0592 16.1079Z" fill="#E2B700"/>
<path d="M38.8373 20.7908H32.345C32.345 20.7908 31.964 24.6187 26.3637 24.7394C20.7637 24.6187 20.3491 20.7908 20.3491 20.7908H13.8563C13.4798 20.7908 13.1079 20.8738 12.7671 21.0338C12.4263 21.1939 12.125 21.4271 11.8846 21.7169C11.6442 22.0067 11.4706 22.3459 11.3762 22.7104C11.2818 23.0749 11.269 23.4557 11.3385 23.8258L15.0291 43.4622C15.1394 44.0493 15.4514 44.5794 15.9112 44.9607C16.3709 45.3421 16.9495 45.5509 17.5469 45.5509H35.1469C35.7442 45.5509 36.3228 45.3421 36.7825 44.9607C37.2423 44.5794 37.5543 44.0493 37.6647 43.4622L41.355 23.8258C41.4245 23.4558 41.4116 23.075 41.3172 22.7105C41.2229 22.346 41.0493 22.0068 40.8089 21.717C40.5685 21.4272 40.2672 21.194 39.9265 21.0339C39.5857 20.8738 39.2138 20.7908 38.8373 20.7908Z" fill="#E0541E"/>
<path d="M32.3357 20.7908H38.2916C40.2621 20.7908 41.7474 22.6291 41.329 24.6L37.519 43.45C37.359 44.2044 36.33 45.5509 35.5758 45.5509L31.95 45.55C31.95 45.55 42.0129 27.45 32.3357 20.7908Z" fill="#D83D0E"/>
<path d="M34.4877 20.7908H38.931C40.401 20.7908 42 22.2 41.4 24.15L38.05 43.4C37.9305 44.1544 37.4674 45.5509 36.9049 45.5509L34.2 45.55C34.2 45.55 43.25 28.7 34.4877 20.7908Z" fill="#CE2700"/>
<path d="M18.9393 21.7127C18.2659 21.8136 17.591 21.8922 16.9162 21.9722C16.5787 22.0106 16.2411 22.0472 15.9034 22.0822L15.3967 22.1337L15.144 22.1592C15.067 22.1724 14.9898 22.1824 14.9134 22.1957C14.6107 22.2609 14.3261 22.3921 14.08 22.58C13.8365 22.7663 13.6362 23.003 13.4927 23.2739C13.3499 23.5427 13.2684 23.8398 13.254 24.1439C13.2506 24.2193 13.256 24.2951 13.2556 24.3707C13.2613 24.4461 13.2739 24.5211 13.282 24.5963C13.3097 24.7599 13.3417 24.9293 13.3713 25.0955C13.6092 26.4318 13.8292 27.7713 14.0313 29.1139C14.2309 30.457 14.4154 31.8028 14.5504 33.1574C14.2104 31.8393 13.9197 30.5124 13.6442 29.1827C13.3706 27.8527 13.1156 26.5195 12.8792 25.183C12.8503 25.015 12.8202 24.8507 12.7922 24.6796C12.7816 24.5864 12.7672 24.4934 12.7611 24.3996L12.7593 24.2586C12.7574 24.2116 12.7582 24.1646 12.7617 24.1177C12.7849 23.7428 12.8923 23.378 13.0758 23.0502C13.2593 22.7225 13.5142 22.4402 13.8217 22.2244C14.1259 22.0103 14.4752 21.8687 14.8428 21.8107C14.934 21.799 15.0258 21.7916 15.117 21.7832L15.372 21.7735L15.881 21.7561C16.2203 21.7452 16.5598 21.736 16.8995 21.7287C17.5791 21.7167 18.2584 21.7035 18.9393 21.7127Z" fill="#D83D0E"/>
<path d="M12.344 29.1761C15.4403 31.0003 18.5213 31.0003 21.5871 29.1761C24.6861 27.217 27.9214 27.3448 31.2649 29.1311C34.3657 31.1223 37.6852 31.28 40.5999 29.2L39.1499 36.25C36.8314 37.2079 34.0006 37.2105 31.2649 35.815C28.2601 34.4606 25.0999 34.0979 21.6537 35.5631C19.3456 36.8305 16.9244 37.7512 13.6203 35.9666L12.344 29.1761Z" fill="#FFB624"/>
<path d="M12.55 30.25C15.6244 31.4778 18.5059 31.8764 21.55 30.65C24.6271 29.3314 28.1 28.75 31.1 30.65C34.1789 31.99 37.506 31.5765 40.4001 30.1766L39.2501 35.05C36.948 35.6947 33.5501 35.75 31.1 34.2C28.5501 32.45 25.2 32.35 21.5879 34.4595C19.2962 35.3125 16.6308 35.8511 13.35 34.65L12.55 30.25Z" fill="#FFD85C"/>
<path opacity="0.5" d="M25.75 33.65C25.75 33.65 29.45 30.95 32.145 33.7429C33.6993 35.3537 37.2828 35.65 38.3914 34.3C38.3914 34.3 35.2599 37.6286 31.7049 34.8143C28.15 32.0001 25.75 33.6572 25.75 33.6572" fill="white"/>
<path opacity="0.5" d="M28.1218 29.791C28.1218 29.791 24.3425 27.2033 21.7326 30.0757C20.2273 31.7325 16.6542 32.1362 15.5056 30.8201C15.5056 30.8201 18.7356 34.0532 22.2045 31.1335C25.6734 28.2137 28.122 29.7981 28.122 29.7981" fill="white"/>
</svg>
