<svg width="50" height="50" viewBox="0 0 50 50" fill="none" xmlns="http://www.w3.org/2000/svg">
<g clip-path="url(#clip0_208_3079)">
<path fill-rule="evenodd" clip-rule="evenodd" d="M42.6377 23.9387C47.5057 25.0718 49.9406 26.4646 49.9406 28.1146C49.9406 29.7199 47.5057 31.1126 42.6377 32.2929C37.7977 33.426 31.9569 33.9902 25.1117 33.9902C18.2311 33.9902 12.3662 33.426 7.53544 32.2929C2.69541 31.1575 0.275391 29.7671 0.275391 28.1146C0.275391 26.4646 2.69541 25.0718 7.53544 23.9387C12.4034 22.7584 18.2665 22.1682 25.1117 22.1682C31.9569 22.1682 37.7977 22.7584 42.6377 23.9387Z" fill="url(#paint0_linear_208_3079)"/>
<path fill-rule="evenodd" clip-rule="evenodd" d="M49.9981 27.6166H48.8858C48.8858 26.2993 46.5755 25.1639 41.9624 24.2149C37.3475 23.2754 31.7522 22.8033 25.1693 22.8033C18.5863 22.8033 12.9836 23.2754 8.37054 24.2149C3.72024 25.1639 1.39509 26.2993 1.39509 27.6166H0C0.334821 26.1058 2.92039 24.8051 7.76042 23.7263C12.593 22.638 18.3389 22.0951 25.0019 22.0951C31.6592 22.0951 37.4275 22.638 42.3028 23.7263C47.0982 24.8051 49.6633 26.1058 49.9981 27.6166Z" fill="#B6E0F2"/>
<path fill-rule="evenodd" clip-rule="evenodd" d="M29.6316 16.4319C30.7868 18.599 30.4892 20.6551 28.7369 22.5932C27.699 23.7735 26.5569 24.2881 25.3366 24.1512C24.254 24.0119 23.4188 23.4217 22.8236 22.3807C22.2637 21.3373 22.0814 20.2042 22.2637 18.9767C22.4516 17.7043 23.0115 16.7081 23.9415 16.007C25.1264 15.058 26.2444 14.6331 27.2842 14.7252C28.2942 14.8739 29.0718 15.4357 29.6316 16.4319Z" fill="url(#paint1_radial_208_3079)"/>
<path fill-rule="evenodd" clip-rule="evenodd" d="M35.3796 14.1633C35.9376 15.1501 36.1627 16.2194 36.0473 17.3549C35.9022 18.488 35.4149 19.5031 34.5946 20.3977C33.5548 21.578 32.422 22.095 31.1943 21.9557C30.0373 21.807 29.1872 21.2003 28.6292 20.1121C28.0321 19.0238 27.8293 17.8719 28.0116 16.6443C28.1995 15.3625 28.7594 14.3474 29.682 13.592C30.8743 12.6525 31.9923 12.2559 33.0321 12.3928C34.0421 12.5321 34.8197 13.1223 35.3796 14.1633Z" fill="url(#paint2_radial_208_3079)"/>
<path fill-rule="evenodd" clip-rule="evenodd" d="M30.3572 14.1633C31.5496 13.4527 31.8249 13.8045 31.1943 15.2232C30.5619 16.7364 29.9871 17.4186 29.4644 17.2817C29.0217 17.1424 28.9268 16.6632 29.1872 15.8606C29.4495 15.0131 29.8346 14.4489 30.3572 14.1633Z" fill="#AD5D80"/>
<mask id="mask0_208_3079" style="mask-type:luminance" maskUnits="userSpaceOnUse" x="33" y="14" width="3" height="8">
<mask id="mask1_208_3079" style="mask-type:luminance" maskUnits="userSpaceOnUse" x="33" y="14" width="3" height="8">
<path d="M33.4822 21.2452H35.3423V14.1634H33.4822V21.2452Z" fill="white"/>
</mask>
<g mask="url(#mask1_208_3079)">
<path d="M33.4822 21.2452H35.3423V14.1634H33.4822V21.2452Z" fill="black" fill-opacity="0.3281"/>
</g>
</mask>
<g mask="url(#mask0_208_3079)">
<mask id="mask2_208_3079" style="mask-type:luminance" maskUnits="userSpaceOnUse" x="33" y="14" width="3" height="8">
<path d="M33.4822 21.2452H35.3423V14.1634H33.4822V21.2452Z" fill="white"/>
</mask>
<g mask="url(#mask2_208_3079)">
<mask id="mask3_208_3079" style="mask-type:luminance" maskUnits="userSpaceOnUse" x="33" y="14" width="3" height="8">
<path d="M33.4822 21.2456H35.3423V14.1637H33.4822V21.2456Z" fill="white"/>
</mask>
<g mask="url(#mask3_208_3079)">
<path fill-rule="evenodd" clip-rule="evenodd" d="M35.305 17.4474C35.2325 18.5805 34.8046 19.428 34.0197 19.9922C33.6849 20.2306 33.6272 20.1574 33.8523 19.7797C34.3024 18.9323 34.6149 18.1745 34.8046 17.5112C35.212 15.8611 35.3794 15.8422 35.305 17.4474Z" fill="white"/>
</g>
</g>
</g>
<path fill-rule="evenodd" clip-rule="evenodd" d="M9.70807 17.7775C10.3758 18.6273 10.733 19.6141 10.7683 20.7472C10.8055 21.8826 10.493 22.9968 9.81595 24.0756C8.96588 25.4967 7.92793 26.2521 6.69281 26.3442C5.54326 26.4835 4.59274 26.0869 3.85055 25.1474C3.14557 24.2432 2.79028 23.1833 2.79028 21.9558C2.79028 20.6268 3.19765 19.4937 4.01796 18.5541C5.02057 17.3266 6.06037 16.6633 7.14296 16.5712C8.14557 16.4791 9.00308 16.8757 9.70807 17.7775Z" fill="url(#paint3_radial_208_3079)"/>
<path fill-rule="evenodd" clip-rule="evenodd" d="M4.74523 18.9034C5.82038 17.9167 6.1552 18.2212 5.74783 19.8264C5.30512 21.4765 4.81777 22.2602 4.29508 22.1682C3.85051 22.1209 3.6831 21.6701 3.79285 20.8226C3.94538 19.9728 4.25788 19.3378 4.74523 18.9034Z" fill="#AD5D80"/>
<mask id="mask4_208_3079" style="mask-type:luminance" maskUnits="userSpaceOnUse" x="7" y="18" width="5" height="8">
<mask id="mask5_208_3079" style="mask-type:luminance" maskUnits="userSpaceOnUse" x="7" y="18" width="5" height="8">
<path d="M7.44043 25.9664H11.1607V18.8845H7.44043V25.9664Z" fill="white"/>
</mask>
<g mask="url(#mask5_208_3079)">
<path d="M7.44043 25.9664H11.1607V18.8845H7.44043V25.9664Z" fill="black" fill-opacity="0.3281"/>
</g>
</mask>
<g mask="url(#mask4_208_3079)">
<mask id="mask6_208_3079" style="mask-type:luminance" maskUnits="userSpaceOnUse" x="7" y="18" width="5" height="8">
<path d="M7.44043 25.9664H11.1607V18.8845H7.44043V25.9664Z" fill="white"/>
</mask>
<g mask="url(#mask6_208_3079)">
<mask id="mask7_208_3079" style="mask-type:luminance" maskUnits="userSpaceOnUse" x="7" y="18" width="5" height="8">
<path d="M7.44043 25.9668H11.1607V18.8849H7.44043V25.9668Z" fill="white"/>
</mask>
<g mask="url(#mask7_208_3079)">
<path fill-rule="evenodd" clip-rule="evenodd" d="M10.0855 20.96C10.1934 22.0931 9.89577 23.0444 9.19079 23.7998C8.89317 24.1232 8.81319 24.076 8.96572 23.6535C9.30054 22.7116 9.50329 21.883 9.57583 21.1725C9.76557 19.5224 9.93298 19.4468 10.0855 20.96Z" fill="white"/>
</g>
</g>
</g>
<path fill-rule="evenodd" clip-rule="evenodd" d="M20.0335 30.8718C20.7441 31.7759 21.0938 32.7627 21.0938 33.8509C21.1291 35.0313 20.7962 36.1667 20.0912 37.2526C19.2337 38.6194 18.1938 39.3465 16.9662 39.448C15.8482 39.5873 14.9182 39.1907 14.176 38.2393C13.4636 37.347 13.1157 36.2847 13.1157 35.0501C13.1157 33.7305 13.5231 32.5974 14.3434 31.6556C15.3832 30.4752 16.4212 29.8119 17.4684 29.675C18.471 29.5806 19.3285 29.9771 20.0335 30.8718Z" fill="url(#paint4_radial_208_3079)"/>
<path fill-rule="evenodd" clip-rule="evenodd" d="M15.0707 32.0073C16.1086 31.0206 16.4434 31.3251 16.0733 32.928C15.6659 34.5898 15.1786 35.3901 14.6187 35.3358C14.176 35.2886 14.0086 34.8188 14.1183 33.9241C14.2634 33.0672 14.5833 32.4299 15.0707 32.0073Z" fill="#F797B1"/>
<mask id="mask8_208_3079" style="mask-type:luminance" maskUnits="userSpaceOnUse" x="18" y="30" width="3" height="8">
<mask id="mask9_208_3079" style="mask-type:luminance" maskUnits="userSpaceOnUse" x="18" y="30" width="3" height="8">
<path d="M18.6011 37.77H20.4612V30.6881H18.6011V37.77Z" fill="white"/>
</mask>
<g mask="url(#mask9_208_3079)">
<path d="M18.6011 37.77H20.4612V30.6881H18.6011V37.77Z" fill="black" fill-opacity="0.3281"/>
</g>
</mask>
<g mask="url(#mask8_208_3079)">
<mask id="mask10_208_3079" style="mask-type:luminance" maskUnits="userSpaceOnUse" x="18" y="30" width="3" height="8">
<path d="M18.6011 37.77H20.4612V30.6881H18.6011V37.77Z" fill="white"/>
</mask>
<g mask="url(#mask10_208_3079)">
<mask id="mask11_208_3079" style="mask-type:luminance" maskUnits="userSpaceOnUse" x="18" y="30" width="3" height="8">
<path d="M18.6011 37.77H20.4612V30.6881H18.6011V37.77Z" fill="white"/>
</mask>
<g mask="url(#mask11_208_3079)">
<path fill-rule="evenodd" clip-rule="evenodd" d="M20.3513 34.0898C20.4611 35.2252 20.1635 36.1648 19.4585 36.9225C19.1609 37.2082 19.0883 37.161 19.2334 36.7833C19.5682 35.8791 19.771 35.06 19.851 34.3022C20.0333 32.6522 20.1988 32.579 20.3513 34.0898Z" fill="white"/>
</g>
</g>
</g>
<path fill-rule="evenodd" clip-rule="evenodd" d="M33.6496 36.8938L32.1448 37.0425L32.4219 32.791L33.9324 34.1365C34.4922 34.4694 34.987 34.6984 35.4372 34.8471L33.6496 36.8938Z" fill="url(#paint5_linear_208_3079)"/>
<path fill-rule="evenodd" clip-rule="evenodd" d="M27.0667 46.3174C25.467 47.1673 23.6069 47.231 21.4863 46.5299C21.8565 45.3968 22.2639 44.4289 22.714 43.6263L25.002 39.0892L26.5645 41.929C27.0871 42.7317 27.9391 43.5791 29.1296 44.4738L27.0667 46.3174Z" fill="url(#paint6_linear_208_3079)"/>
<path fill-rule="evenodd" clip-rule="evenodd" d="M34.7098 27.3308L38.1175 17.9167L40.85 19.7603L41.4601 22.1681C41.7224 24.3352 41.4025 26.6958 40.5077 29.25C39.8028 31.4714 39.0773 32.9279 38.3351 33.6384L37.4999 34.0634L33.8169 33.0034L34.7098 27.3308Z" fill="#F5ECA2"/>
<path fill-rule="evenodd" clip-rule="evenodd" d="M36.7225 17.8436C37.8702 17.4753 38.6124 18.0088 38.9528 19.4748C39.2876 20.7944 39.2522 22.546 38.8374 24.713C37.8348 30.1897 36.1775 32.9115 33.8746 32.8643C32.1596 32.8643 31.7169 30.5508 32.5372 25.9217C33.3147 21.2453 34.7098 18.5541 36.7225 17.8436Z" fill="#FFFAC4"/>
<path fill-rule="evenodd" clip-rule="evenodd" d="M28.7946 43.6901L30.0241 46.1711C29.5721 46.4567 28.8169 46.7896 27.7343 47.1673C27.0665 47.3514 25.969 47.4978 24.4437 47.5898H22.3213L21.5364 46.105L23.7741 45.8949C25.2566 45.7934 26.9344 45.064 28.7946 43.6901Z" fill="url(#paint7_linear_208_3079)"/>
<path fill-rule="evenodd" clip-rule="evenodd" d="M8.65322 22.8787L9.65582 31.4454L7.03305 30.5224C6.54756 30.3832 5.86304 30.3572 4.97018 30.4587L3.79272 30.6688L4.46051 27.4796C4.94786 26.2993 5.78305 25.1827 6.97539 24.1511C7.60783 23.5869 8.16772 23.1549 8.65322 22.8787Z" fill="url(#paint8_linear_208_3079)"/>
<path fill-rule="evenodd" clip-rule="evenodd" d="M4.46051 30.9474L2.23022 30.0976C2.4553 29.4885 2.88499 28.6127 3.51743 27.4796C3.92293 26.7691 4.7079 25.7823 5.8556 24.5005L7.47762 22.73L8.81319 23.2281L7.20046 25.2111C6.11787 26.4834 5.21014 28.4003 4.46051 30.9474Z" fill="url(#paint9_linear_208_3079)"/>
<path fill-rule="evenodd" clip-rule="evenodd" d="M33.8169 38.0293C33.257 37.7507 32.7417 37.4391 32.2544 37.1063C31.2518 36.4972 30.9542 36.1195 31.3597 35.9708C32.0293 35.7418 33.3872 35.3641 35.4371 34.8377C34.9144 36.1195 34.3749 37.1795 33.8169 38.0293Z" fill="url(#paint10_linear_208_3079)"/>
<path fill-rule="evenodd" clip-rule="evenodd" d="M13.7835 19.614L6.64062 15.7969C7.12798 15.1312 7.84784 14.4678 8.81324 13.8139C10.7533 12.44 12.9632 11.6823 15.4557 11.5454C17.6563 11.3966 19.8661 12.466 22.0964 14.7251C24.6243 17.2345 25.7794 20.2041 25.5543 23.653C25.4464 26.1057 25.0391 28.4663 24.3266 30.7349C23.9565 31.868 23.6068 32.7627 23.2738 33.426L13.7835 19.614Z" fill="url(#paint11_linear_208_3079)"/>
<path fill-rule="evenodd" clip-rule="evenodd" d="M6.64062 15.7969C7.45536 15.5561 8.44308 15.3908 9.59821 15.2988C11.901 15.058 13.9137 15.2067 15.6213 15.7213C17.7083 16.3398 19.4941 17.5201 20.984 19.2623C22.4368 20.9595 23.3612 22.8787 23.7742 24.9986C24.2969 27.7841 24.1239 30.5956 23.2738 33.426C19.5889 29.1297 16.8508 26.0396 15.0707 24.1511C13.1306 22.121 10.3255 19.3378 6.64062 15.7969Z" fill="url(#paint12_linear_208_3079)"/>
<path fill-rule="evenodd" clip-rule="evenodd" d="M16.0732 23.5138C16.2183 23.2754 16.3857 23.0629 16.5736 22.8788C16.981 22.4987 17.3511 22.4067 17.6934 22.5932C18.0264 22.8316 18.1361 23.0629 18.0264 23.3013C17.9538 23.4949 17.7808 23.6059 17.526 23.6531L16.0732 23.5138Z" fill="#733913"/>
<path fill-rule="evenodd" clip-rule="evenodd" d="M17.9688 25.9215L18.7463 25.7091C19.3062 25.6619 19.6038 25.8012 19.641 26.134C19.721 26.6486 19.1611 26.5849 17.9688 25.9215Z" fill="#733913"/>
<path fill-rule="evenodd" clip-rule="evenodd" d="M14.0606 21.8826C13.9881 21.5497 13.9286 21.2003 13.8932 20.8226C13.856 20.1121 13.9732 19.7509 14.2336 19.7509C15.1209 19.8524 15.0707 20.563 14.0606 21.8826Z" fill="#733913"/>
<path fill-rule="evenodd" clip-rule="evenodd" d="M14.3937 20.046C14.1407 20.7943 14.0235 20.9879 14.0607 20.6102C14.0607 20.3694 14.1184 20.2042 14.2263 20.1121L14.3937 20.046Z" fill="white"/>
<path fill-rule="evenodd" clip-rule="evenodd" d="M16.5161 23.1549C16.5961 23.0628 16.6835 22.9708 16.7989 22.8787C16.9811 22.73 17.1337 22.6851 17.2434 22.73C17.4313 22.8787 17.1839 23.0156 16.5161 23.1549Z" fill="white"/>
<path fill-rule="evenodd" clip-rule="evenodd" d="M18.6384 25.9216L19.0291 25.8461C19.2913 25.8461 19.4215 25.9216 19.4215 26.0586C19.4215 26.2521 19.1611 26.2073 18.6384 25.9216Z" fill="white"/>
<path fill-rule="evenodd" clip-rule="evenodd" d="M29.8568 8.21688L30.2493 -0.000459671L31.9197 1.69683C33.1473 3.30206 34.1146 5.33928 34.827 7.79198C35.4576 9.95903 35.4148 12.4849 34.7098 15.3625C33.9323 18.58 32.5372 20.5181 30.5246 21.172C29.1146 21.6984 27.6767 21.8826 26.2314 21.7433L24.4438 21.3845L29.8568 8.21688Z" fill="url(#paint13_linear_208_3079)"/>
<path fill-rule="evenodd" clip-rule="evenodd" d="M30.2418 -0.000476837C31.5495 3.02349 32.3122 6.04037 32.5372 9.06434C32.6823 11.3329 32.4572 13.4362 31.862 15.3625C31.3021 17.2982 30.4669 18.7476 29.3471 19.6872C27.8646 20.9595 26.224 21.5308 24.4438 21.3845C25.9691 16.5239 27.022 12.9547 27.6191 10.6955C28.2943 8.18854 29.1667 4.62872 30.2418 -0.000476837Z" fill="url(#paint14_linear_208_3079)"/>
<path fill-rule="evenodd" clip-rule="evenodd" d="M29.9071 8.77871C30.467 10.1526 30.5823 11.517 30.2494 12.8909C29.9517 14.2554 29.2021 15.4357 28.0172 16.4319C26.5291 17.6594 25.0392 18.0371 23.5492 17.5673C22.1392 17.1424 21.1515 16.1746 20.5916 14.6614C19.9964 13.2427 19.9015 11.7838 20.3163 10.273C20.7237 8.66775 21.5589 7.50633 22.8238 6.79578C24.4644 5.85625 25.932 5.59658 27.2341 6.02149C28.4246 6.44641 29.3193 7.36705 29.9071 8.77871Z" fill="url(#paint15_radial_208_3079)"/>
<path fill-rule="evenodd" clip-rule="evenodd" d="M23.5492 7.57951C25.1489 6.96103 25.467 7.48745 24.5016 9.13753C23.4916 10.9269 22.6768 11.6658 22.0462 11.3329C21.5217 11.0473 21.464 10.4382 21.8788 9.48926C22.2843 8.50252 22.8442 7.86515 23.5492 7.57951Z" fill="#945772"/>
<mask id="mask12_208_3079" style="mask-type:luminance" maskUnits="userSpaceOnUse" x="26" y="9" width="4" height="8">
<mask id="mask13_208_3079" style="mask-type:luminance" maskUnits="userSpaceOnUse" x="26" y="9" width="4" height="8">
<path d="M26.0417 16.5239H29.762V9.44204H26.0417V16.5239Z" fill="white"/>
</mask>
<g mask="url(#mask13_208_3079)">
<path d="M26.0417 16.5239H29.762V9.44204H26.0417V16.5239Z" fill="black" fill-opacity="0.3281"/>
</g>
</mask>
<g mask="url(#mask12_208_3079)">
<mask id="mask14_208_3079" style="mask-type:luminance" maskUnits="userSpaceOnUse" x="26" y="9" width="4" height="8">
<path d="M26.0417 16.5239H29.762V9.44204H26.0417V16.5239Z" fill="white"/>
</mask>
<g mask="url(#mask14_208_3079)">
<mask id="mask15_208_3079" style="mask-type:luminance" maskUnits="userSpaceOnUse" x="26" y="9" width="4" height="8">
<path d="M26.0417 16.5243H29.762V9.44241H26.0417V16.5243Z" fill="white"/>
</mask>
<g mask="url(#mask15_208_3079)">
<path fill-rule="evenodd" clip-rule="evenodd" d="M29.3193 12.8442C29.057 14.2558 28.4041 15.2237 27.3643 15.7407C26.9141 15.9815 26.8416 15.887 27.1392 15.4645C27.8442 14.4683 28.3669 13.5736 28.7017 12.771C29.4495 10.7881 29.6522 10.807 29.3193 12.8442Z" fill="white"/>
</g>
</g>
</g>
<path fill-rule="evenodd" clip-rule="evenodd" d="M15.2882 9.62613L20.3664 1.48432L22.6562 4.10226C22.8366 4.72074 22.8961 5.57057 22.8236 6.65882C22.6338 8.82352 21.8712 11.0189 20.5338 13.2426C19.4158 15.1311 18.4486 16.3303 17.6338 16.8567L16.6833 16.9937L13.3333 14.8006L15.2882 9.62613Z" fill="#F5ECA2"/>
<path fill-rule="evenodd" clip-rule="evenodd" d="M19.0291 0.995709C20.2214 0.941415 20.8539 1.69682 20.9264 3.25483C20.9636 4.67593 20.5916 6.37086 19.8066 8.35379C17.8014 13.3158 15.6586 15.4357 13.3911 14.7251C11.756 14.1633 11.756 11.7578 13.3911 7.50633C15.0708 3.20998 16.9439 1.04292 19.0291 0.995709Z" fill="#FFFAC4"/>
<path fill-rule="evenodd" clip-rule="evenodd" d="M24.9441 39.5118C25.504 40.9329 25.6342 42.3068 25.3366 43.6263C25.039 45.0356 24.2968 46.2443 23.1063 47.231C21.6164 48.4656 20.1264 48.8174 18.6383 48.3004C17.2284 47.8755 16.2388 46.9265 15.6807 45.47C15.0836 44.0489 14.9962 42.5829 15.4036 41.0816C15.811 39.4669 16.6461 38.3149 17.911 37.6044C19.5163 36.6625 20.9635 36.4052 22.2711 36.8301C23.4914 37.2078 24.3842 38.1025 24.9441 39.5118Z" fill="url(#paint16_radial_208_3079)"/>
<path fill-rule="evenodd" clip-rule="evenodd" d="M18.6385 38.388C20.2363 37.7696 20.5563 38.2865 19.589 39.9461C18.5436 41.7354 17.7084 42.4719 17.076 42.1414C16.5514 41.8558 16.5161 41.2373 16.9662 40.2978C17.3736 39.311 17.9335 38.6642 18.6385 38.388Z" fill="#F797B1"/>
<mask id="mask16_208_3079" style="mask-type:luminance" maskUnits="userSpaceOnUse" x="20" y="40" width="7" height="8">
<mask id="mask17_208_3079" style="mask-type:luminance" maskUnits="userSpaceOnUse" x="20" y="40" width="7" height="8">
<path d="M20.4614 47.2125H26.0418V40.1306H20.4614V47.2125Z" fill="white"/>
</mask>
<g mask="url(#mask17_208_3079)">
<path d="M20.4614 47.2125H26.0418V40.1306H20.4614V47.2125Z" fill="black" fill-opacity="0.3281"/>
</g>
</mask>
<g mask="url(#mask16_208_3079)">
<mask id="mask18_208_3079" style="mask-type:luminance" maskUnits="userSpaceOnUse" x="20" y="40" width="7" height="8">
<path d="M20.4614 47.2125H26.0418V40.1306H20.4614V47.2125Z" fill="white"/>
</mask>
<g mask="url(#mask18_208_3079)">
<mask id="mask19_208_3079" style="mask-type:luminance" maskUnits="userSpaceOnUse" x="20" y="40" width="7" height="8">
<path d="M20.4614 47.2125H26.0418V40.1306H20.4614V47.2125Z" fill="white"/>
</mask>
<g mask="url(#mask19_208_3079)">
<path fill-rule="evenodd" clip-rule="evenodd" d="M24.4068 43.5984C24.1445 45.0171 23.4767 45.959 22.3941 46.4288C21.9867 46.6696 21.9291 46.5751 22.2267 46.1526C22.8963 45.2485 23.3967 44.3821 23.739 43.5323C24.5165 41.5966 24.7416 41.6155 24.4068 43.5984Z" fill="white"/>
</g>
</g>
</g>
<path fill-rule="evenodd" clip-rule="evenodd" d="M34.4847 36.4051L27.6767 45.5337L25.504 43.9119C25.3515 43.4776 25.3143 42.8874 25.3943 42.132C25.504 40.6755 26.0416 39.1624 27.0089 37.6043C28.0468 35.907 29.2243 34.866 30.5245 34.4883C31.1569 34.3018 31.6945 34.2759 32.1447 34.4128L34.4847 36.4051Z" fill="#FFFAC4"/>
<path fill-rule="evenodd" clip-rule="evenodd" d="M34.8773 37.4651C34.8773 37.9821 34.6522 38.8768 34.2095 40.1492C33.6849 41.5703 33.112 42.7034 32.4796 43.5508C31.2872 45.1561 30.1544 46.0318 29.0718 46.1711C28.0692 46.216 27.4219 45.7273 27.1168 44.6863C26.862 43.9309 26.9346 43.0362 27.3419 41.9928C27.7567 41.0533 28.5566 39.7337 29.7471 38.0293C30.6343 36.8018 31.7169 36.1196 32.9799 35.9708C34.2448 35.8788 34.8773 36.3769 34.8773 37.4651Z" fill="#F5ECA2"/>
<path fill-rule="evenodd" clip-rule="evenodd" d="M42.3029 10.1998C43.2701 11.1842 43.8226 12.3645 43.9751 13.7407C44.1556 15.1595 43.8803 16.616 43.1381 18.1291C42.208 20.02 40.9803 21.172 39.4476 21.6063C38.0748 21.9274 36.8676 21.578 35.8222 20.5346C34.8196 19.5479 34.2448 18.266 34.0923 16.708C33.91 15.0131 34.282 13.5283 35.2121 12.2559C36.3672 10.5019 37.6098 9.4609 38.9528 9.13749C40.1823 8.85186 41.2928 9.20359 42.3029 10.1998Z" fill="url(#paint17_radial_208_3079)"/>
<path fill-rule="evenodd" clip-rule="evenodd" d="M36.1626 12.5321C37.3921 11.1204 37.8348 11.4249 37.5 13.4527C37.1652 15.6292 36.6574 16.708 35.9896 16.708C35.4371 16.7647 35.1972 16.2194 35.2697 15.0863C35.3051 13.998 35.6045 13.1506 36.1626 12.5321Z" fill="#AD5D80"/>
<mask id="mask20_208_3079" style="mask-type:luminance" maskUnits="userSpaceOnUse" x="40" y="11" width="5" height="8">
<mask id="mask21_208_3079" style="mask-type:luminance" maskUnits="userSpaceOnUse" x="40" y="11" width="5" height="8">
<path d="M40.9226 18.8845H44.6428V11.8026H40.9226V18.8845Z" fill="white"/>
</mask>
<g mask="url(#mask21_208_3079)">
<path d="M40.9226 18.8845H44.6428V11.8026H40.9226V18.8845Z" fill="black" fill-opacity="0.3281"/>
</g>
</mask>
<g mask="url(#mask20_208_3079)">
<mask id="mask22_208_3079" style="mask-type:luminance" maskUnits="userSpaceOnUse" x="40" y="11" width="5" height="8">
<path d="M40.9226 18.8845H44.6428V11.8026H40.9226V18.8845Z" fill="white"/>
</mask>
<g mask="url(#mask22_208_3079)">
<mask id="mask23_208_3079" style="mask-type:luminance" maskUnits="userSpaceOnUse" x="40" y="11" width="5" height="8">
<path d="M40.9226 18.8849H44.6428V11.803H40.9226V18.8849Z" fill="white"/>
</mask>
<g mask="url(#mask23_208_3079)">
<path fill-rule="evenodd" clip-rule="evenodd" d="M43.1176 14.1165C43.378 15.5281 43.0952 16.7651 42.2805 17.7967C41.9829 18.2216 41.9103 18.1744 42.0554 17.6574C42.3549 16.4771 42.5074 15.4172 42.5074 14.4682C42.5428 12.3012 42.7455 12.1808 43.1176 14.1165Z" fill="white"/>
</g>
</g>
</g>
<path fill-rule="evenodd" clip-rule="evenodd" d="M24.2188 23.79C24.9963 24.9703 25.3739 26.271 25.3367 27.6921C25.3014 29.158 24.7917 30.5225 23.8263 31.7949C22.634 33.4544 21.2612 34.2759 19.6987 34.2759C18.2813 34.2759 17.1485 33.6385 16.2984 32.3661C15.4762 31.1858 15.121 29.8119 15.2363 28.2539C15.3088 26.5566 15.8836 25.1639 16.9662 24.0756C18.3762 22.6663 19.7564 21.9746 21.0938 22.0289C22.3587 22.0289 23.3966 22.6097 24.2188 23.79Z" fill="url(#paint18_radial_208_3079)"/>
<path fill-rule="evenodd" clip-rule="evenodd" d="M17.8608 24.6492C19.2689 23.5137 19.6763 23.9103 19.0885 25.846C18.4114 27.9304 17.7436 28.8889 17.0758 28.7519C16.5159 28.6127 16.3485 27.9965 16.5736 26.9083C16.7987 25.8743 17.2284 25.1189 17.8608 24.6492Z" fill="#AD5D80"/>
<mask id="mask24_208_3079" style="mask-type:luminance" maskUnits="userSpaceOnUse" x="22" y="25" width="5" height="9">
<mask id="mask25_208_3079" style="mask-type:luminance" maskUnits="userSpaceOnUse" x="22" y="25" width="5" height="9">
<path d="M22.3215 33.0488H26.0418V25.9669H22.3215V33.0488Z" fill="white"/>
</mask>
<g mask="url(#mask25_208_3079)">
<path d="M22.3215 33.0488H26.0418V25.9669H22.3215V33.0488Z" fill="black" fill-opacity="0.3281"/>
</g>
</mask>
<g mask="url(#mask24_208_3079)">
<mask id="mask26_208_3079" style="mask-type:luminance" maskUnits="userSpaceOnUse" x="22" y="25" width="5" height="9">
<path d="M22.3215 33.0488H26.0418V25.9669H22.3215V33.0488Z" fill="white"/>
</mask>
<g mask="url(#mask26_208_3079)">
<mask id="mask27_208_3079" style="mask-type:luminance" maskUnits="userSpaceOnUse" x="22" y="25" width="5" height="9">
<path d="M22.3215 33.0488H26.0418V25.9669H22.3215V33.0488Z" fill="white"/>
</mask>
<g mask="url(#mask27_208_3079)">
<path fill-rule="evenodd" clip-rule="evenodd" d="M24.4067 27.9498C24.4439 29.3686 23.9919 30.4946 23.0618 31.3515C22.6917 31.6749 22.6191 31.6112 22.8442 31.1391C23.3241 30.006 23.6441 28.9909 23.7892 28.0868C24.1593 25.9669 24.3714 25.9197 24.4067 27.9498Z" fill="white"/>
</g>
</g>
</g>
<path fill-rule="evenodd" clip-rule="evenodd" d="M11.4955 30.7349L14.0606 22.9424L16.4062 24.3635L17.0163 26.2709C17.2786 27.9777 17.0758 29.8851 16.4062 32.0073C15.8482 33.8061 15.2883 35.0123 14.7358 35.6214C14.4308 35.9542 14.1908 36.0911 14.0085 36.0463L10.8779 35.272L11.4955 30.7349Z" fill="#F5ECA2"/>
<path fill-rule="evenodd" clip-rule="evenodd" d="M12.8907 22.9425C14.9034 22.1399 15.5712 23.9576 14.9034 28.4003C14.191 32.8359 12.8759 35.1045 10.9358 35.1965C9.52579 35.298 9.07564 33.4261 9.59833 29.5995C10.121 25.8295 11.2185 23.6058 12.8907 22.9425Z" fill="#FFFAC4"/>
<path fill-rule="evenodd" clip-rule="evenodd" d="M17.4684 37.9537L16.1812 42.6301C15.666 42.8685 14.9387 42.852 14.0086 42.564C13.4134 42.3704 12.8182 41.7354 12.2211 40.6472L11.4956 39.0891L12.1634 35.5482L15.1786 35.8338C15.9208 35.7418 16.4789 35.7701 16.8509 35.907L17.3513 37.3918L17.4684 37.9537Z" fill="url(#paint19_linear_208_3079)"/>
<path fill-rule="evenodd" clip-rule="evenodd" d="M12.1634 35.5482L12.5559 37.1794C12.8907 38.4518 13.3037 39.5873 13.7836 40.5834C14.4532 41.9479 15.2512 42.6301 16.1813 42.6301L13.1158 44.1244C12.3662 43.598 11.663 42.7954 10.9934 41.7165C10.3982 40.8124 10.0782 39.6793 10.041 38.3149L10.1005 36.6176L12.1634 35.5482Z" fill="url(#paint20_linear_208_3079)"/>
<path fill-rule="evenodd" clip-rule="evenodd" d="M10.7681 29.4626L11.4954 22.095L8.53784 22.5931C8.72571 22.2131 8.98055 21.8354 9.31537 21.4577C10.0278 20.7023 10.8258 20.3246 11.7205 20.3246C12.831 20.3246 13.7834 20.7471 14.5609 21.6064C15.3459 22.4987 15.716 23.6531 15.6807 25.0718C15.6435 27.0099 15.3459 28.6883 14.786 30.0976C14.4884 30.8081 14.1907 31.3251 13.8931 31.6556C12.1055 32.6423 11.1029 33.0484 10.8779 32.8642C10.7328 32.7627 10.6733 32.1726 10.7105 31.0843L10.7681 29.4626Z" fill="#F5ECA2"/>
<path fill-rule="evenodd" clip-rule="evenodd" d="M10.2678 20.8226C12.4255 20.3056 13.7834 21.1248 14.3433 23.3013C14.8232 25.1473 14.6911 27.2671 13.9508 29.675C13.3556 31.6107 12.366 32.6989 10.9932 32.9374C9.72833 33.1687 8.57319 32.6517 7.53525 31.3793C6.56799 30.2368 6.41546 28.2822 7.0851 25.4967C7.79566 22.7111 8.85779 21.1531 10.2678 20.8226Z" fill="#FFFAC4"/>
<path fill-rule="evenodd" clip-rule="evenodd" d="M35.2121 22.2414C36.2947 23.6059 36.8471 25.1639 36.8825 26.9178C36.9197 28.66 36.4026 30.4021 35.3274 32.1537C33.9844 34.3208 32.3494 35.4822 30.4092 35.6215C28.6645 35.7702 27.2117 35.1234 26.0566 33.7117C24.9814 32.293 24.4438 30.6146 24.4438 28.6883C24.4438 26.6039 25.0744 24.8334 26.3393 23.3674C27.9744 21.4766 29.6317 20.4615 31.3021 20.3246C32.8348 20.1853 34.1369 20.8227 35.2121 22.2414Z" fill="url(#paint21_radial_208_3079)"/>
<path fill-rule="evenodd" clip-rule="evenodd" d="M27.459 23.9387C29.1294 22.4255 29.6521 22.8953 29.0215 25.348C28.3444 27.9494 27.6041 29.2029 26.7819 29.1014C26.0788 29.0093 25.8388 28.2822 26.0639 26.9083C26.2443 25.5887 26.7094 24.602 27.459 23.9387Z" fill="#AD5D80"/>
<mask id="mask28_208_3079" style="mask-type:luminance" maskUnits="userSpaceOnUse" x="33" y="25" width="5" height="9">
<mask id="mask29_208_3079" style="mask-type:luminance" maskUnits="userSpaceOnUse" x="33" y="25" width="5" height="9">
<path d="M33.4822 33.0488H37.2024V25.9669H33.4822V33.0488Z" fill="white"/>
</mask>
<g mask="url(#mask29_208_3079)">
<path d="M33.4822 33.0488H37.2024V25.9669H33.4822V33.0488Z" fill="black" fill-opacity="0.3281"/>
</g>
</mask>
<g mask="url(#mask28_208_3079)">
<mask id="mask30_208_3079" style="mask-type:luminance" maskUnits="userSpaceOnUse" x="33" y="25" width="5" height="9">
<path d="M33.4822 33.0488H37.2024V25.9669H33.4822V33.0488Z" fill="white"/>
</mask>
<g mask="url(#mask30_208_3079)">
<mask id="mask31_208_3079" style="mask-type:luminance" maskUnits="userSpaceOnUse" x="33" y="25" width="5" height="9">
<path d="M33.4822 33.0488H37.2024V25.9669H33.4822V33.0488Z" fill="white"/>
</mask>
<g mask="url(#mask31_208_3079)">
<path fill-rule="evenodd" clip-rule="evenodd" d="M35.0075 27.525C35.08 26.6775 35.2121 26.2526 35.4 26.2526C35.5822 26.2998 35.7125 26.6303 35.785 27.2393C35.9375 29.0381 35.452 30.4947 34.3397 31.6278C33.8895 32.0999 33.7798 32.0338 34.0049 31.4177C34.5573 29.9588 34.8996 28.6604 35.0075 27.525Z" fill="white"/>
</g>
</g>
</g>
<path fill-rule="evenodd" clip-rule="evenodd" d="M45.2026 26.6958L45.3105 32.4298H41.0174C40.7551 32.4298 40.4575 32.2292 40.1226 31.7948C39.4474 30.8553 38.8726 29.2028 38.3946 26.8422C37.87 24.1039 37.9072 21.7149 38.5025 19.6871L39.6223 17.4918L43.0226 16.505L45.2026 26.6958Z" fill="#F5ECA2"/>
<path fill-rule="evenodd" clip-rule="evenodd" d="M45.2529 32.2929C42.6524 31.6839 41.2424 28.5584 41.0174 22.9425C40.9374 20.6834 41.1848 18.9578 41.7428 17.7774C42.4125 16.4508 43.3574 16.1462 44.5851 16.8568C46.7056 18.082 47.818 21.1083 47.9352 25.9216C48.043 30.6877 47.1576 32.8099 45.2529 32.2929Z" fill="#FFFAC4"/>
<path fill-rule="evenodd" clip-rule="evenodd" d="M16.741 6.29769C16.5512 7.10031 16.4061 7.12864 16.2983 6.37087C16.1811 5.57062 16.2034 5.07253 16.3485 4.8884C16.6461 4.55555 16.8135 4.62873 16.8507 5.0985C16.9307 5.47856 16.8861 5.87278 16.741 6.29769Z" fill="#D6CE83"/>
<path fill-rule="evenodd" clip-rule="evenodd" d="M15.7886 7.86517C15.9058 7.95723 15.6435 8.30897 15.0111 8.92509C14.786 9.11158 14.6056 9.18476 14.4531 9.13755C14.2708 9.0927 14.2336 8.92509 14.3433 8.63946C14.4159 8.35382 14.6409 8.09651 15.0111 7.86517C15.3831 7.62674 15.6435 7.62674 15.7886 7.86517Z" fill="#D6CE83"/>
<path fill-rule="evenodd" clip-rule="evenodd" d="M15.7385 9.1375C16.0734 8.89907 16.1459 9.20359 15.9562 10.0605C15.8111 10.8631 15.5711 11.2857 15.2363 11.3329C14.9759 11.3801 14.9536 11.0472 15.1786 10.3367C15.3684 9.6828 15.5488 9.27677 15.7385 9.1375Z" fill="#D6CE83"/>
<path fill-rule="evenodd" clip-rule="evenodd" d="M16.9662 8.35381C17.301 8.50253 17.4089 8.80705 17.301 9.27681C17.1485 9.70173 16.9662 9.84809 16.7411 9.70173C16.5514 9.60966 16.4788 9.34999 16.516 8.92508C16.596 8.44587 16.7411 8.26174 16.9662 8.35381Z" fill="#D6CE83"/>
<path fill-rule="evenodd" clip-rule="evenodd" d="M17.861 6.02153C18.3762 5.87281 18.4916 6.1136 18.1939 6.72264C17.8963 7.34112 17.5764 7.59843 17.2434 7.50637C16.9439 7.45916 16.8863 7.22073 17.076 6.79582C17.2639 6.3709 17.5261 6.1136 17.861 6.02153Z" fill="#D6CE83"/>
<path fill-rule="evenodd" clip-rule="evenodd" d="M44.083 20.046C44.4904 19.8997 44.7731 20.4898 44.9257 21.8165C44.9629 22.3807 44.9405 22.7584 44.868 22.952C44.7527 23.1361 44.6057 23.0157 44.4179 22.5931C44.2002 22.0762 44.0328 21.5781 43.9156 21.1083C43.8431 20.4898 43.9026 20.1381 44.083 20.046Z" fill="#D6CE83"/>
<path fill-rule="evenodd" clip-rule="evenodd" d="M44.3079 23.3674C44.4177 23.5137 44.4028 23.679 44.2503 23.8655C44.1405 24.0024 43.9527 24.0756 43.6978 24.0756C43.4727 24.0756 43.27 23.9103 43.0803 23.5775C42.8552 23.1998 42.7975 22.8952 42.9129 22.6663C43.0951 22.2886 43.5676 22.5175 44.3079 23.3674Z" fill="#D6CE83"/>
<path fill-rule="evenodd" clip-rule="evenodd" d="M44.4754 24.5737C44.6651 24.5289 44.7525 24.6658 44.7525 24.9986C44.7525 25.2843 44.68 25.5699 44.533 25.8461C44.3805 26.1789 44.1777 26.4197 43.9155 26.5566L43.6402 26.2073C43.4876 26.0585 43.5453 25.754 43.8076 25.2843C44.0327 24.9066 44.2503 24.6658 44.4754 24.5737Z" fill="#D6CE83"/>
<path fill-rule="evenodd" clip-rule="evenodd" d="M45.5358 25.348C45.8706 25.9665 46.0381 26.3914 46.0381 26.6298C46.0753 26.9626 45.9878 27.194 45.7628 27.3309C45.5358 27.5245 45.3833 27.4796 45.3107 27.194C45.2029 26.9626 45.1805 26.5566 45.2531 25.9853C45.3703 25.3763 45.4633 25.1638 45.5358 25.348Z" fill="#D6CE83"/>
<path fill-rule="evenodd" clip-rule="evenodd" d="M45.8705 24.5737L46.1477 24.5006C46.3728 24.4557 46.5402 24.4817 46.6481 24.5737C46.8006 24.7673 46.8731 24.9986 46.8731 25.2843C46.8378 25.5605 46.6927 25.7281 46.4304 25.7824C46.1681 25.8296 45.9654 25.662 45.8129 25.2843C45.7031 24.9066 45.718 24.6658 45.8705 24.5737Z" fill="#D6CE83"/>
<path fill-rule="evenodd" clip-rule="evenodd" d="M45.9283 22.3052C46.3357 22.3524 46.5031 22.7112 46.4305 23.3769C46.3933 23.7451 46.0753 23.9387 45.4782 23.9387C45.3256 23.9387 45.3256 23.6791 45.4782 23.155C45.5879 22.5932 45.7404 22.3052 45.9283 22.3052Z" fill="#D6CE83"/>
<path fill-rule="evenodd" clip-rule="evenodd" d="M11.9456 27.2672C12.0535 26.788 12.3307 26.4835 12.7808 26.3442C13.1882 26.2073 13.3556 26.3442 13.283 26.7691C13.1659 27.2389 12.8757 27.6166 12.3883 27.9046C11.9456 28.143 11.7931 27.9306 11.9456 27.2672Z" fill="#D6CE83"/>
<path fill-rule="evenodd" clip-rule="evenodd" d="M11.663 27.3309C11.663 27.9494 11.5532 28.2067 11.3282 28.1146C11.1031 28.0698 10.958 27.7842 10.878 27.2672C10.8408 26.8423 10.971 26.677 11.2705 26.7691C11.5681 26.8612 11.6983 27.0547 11.663 27.3309Z" fill="#D6CE83"/>
<path fill-rule="evenodd" clip-rule="evenodd" d="M13.0581 27.829C13.9137 27.7841 14.096 28.1146 13.6161 28.8252C13.4282 29.1013 13.0934 29.0565 12.606 28.6882C12.4256 28.5867 12.4033 28.4191 12.5558 28.1901C12.6656 27.9966 12.8311 27.8762 13.0581 27.829Z" fill="#D6CE83"/>
<path fill-rule="evenodd" clip-rule="evenodd" d="M49.6634 28.4664H49.8885C48.5083 34.7457 45.5358 39.9013 40.9599 43.912C36.3096 47.9699 30.9897 49.9977 24.9963 49.9977C18.9714 49.9977 13.6161 47.9227 8.9305 43.7633C4.35275 39.7077 1.39516 34.5143 0.050293 28.1902L0.502302 28.2539C1.91785 29.8119 4.89032 31.0654 9.43087 32.0073C14.0012 33.0035 19.2486 33.5016 25.1619 33.5016C30.932 33.5016 36.0827 33.02 40.6251 32.0805C45.0931 31.141 48.1009 29.9323 49.6634 28.4664Z" fill="#A0DAF2"/>
<path fill-rule="evenodd" clip-rule="evenodd" d="M47.7158 29.8119C47.3754 31.233 46.8582 32.7178 46.1477 34.2758C44.8102 37.2526 42.7251 40.2695 39.8977 43.3406C37.5948 45.7933 34.827 47.7102 31.5848 49.0746L29.0718 49.6459C33.3873 47.3797 36.462 44.2164 38.2775 40.1585C39.0997 38.2676 39.6373 36.5444 39.8977 34.9864C39.9349 34.6063 39.9925 33.6385 40.0651 32.0804C43.3426 31.5186 45.8854 30.7608 47.7158 29.8119Z" fill="#8CC7DE"/>
<mask id="mask32_208_3079" style="mask-type:luminance" maskUnits="userSpaceOnUse" x="3" y="30" width="29" height="22">
<mask id="mask33_208_3079" style="mask-type:luminance" maskUnits="userSpaceOnUse" x="3" y="30" width="29" height="22">
<path d="M3.72021 51.9338H31.622V30.6882H3.72021V51.9338Z" fill="white"/>
</mask>
<g mask="url(#mask33_208_3079)">
<path d="M3.72021 51.9338H31.622V30.6882H3.72021V51.9338Z" fill="black" fill-opacity="0.4414"/>
</g>
</mask>
<g mask="url(#mask32_208_3079)">
<mask id="mask34_208_3079" style="mask-type:luminance" maskUnits="userSpaceOnUse" x="3" y="30" width="29" height="22">
<path d="M3.72021 51.9338H31.622V30.6882H3.72021V51.9338Z" fill="white"/>
</mask>
<g mask="url(#mask34_208_3079)">
<mask id="mask35_208_3079" style="mask-type:luminance" maskUnits="userSpaceOnUse" x="3" y="30" width="29" height="22">
<path d="M3.72021 51.9338H31.622V30.6882H3.72021V51.9338Z" fill="white"/>
</mask>
<g mask="url(#mask35_208_3079)">
<path fill-rule="evenodd" clip-rule="evenodd" d="M31.0118 33.3061L27.5464 49.814L24.9813 49.9509C23.9787 49.9509 22.9761 49.8777 21.9661 49.7385C20.7365 49.5 19.3861 48.9831 17.8961 48.1805C16.3336 47.3778 15.0334 46.502 13.988 45.5625C10.638 42.5386 8.07286 39.144 6.28528 35.3622C5.39057 33.5186 4.83997 31.9606 4.61304 30.6882L7.51296 31.5357C12.353 32.8175 18.231 33.4549 25.1488 33.4549C27.792 33.4549 29.7395 33.4076 31.0118 33.3061Z" fill="url(#paint22_linear_208_3079)"/>
</g>
</g>
</g>
<mask id="mask36_208_3079" style="mask-type:luminance" maskUnits="userSpaceOnUse" x="0" y="25" width="15" height="23">
<mask id="mask37_208_3079" style="mask-type:luminance" maskUnits="userSpaceOnUse" x="0" y="25" width="15" height="23">
<path d="M0 47.2125H14.881V25.9669H0V47.2125Z" fill="white"/>
</mask>
<g mask="url(#mask37_208_3079)">
<path d="M0 47.2125H14.881V25.9669H0V47.2125Z" fill="black" fill-opacity="0.1719"/>
</g>
</mask>
<g mask="url(#mask36_208_3079)">
<mask id="mask38_208_3079" style="mask-type:luminance" maskUnits="userSpaceOnUse" x="0" y="25" width="15" height="23">
<path d="M0 47.2125H14.881V25.9669H0V47.2125Z" fill="white"/>
</mask>
<g mask="url(#mask38_208_3079)">
<mask id="mask39_208_3079" style="mask-type:luminance" maskUnits="userSpaceOnUse" x="0" y="25" width="15" height="23">
<path d="M0 47.2125H14.881V25.9669H0V47.2125Z" fill="white"/>
</mask>
<g mask="url(#mask39_208_3079)">
<path fill-rule="evenodd" clip-rule="evenodd" d="M13.9137 47.1842C10.4557 45.35 7.51299 42.7769 5.09297 39.4673C2.64505 36.1199 0.967227 32.3382 0.0725098 28.1339L0.522659 28.2071L1.30019 28.9177C1.89729 31.3704 2.84781 33.8514 4.14803 36.3489C6.67779 41.311 9.933 44.9251 13.9137 47.1842Z" fill="black"/>
</g>
</g>
</g>
<path fill-rule="evenodd" clip-rule="evenodd" d="M48.8858 27.6166H49.9981V27.9046C49.9981 29.5547 47.5633 30.9474 42.6879 32.0805C37.8199 33.216 31.9196 33.7778 25.0019 33.7778C18.0785 33.7778 12.1856 33.216 7.31027 32.0805C2.4349 30.9474 0 29.5547 0 27.9046V27.6166H1.39509C1.39509 28.9456 3.72024 30.0787 8.37054 31.0206C12.9836 31.9601 18.5863 32.4394 25.1693 32.4394C31.7522 32.4394 37.3549 31.9601 41.9624 31.0206C46.5755 30.0693 48.8858 28.9456 48.8858 27.6166Z" fill="#C9E5F2"/>
</g>
<defs>
<linearGradient id="paint0_linear_208_3079" x1="0.279111" y1="28.0806" x2="49.9443" y2="28.0806" gradientUnits="userSpaceOnUse">
<stop stop-color="#557C8C"/>
<stop offset="1" stop-color="#86A7B5"/>
</linearGradient>
<radialGradient id="paint1_radial_208_3079" cx="0" cy="0" r="1" gradientUnits="userSpaceOnUse" gradientTransform="translate(25.224 17.4924) rotate(54.0315) scale(5.53462 5.43496)">
<stop stop-color="#BD325A"/>
<stop offset="1" stop-color="#70102E"/>
</radialGradient>
<radialGradient id="paint2_radial_208_3079" cx="0" cy="0" r="1" gradientUnits="userSpaceOnUse" gradientTransform="translate(31.0272 15.157) rotate(54.464) scale(5.68213 5.43601)">
<stop stop-color="#821725"/>
<stop offset="1" stop-color="#5C1320"/>
</radialGradient>
<radialGradient id="paint3_radial_208_3079" cx="0" cy="0" r="1" gradientUnits="userSpaceOnUse" gradientTransform="translate(5.52425 19.7593) rotate(43.9712) scale(5.43232 5.68513)">
<stop stop-color="#821725"/>
<stop offset="1" stop-color="#5C1320"/>
</radialGradient>
<radialGradient id="paint4_radial_208_3079" cx="0" cy="0" r="1" gradientUnits="userSpaceOnUse" gradientTransform="translate(15.8485 32.8619) rotate(43.9712) scale(5.43232 5.68513)">
<stop stop-color="#BD325A"/>
<stop offset="1" stop-color="#40091A"/>
</radialGradient>
<linearGradient id="paint5_linear_208_3079" x1="32.1284" y1="34.9132" x2="35.3929" y2="34.9132" gradientUnits="userSpaceOnUse">
<stop stop-color="#FFF9D1"/>
<stop offset="1" stop-color="#FFF08E"/>
</linearGradient>
<linearGradient id="paint6_linear_208_3079" x1="21.4421" y1="43.0518" x2="29.115" y2="43.0518" gradientUnits="userSpaceOnUse">
<stop stop-color="#FFF9D1"/>
<stop offset="1" stop-color="#FFF08E"/>
</linearGradient>
<linearGradient id="paint7_linear_208_3079" x1="21.5267" y1="45.6423" x2="30.0368" y2="45.6423" gradientUnits="userSpaceOnUse">
<stop stop-color="#E63C39"/>
<stop offset="1" stop-color="#821E00"/>
</linearGradient>
<linearGradient id="paint8_linear_208_3079" x1="10.3898" y1="25.5614" x2="3.45225" y2="30.1163" gradientUnits="userSpaceOnUse">
<stop stop-color="#FFF9D1"/>
<stop offset="1" stop-color="#FFF08E"/>
</linearGradient>
<linearGradient id="paint9_linear_208_3079" x1="9.0208" y1="23.6162" x2="1.29047" y2="28.6916" gradientUnits="userSpaceOnUse">
<stop stop-color="#E63C39"/>
<stop offset="1" stop-color="#821E00"/>
</linearGradient>
<linearGradient id="paint10_linear_208_3079" x1="31.2086" y1="36.4359" x2="35.4218" y2="36.4359" gradientUnits="userSpaceOnUse">
<stop stop-color="#E63C39"/>
<stop offset="1" stop-color="#821E00"/>
</linearGradient>
<linearGradient id="paint11_linear_208_3079" x1="20.1652" y1="22.5383" x2="10.6443" y2="21.1617" gradientUnits="userSpaceOnUse">
<stop stop-color="#E63C39"/>
<stop offset="1" stop-color="#821E00"/>
</linearGradient>
<linearGradient id="paint12_linear_208_3079" x1="25.5402" y1="20.316" x2="10.2436" y2="24.1678" gradientUnits="userSpaceOnUse">
<stop stop-color="#FFF9D1"/>
<stop offset="1" stop-color="#FFF08E"/>
</linearGradient>
<linearGradient id="paint13_linear_208_3079" x1="29.7467" y1="14.9154" x2="28.1114" y2="5.96036" gradientUnits="userSpaceOnUse">
<stop stop-color="#E63C39"/>
<stop offset="1" stop-color="#821E00"/>
</linearGradient>
<linearGradient id="paint14_linear_208_3079" x1="32.4252" y1="19.4733" x2="23.208" y2="9.58489" gradientUnits="userSpaceOnUse">
<stop stop-color="#FFF9D1"/>
<stop offset="1" stop-color="#FFF08E"/>
</linearGradient>
<radialGradient id="paint15_radial_208_3079" cx="0" cy="0" r="1" gradientUnits="userSpaceOnUse" gradientTransform="translate(24.273 9.06688) rotate(61.7787) scale(7.41661 6.67442)">
<stop stop-color="#821725"/>
<stop offset="1" stop-color="#5C1320"/>
</radialGradient>
<radialGradient id="paint16_radial_208_3079" cx="0" cy="0" r="1" gradientUnits="userSpaceOnUse" gradientTransform="translate(19.3636 39.8022) rotate(61.7787) scale(7.41661 6.67442)">
<stop stop-color="#BD325A"/>
<stop offset="1" stop-color="#821337"/>
</radialGradient>
<radialGradient id="paint17_radial_208_3079" cx="0" cy="0" r="1" gradientUnits="userSpaceOnUse" gradientTransform="translate(37.2742 13.4529) rotate(37.0207) scale(6.69241 7.38288)">
<stop stop-color="#821725"/>
<stop offset="1" stop-color="#5C1320"/>
</radialGradient>
<radialGradient id="paint18_radial_208_3079" cx="0" cy="0" r="1" gradientUnits="userSpaceOnUse" gradientTransform="translate(18.8046 25.777) rotate(48.5998) scale(7.01964 7.06056)">
<stop stop-color="#821725"/>
<stop offset="1" stop-color="#5C1320"/>
</radialGradient>
<linearGradient id="paint19_linear_208_3079" x1="11.509" y1="39.1708" x2="17.509" y2="39.1708" gradientUnits="userSpaceOnUse">
<stop stop-color="#FFF9D1"/>
<stop offset="1" stop-color="#FFF08E"/>
</linearGradient>
<linearGradient id="paint20_linear_208_3079" x1="9.98916" y1="39.8351" x2="16.1273" y2="39.8351" gradientUnits="userSpaceOnUse">
<stop stop-color="#E63C39"/>
<stop offset="1" stop-color="#821E00"/>
</linearGradient>
<radialGradient id="paint21_radial_208_3079" cx="0" cy="0" r="1" gradientUnits="userSpaceOnUse" gradientTransform="translate(28.6834 25.2823) rotate(44.4331) scale(8.51301 8.86745)">
<stop stop-color="#821725"/>
<stop offset="1" stop-color="#5C1320"/>
</radialGradient>
<linearGradient id="paint22_linear_208_3079" x1="8.42067" y1="40.293" x2="25.4693" y2="40.3373" gradientUnits="userSpaceOnUse">
<stop stop-color="white"/>
<stop offset="1" stop-color="#A0DAF2"/>
</linearGradient>
<clipPath id="clip0_208_3079">
<rect width="50" height="50" fill="white"/>
</clipPath>
</defs>
</svg>
