<svg width="50" height="50" viewBox="0 0 50 50" fill="none" xmlns="http://www.w3.org/2000/svg">
<g clip-path="url(#clip0_208_2209)">
<path d="M44.7199 22.9292C44.5767 27.4613 43.975 32.7989 41.4086 37.1142C45.7844 35.6105 47.3969 31.4745 47.3969 28.0419C47.3969 25.6152 46.2367 23.5089 44.7199 22.9292ZM37.3472 39.6112L38.7192 37.9152C42.3203 33.4656 42.8921 27.0099 42.9887 21.884L43.0002 21.3008L43.6975 21.0224L43.8837 21.0154C46.7901 21.0154 49.1537 24.1677 49.1537 28.042C49.1537 33.0626 46.1727 38.502 39.5115 39.339L37.3472 39.6112Z" fill="#0088FF"/>
<path d="M45.3351 47.3649L33.4074 48.1792C32.8242 48.2187 32.3051 48.5647 32.0433 49.0874C31.7641 49.6469 31.1922 50 30.5669 50H23.6827H15.9218C15.2947 50 14.722 49.646 14.4418 49.0847C14.181 48.5629 13.6646 48.2169 13.0822 48.1748L2.03014 47.3649C1.34508 47.2437 0.846191 46.8581 0.846191 46.1625C0.846191 45.3711 1.48735 44.73 2.2787 44.73H45.0865C45.877 44.73 46.519 45.3711 46.519 46.1625C46.519 46.8582 46.0201 47.2438 45.3351 47.3649Z" fill="#FF9800"/>
<path d="M23.6826 15.7156C23.4677 15.7156 23.253 15.6328 23.0903 15.4677C21.7437 14.1003 21.0724 12.6803 21.095 11.2469C21.1171 9.85154 21.7947 8.50889 23.1091 7.2561C24.1083 6.32561 24.6171 5.3734 24.6285 4.41905C24.6403 3.43389 24.1266 2.42673 23.1017 1.42574C22.7734 1.10501 22.7672 0.578746 23.0879 0.250393C23.4087 -0.07796 23.9349 -0.0842181 24.2633 0.236606C25.626 1.56762 26.3081 2.98145 26.2906 4.4389C26.2736 5.86544 25.5867 7.22041 24.2489 8.46606C23.2762 9.39323 22.7719 10.34 22.7571 11.2732C22.7418 12.2444 23.2523 13.2632 24.2747 14.3012C24.5968 14.6283 24.5928 15.1546 24.2657 15.4767C24.1038 15.6361 23.8932 15.7156 23.6826 15.7156Z" fill="url(#paint0_linear_208_2209)"/>
<path d="M33.3238 15.7156C33.1091 15.7156 32.8943 15.6328 32.7316 15.4676C31.385 14.1002 30.7136 12.6802 30.7364 11.2469C30.7585 9.8515 31.436 8.50885 32.7504 7.25607C33.7562 6.31951 34.2684 5.36202 34.2798 4.40385C34.2916 3.42212 33.7813 2.42015 32.7632 1.4257C32.4349 1.10497 32.4286 0.57871 32.7493 0.250357C33.0702 -0.0778983 33.5962 -0.0842542 33.9248 0.23657C35.2807 1.56093 35.9594 2.96968 35.942 4.42371C35.9249 5.85416 35.2347 7.21422 33.8903 8.46603C32.9176 9.3932 32.4134 10.3399 32.3985 11.2732C32.3833 12.2443 32.8937 13.2631 33.9161 14.3012C34.2383 14.6283 34.2342 15.1545 33.9071 15.4766C33.7452 15.6361 33.5345 15.7156 33.3238 15.7156Z" fill="url(#paint1_linear_208_2209)"/>
<path d="M14.8791 15.7156C14.6643 15.7156 14.4495 15.6328 14.2868 15.4677C12.9403 14.1003 12.2689 12.6803 12.2916 11.2469C12.3137 9.85154 12.9912 8.50889 14.3056 7.2561C15.3115 6.31945 15.8237 5.36206 15.8351 4.40379C15.8468 3.42206 15.3366 2.42008 14.3185 1.42574C13.9901 1.10501 13.984 0.578746 14.3047 0.250393C14.6254 -0.07796 15.1517 -0.0842181 15.4801 0.236606C16.836 1.56097 17.5147 2.96972 17.4973 4.42364C17.4802 5.8542 16.7899 7.21425 15.4454 8.46596C14.4727 9.39314 13.9684 10.3399 13.9537 11.2731C13.9383 12.2443 14.4488 13.2631 15.4713 14.3011C15.7934 14.6282 15.7893 15.1545 15.4623 15.4766C15.3003 15.6361 15.0896 15.7156 14.8791 15.7156Z" fill="url(#paint2_linear_208_2209)"/>
<path d="M23.6825 20.1367H3.48716C2.99971 20.1367 2.60184 20.5328 2.60624 21.0203C2.70461 32.4236 4.8829 44.7297 23.6825 44.7297C42.4821 44.7297 44.6604 32.4237 44.7588 21.0204C44.7632 20.5329 44.3653 20.1368 43.8779 20.1368L23.6825 20.1367Z" fill="url(#paint3_linear_208_2209)"/>
<path d="M28.805 27.7166C27.3833 26.295 25.2117 26.0694 23.5519 27.0396C21.892 26.0694 19.7203 26.2951 18.2986 27.7166C17.4799 28.5353 17.0291 29.6238 17.0291 30.7816C17.0291 31.9393 17.4799 33.0278 18.2986 33.8464L23.5519 39.0996L28.805 33.8464C30.495 32.1564 30.495 29.4066 28.805 27.7166Z" fill="#FF3D63"/>
<path d="M28.8051 27.7166C27.3834 26.295 25.2118 26.0694 23.5519 27.0396C23.534 27.0291 23.5157 27.0195 23.4976 27.0093V39.0453L23.5519 39.0997L28.8051 33.8465C30.4951 32.1564 30.4951 29.4066 28.8051 27.7166Z" fill="#FF0536"/>
</g>
<defs>
<linearGradient id="paint0_linear_208_2209" x1="23.6927" y1="0" x2="23.6927" y2="15.7156" gradientUnits="userSpaceOnUse">
<stop stop-color="#4D4A4A"/>
<stop offset="0.464" stop-color="#433E3E" stop-opacity="0.536"/>
<stop offset="0.754" stop-color="#C0C0C0" stop-opacity="0.72"/>
<stop offset="1" stop-color="#6F6666" stop-opacity="0.22"/>
</linearGradient>
<linearGradient id="paint1_linear_208_2209" x1="33.3391" y1="0" x2="33.3391" y2="15.7156" gradientUnits="userSpaceOnUse">
<stop stop-color="#4D4A4A"/>
<stop offset="0.464" stop-color="#433E3E" stop-opacity="0.536"/>
<stop offset="0.754" stop-color="#C0C0C0" stop-opacity="0.73"/>
<stop offset="1" stop-color="#6F6666" stop-opacity="0.22"/>
</linearGradient>
<linearGradient id="paint2_linear_208_2209" x1="14.8943" y1="0" x2="14.8943" y2="15.7156" gradientUnits="userSpaceOnUse">
<stop stop-color="#4D4A4A"/>
<stop offset="0.464" stop-color="#433E3E" stop-opacity="0.536"/>
<stop offset="0.754" stop-color="#C0C0C0" stop-opacity="0.72"/>
<stop offset="1" stop-color="#666F6F" stop-opacity="0.22"/>
</linearGradient>
<linearGradient id="paint3_linear_208_2209" x1="42.0291" y1="26.6303" x2="9.23922" y2="36.2318" gradientUnits="userSpaceOnUse">
<stop stop-color="#00C37A"/>
<stop offset="0.879219" stop-color="#3ACC8F"/>
</linearGradient>
<clipPath id="clip0_208_2209">
<rect width="50" height="50" fill="white"/>
</clipPath>
</defs>
</svg>
