<svg width="47" height="50" viewBox="0 0 47 50" fill="none" xmlns="http://www.w3.org/2000/svg">
<path fill-rule="evenodd" clip-rule="evenodd" d="M40.0237 30.5293C40.3453 30.2697 40.7073 30.0625 41.1362 29.9376C42.2469 29.614 43.6871 29.9519 44.6516 30.4879C45.4244 30.9171 46.2135 31.5776 46.7786 32.2699C45.9389 32.5424 44.78 32.6488 43.527 32.6803C42.5695 32.7045 41.694 32.5445 40.8649 32.115L40.9012 32.1604L40.8683 32.1359C40.4361 31.8321 40.0157 31.5273 39.6388 31.2141L40.0157 30.5401L40.0237 30.5293Z" fill="#5E990B"/>
<path fill-rule="evenodd" clip-rule="evenodd" d="M40.0048 30.5452L40.0234 30.5292L40.017 30.5387L39.6401 31.2127C39.4097 31.0217 39.1834 30.8072 38.9671 30.6291L39.6073 29.5609C39.724 29.3654 39.9872 29.2934 40.1953 29.3994C40.4033 29.5054 40.4769 29.7497 40.3601 29.9451L40.0048 30.5452Z" fill="#7F573C"/>
<path fill-rule="evenodd" clip-rule="evenodd" d="M40.6963 33.1203C40.5011 32.7921 40.2606 32.4791 39.9688 32.1824C39.6826 31.8929 39.3453 31.6169 38.9522 31.36C37.7977 30.9162 36.7553 30.7718 35.8159 30.8767C34.8139 30.9879 33.9232 31.3874 33.138 32.0142C31.6712 33.1853 31.5498 34.1687 31.3987 35.3862C31.3358 35.8917 31.2696 36.4344 31.1107 37.0488C30.935 37.7319 30.6863 38.3339 30.3857 38.8499C30.0671 39.3972 29.6897 39.8487 29.279 40.1981C28.9262 40.6033 28.7842 40.9459 28.8634 41.2235C28.8647 41.2277 28.8659 41.2319 28.8672 41.2361C28.9549 41.5223 29.284 41.7841 29.8635 42.0206C29.8708 42.0236 29.878 42.0266 29.8853 42.0296C31.7836 42.802 33.7891 42.899 35.6002 42.3898C37.3992 41.8844 39.0065 40.7786 40.1266 39.1391C40.7996 38.1535 41.2461 37.0751 41.346 35.9901C41.4339 35.0236 41.2465 34.0472 40.6963 33.1203ZM40.8648 32.1149C41.042 32.3319 41.1996 32.5553 41.3361 32.7863C41.9601 33.8357 42.1719 34.9415 42.0715 36.0375C41.9613 37.2384 41.4738 38.4219 40.7398 39.4983C39.5189 41.2839 37.7642 42.4889 35.8012 43.0417C33.8292 43.5957 31.6491 43.4919 29.588 42.6536C29.5808 42.6506 29.5734 42.649 29.5662 42.646C28.7746 42.3241 28.312 41.917 28.1636 41.4271C28.1609 41.4215 28.1598 41.4146 28.1572 41.4076C28.0126 40.8998 28.2098 40.3474 28.7323 39.7553C28.7433 39.7418 28.7573 39.7298 28.7713 39.7178C29.1291 39.4178 29.4606 39.0217 29.7434 38.5355C30.0148 38.0697 30.2399 37.5236 30.4007 36.8996C30.5487 36.3248 30.6138 35.8043 30.6727 35.3194C30.8419 33.9517 30.9782 32.8499 32.666 31.5018C33.5594 30.7885 34.582 30.3323 35.7362 30.2023C36.7233 30.0919 37.7991 30.2208 38.9686 30.6318C39.732 31.0123 40.3759 31.4969 40.8648 32.1149Z" fill="#F7C103"/>
<path fill-rule="evenodd" clip-rule="evenodd" d="M40.9248 33.0071C40.7211 32.6689 40.4692 32.3472 40.1646 32.0419C39.8655 31.7436 39.5122 31.4603 39.1017 31.1959C37.8944 30.7394 36.8064 30.5894 35.8239 30.6971C34.7773 30.8111 33.8474 31.2219 33.0273 31.8655C31.4951 33.0691 31.3693 34.0801 31.2135 35.332C31.1484 35.8512 31.0799 36.409 30.9142 37.0413C30.7316 37.7435 30.4717 38.3617 30.1584 38.8926C29.8243 39.4546 29.4299 39.9193 29.0024 40.2779C28.6342 40.6937 28.4858 41.0458 28.569 41.3318C28.5703 41.336 28.5716 41.3402 28.5728 41.3444C28.6645 41.639 29.0081 41.9082 29.614 42.151C29.6212 42.154 29.6285 42.157 29.6372 42.16C31.6219 42.9559 33.7162 43.0556 35.608 42.5338C37.4877 42.0157 39.1648 40.8788 40.3346 39.1938C41.0372 38.1815 41.503 37.0719 41.6059 35.9566C41.6966 34.9653 41.5003 33.961 40.9248 33.0071Z" fill="#F9D109"/>
<path fill-rule="evenodd" clip-rule="evenodd" d="M40.1028 30.9518C42.543 31.13 43.1939 31.041 45.4387 31.9404C43.025 31.7658 42.3806 31.696 40.1028 30.9518Z" fill="#537918"/>
<g clip-path="url(#clip0_208_2961)">
<path d="M1.74707 14.5911C6.55137 16.9771 11.7924 16.9771 18.3437 16.9771C22.2745 16.758 27.2972 16.4658 30.5728 14.5911L29.9177 20.7266L27.2972 45.0124C27.2185 45.9991 27.3395 46.9258 26.5256 47.6329C26.14 47.9644 25.6806 48.2274 25.1743 48.4067C24.6679 48.586 24.1246 48.678 23.576 48.6774H9.31806C8.77728 48.6794 8.24153 48.5893 7.74244 48.4124C7.24335 48.2356 6.79103 47.9756 6.4122 47.6478C5.60066 46.9305 5.57497 46.0023 5.45948 45.0124L2.4022 20.2153L1.74707 14.5911Z" fill="#FBF1C2"/>
<path fill-rule="evenodd" clip-rule="evenodd" d="M1.96533 21.2379C10.2975 27.162 20.24 19.6979 29.6992 21.7787L27.4802 45.8677C27.3048 47.7819 25.6208 49.3592 23.3492 49.3592H9.06173C6.79011 49.3592 5.1763 47.7745 4.93072 45.8677L1.96533 21.2379Z" fill="#FBE05C"/>
<path d="M-4.36883e-05 12.9242C-0.0110531 12.8712 -0.0110531 12.8171 -4.36883e-05 12.764C-0.00649108 12.6914 -0.00649108 12.6185 -4.36883e-05 12.5459C-4.36883e-05 11.2063 1.92167 10.0575 5.027 9.28038C7.8921 8.55775 11.836 8.11462 16.1599 8.11462C20.4837 8.11462 24.4582 8.55775 27.3233 9.27697C30.4286 10.0541 32.346 11.2028 32.346 12.5424C32.3454 12.7562 32.2981 12.9683 32.2062 13.1696L28.2754 46.2777C28.1709 47.2761 27.6242 48.215 26.7293 48.9331C26.3018 49.2722 25.7919 49.5412 25.2294 49.7244C24.6669 49.9076 24.0632 50.0013 23.4537 50H9.20673C8.59867 50.0026 7.99614 49.9098 7.43493 49.7271C6.87372 49.5444 6.36528 49.2755 5.93981 48.9365C5.04224 48.2217 4.48707 47.2878 4.3675 46.2914L-4.36883e-05 12.9242ZM1.66399 14.591L5.80442 46.1857C5.88647 46.9268 6.29195 47.6235 6.95308 48.1593C7.24716 48.3925 7.59803 48.5775 7.98506 48.7034C8.37209 48.8293 8.78746 48.8934 9.20673 48.8922H23.4362C23.8577 48.8928 24.2751 48.8281 24.6643 48.7017C25.0534 48.5753 25.4065 48.3898 25.7029 48.1559C26.3598 47.623 26.7609 46.9295 26.8385 46.1925L30.5946 14.6388C29.5834 15.1556 28.4815 15.5551 27.3233 15.825C24.4582 16.5306 20.5274 16.9771 16.1599 16.9771C11.7923 16.9771 7.86153 16.534 5.01389 15.8147C3.82441 15.5414 2.69494 15.1288 1.66399 14.591ZM30.7955 12.9344L30.8261 12.7129C30.833 12.6363 30.8613 12.5618 30.909 12.4947C30.8304 11.721 29.3062 10.9608 26.8822 10.3541C24.1568 9.65874 20.3702 9.23607 16.1599 9.23607C11.9495 9.23607 8.1891 9.65874 5.46375 10.3405C2.97425 10.9642 1.43688 11.7482 1.43688 12.5459C1.43688 13.3435 2.97425 14.1275 5.46375 14.7512C8.1891 15.433 11.9758 15.8556 16.173 15.8556C20.3702 15.8556 24.1568 15.433 26.8822 14.7512C28.9786 14.2263 30.3762 13.5889 30.813 12.9242L30.7955 12.9344Z" fill="black" fill-opacity="0.6"/>
<path d="M6.3154 29.5175C6.29628 29.3697 6.35319 29.222 6.47359 29.107C6.594 28.9919 6.76804 28.9189 6.95743 28.904C7.14681 28.889 7.33604 28.9334 7.48347 29.0274C7.63091 29.1214 7.72447 29.2572 7.74358 29.405L8.29826 33.6317C8.31234 33.7065 8.30687 33.7827 8.28218 33.8557C8.25749 33.9287 8.21409 33.9971 8.1546 34.0567C8.09511 34.1163 8.02077 34.1658 7.93606 34.2023C7.85135 34.2389 7.75804 34.2616 7.66174 34.2692C7.56545 34.2769 7.46818 34.2692 7.37581 34.2466C7.28344 34.2241 7.19788 34.1871 7.1243 34.1381C7.05072 34.089 6.99064 34.0288 6.9477 33.9611C6.90476 33.8934 6.87983 33.8196 6.87444 33.7442L6.31976 29.5175H6.3154ZM7.26315 36.7472C7.24346 36.5994 7.29981 36.4516 7.4198 36.3362C7.5398 36.2208 7.71361 36.1473 7.903 36.132C8.09239 36.1166 8.28184 36.1606 8.42968 36.2542C8.57753 36.3479 8.67165 36.4835 8.69134 36.6313L9.68277 44.2053C9.70109 44.353 9.6439 44.5004 9.52364 44.6153C9.40339 44.7302 9.22982 44.8034 9.04074 44.8189C8.94751 44.8264 8.85328 44.8195 8.76347 44.7986C8.67366 44.7776 8.59004 44.743 8.5174 44.6968C8.44476 44.6505 8.38454 44.5936 8.34019 44.5291C8.29584 44.4647 8.26823 44.394 8.25895 44.3212L7.26315 36.7472Z" fill="white"/>
<path d="M4.15534 10.4188C2.22861 10.6832 1.0918 12.3962 1.0918 13.0571C5.45934 16.9771 23.5846 16.8067 31.4462 13.2276C31.6123 11.41 27.5751 10.4188 26.9938 10.5014C26.6616 10.2536 25.3328 9.59264 24.9175 9.75788C24.6684 9.59264 23.7549 9.09693 22.8413 9.09693C21.1803 8.2377 19.7685 8.40844 19.2702 8.60122C19.0211 8.43598 17.7753 8.02289 16.7788 8.43599C15.45 7.85765 14.5364 8.18814 14.1212 8.43599C12.9585 8.0229 12.3772 8.27075 11.8789 8.51862C10.5501 8.18815 9.55351 8.51862 8.97217 8.84908C7.3112 8.68384 6.56376 9.26217 6.48071 9.59265C5.65022 9.59265 4.57059 9.92312 4.15534 10.4188Z" fill="#FDF6DF"/>
<path d="M27.9523 14.4206L31.4464 13.2276C31.6955 11.8231 30.0046 10.6686 29.0911 10.8338C28.6758 10.4207 27.4301 10.0076 27.0149 10.0902C26.6827 9.84238 26.1013 9.5119 24.9386 9.42929C23.9421 8.85096 22.0962 8.2955 21.1826 8.62597C20.3522 8.21288 20.2969 8.29553 19.2173 8.62598C18.1376 8.13026 17.1781 8.12504 16.5967 8.45551C15.9416 7.94427 14.6929 8.04241 14.1946 8.45551C14.4437 8.53812 15.6372 9.21979 16.1355 9.13717C16.6338 9.05455 17.2151 9.46765 17.4643 9.38503C17.6303 9.55026 18.9591 9.55026 19.3744 9.38503C19.8727 9.7155 20.5371 9.79812 20.6201 9.79812C20.7032 9.79812 22.6963 9.7155 22.6963 10.3764C26.4169 10.8391 27.8693 13.622 27.9523 14.4206Z" fill="#FBF1C2"/>
</g>
<path d="M21.1828 20.7968C20.5277 20.9672 20.0909 20.9672 19.4358 21.1377L24.9694 2.14954C25.0795 1.82742 25.4022 1.59359 25.7892 1.51553L32.8934 0.0303888C33.5032 -0.0967534 34.1299 0.186164 34.2924 0.662009C34.4553 1.13786 34.0932 1.62699 33.4831 1.7538L26.4239 2.8973L21.1828 20.7968Z" fill="#4398D1"/>
<defs>
<clipPath id="clip0_208_2961">
<rect width="32.346" height="41.8853" fill="white" transform="translate(0 8.11462)"/>
</clipPath>
</defs>
</svg>
