<svg width="50" height="50" viewBox="0 0 50 50" fill="none" xmlns="http://www.w3.org/2000/svg">
<g clip-path="url(#clip0_208_2946)">
<path d="M31.3644 50H17.8229C17.0788 50 16.4491 49.4516 16.3466 48.7144L12.2881 19.4916H37.7118L32.8339 48.7552C32.7144 49.4737 32.0932 50 31.3644 50Z" fill="#E6E6E6"/>
<path d="M34.0393 41.5253L36.8638 24.5762H12.9944L15.3478 41.5253H34.0393Z" fill="#F85B57"/>
<path d="M37.8297 19.4914H12.1695C11.2992 19.4914 10.5933 18.7854 10.5933 17.9143V17.6787C10.5933 16.8075 11.2992 16.1016 12.1695 16.1016H37.8297C38.7009 16.1016 39.4068 16.8075 39.4068 17.6787V17.9143C39.4067 18.7854 38.7009 19.4914 37.8297 19.4914Z" fill="#D2D5D7"/>
<path d="M36.0233 16.1016C34.2826 11.7126 30.0081 8.60498 24.9996 8.60498C19.9911 8.60498 15.7166 11.7126 13.9758 16.1016H36.0233Z" fill="#FAF6E5"/>
<path d="M30.9332 11.0175C30.8933 11.0175 30.8527 11.0149 30.812 11.009C30.3493 10.9429 30.0272 10.5132 30.0933 10.0497L30.9408 4.11746C30.9781 3.85897 31.1323 3.63192 31.3594 3.50223L37.2917 0.112385C37.6967 -0.120622 38.2154 0.0208814 38.4476 0.42762C38.6806 0.833577 38.5391 1.35135 38.1324 1.58358L32.5603 4.76746L31.7714 10.2903C31.7112 10.7124 31.3485 11.0175 30.9332 11.0175Z" fill="#3DABEF"/>
<path d="M30.0846 33.0741C30.0846 30.2656 27.8083 27.9894 24.9998 27.9894C22.1913 27.9894 19.915 30.2656 19.915 33.0741C19.915 35.8826 22.1913 38.1589 24.9998 38.1589C27.8083 38.1589 30.0846 35.8826 30.0846 33.0741Z" fill="#F9DA49"/>
</g>
<defs>
<clipPath id="clip0_208_2946">
<rect width="50" height="50" fill="white"/>
</clipPath>
</defs>
</svg>
