<svg width="50" height="50" viewBox="0 0 50 50" fill="none" xmlns="http://www.w3.org/2000/svg">
<path d="M15.0521 9.38465L18.5696 3.33146C16.6197 2.39781 14.2838 2.31857 12.1788 3.31768L15.0521 9.38465ZM15.6102 9.77051L22.79 9.74984C22.7521 8.77485 22.5247 7.78953 22.0803 6.84899C21.4223 5.46403 20.3921 4.37535 19.1691 3.64497L15.6102 9.77051ZM14.4871 9.77396L11.5794 3.63463C9.33654 4.95414 8.01359 7.31065 7.93091 9.79118L14.4871 9.77396ZM15.5551 10.4492L18.5421 16.7539C21.0984 15.5446 22.6419 13.0676 22.7866 10.4285L15.5551 10.4492ZM14.432 10.4492L7.9378 10.4664C7.99292 11.3932 8.21686 12.3234 8.63717 13.2157C9.21596 14.4387 10.0876 15.4241 11.1246 16.1407L14.432 10.4492ZM14.9901 10.8351L11.6999 16.5024C13.5466 17.5463 15.8135 17.7875 17.9151 17.0123L14.9901 10.8351Z" fill="#6DD627"/>
<path d="M16.8469 6.284C15.8272 5.78445 14.6213 5.68798 13.4913 6.09452L15.0485 9.38122L16.8469 6.284ZM19.231 9.75675C19.1862 9.26409 19.0622 8.77143 18.8382 8.29944C18.511 7.60351 18.0183 7.04194 17.4292 6.62852L15.6067 9.76708L19.231 9.75675ZM12.8781 6.37702C11.5827 7.09017 10.7868 8.38556 10.6697 9.78087L14.487 9.77053L12.8781 6.37702ZM17.157 13.829C18.3973 13.0917 19.1449 11.8032 19.2413 10.432L15.555 10.4423L17.157 13.829ZM10.6663 10.4561C10.7042 10.9695 10.8316 11.4862 11.0659 11.9789C11.407 12.7024 11.9272 13.2812 12.5439 13.698L14.4319 10.4458L10.6663 10.4561ZM13.1296 14.0357C14.1769 14.5249 15.4103 14.5869 16.5506 14.1287L14.99 10.8351L13.1296 14.0357Z" fill="#F3D351"/>
<path d="M23.7925 49.5727C22.5006 49.5727 21.3154 49.552 20.4576 49.5141C19.9787 49.4935 19.6032 49.4659 19.3413 49.4349C19.1829 49.4177 19.0588 49.3936 18.9658 49.3694C18.48 49.242 18.4421 48.8768 18.4421 48.77C18.4421 48.515 18.5214 48.3462 19.3896 47.4332C19.8133 46.9854 20.4059 46.3928 21.1466 45.6659C22.1285 44.7012 23.1207 43.7503 23.5135 43.3783V37.0012H24.6331V43.3576C24.9914 43.7056 26.0043 44.6909 27.0069 45.6934C27.7373 46.4238 28.3195 47.0164 28.7398 47.4608C29.5839 48.3531 29.6734 48.515 29.6734 48.7769C29.6734 48.8906 29.6321 49.2661 29.1119 49.3798C29.012 49.4005 28.8811 49.4211 28.7053 49.4383C28.4091 49.4694 27.9888 49.4935 27.4547 49.5176C26.4729 49.5486 25.1361 49.5727 23.7925 49.5727ZM20.0373 48.3703C20.8607 48.422 22.2525 48.4565 24.0681 48.453C25.8011 48.4496 27.2032 48.4082 28.0473 48.36C27.2239 47.4815 25.6288 45.8898 24.0785 44.3808C22.4868 45.8932 20.8607 47.4953 20.0373 48.3703Z" fill="#45413C"/>
<path d="M15.5515 10.0979H32.3744V31.651C32.3744 31.651 32.712 39.3923 23.9647 39.3854C15.6997 39.382 15.555 31.5373 15.555 31.5373V10.0979H15.5515Z" fill="#00B8F0"/>
<path d="M24.5677 20.02L23.5342 19.5859L28.6296 7.43126C28.6951 7.25555 29.2463 5.90159 30.5658 5.33658C31.434 4.9645 32.4193 5.01618 33.4908 5.49161C36.4777 6.81801 40.8428 8.38902 40.8876 8.40624L40.5086 9.46047C40.4638 9.44324 36.0609 7.8619 33.036 6.51484C32.2643 6.17376 31.5856 6.12208 31.0137 6.36325C30.08 6.756 29.6804 7.81712 29.6769 7.8309L29.6666 7.85501L24.5677 20.02Z" fill="#704F23"/>
<path d="M17.4981 18.1286C17.4981 18.1286 18.5903 17.667 20.051 18.6558C20.871 18.9383 22.0044 17.2295 23.2792 18.6558C23.9544 19.2931 26.1318 19.1829 26.7347 18.9555C27.5615 18.7316 28.254 18.5421 29.2876 19.0623C30.0558 19.3138 30.4899 18.0563 30.4899 17.605C30.4141 27.5168 30.4899 30.8207 30.4899 30.8207C30.4899 30.8207 30.4899 37.1289 24.7089 37.5802C18.4008 37.842 17.5395 32.6983 17.4671 30.9723C17.3879 29.2428 17.4981 18.1286 17.4981 18.1286Z" fill="url(#paint0_linear_208_2255)"/>
<path d="M23 17C23 17.1313 23.0259 17.2614 23.0761 17.3827C23.1264 17.504 23.2 17.6142 23.2929 17.7071C23.3858 17.8 23.496 17.8736 23.6173 17.9239C23.7386 17.9741 23.8687 18 24 18C24.1313 18 24.2614 17.9741 24.3827 17.9239C24.504 17.8736 24.6142 17.8 24.7071 17.7071C24.8 17.6142 24.8736 17.504 24.9239 17.3827C24.9741 17.2614 25 17.1313 25 17C25 16.7348 24.8946 16.4804 24.7071 16.2929C24.5196 16.1054 24.2652 16 24 16C23.7348 16 23.4804 16.1054 23.2929 16.2929C23.1054 16.4804 23 16.7348 23 17Z" fill="#BCE4C5"/>
<path d="M22 14.5C22 14.5657 22.0129 14.6307 22.0381 14.6913C22.0632 14.752 22.1 14.8071 22.1464 14.8536C22.1929 14.9 22.248 14.9368 22.3087 14.9619C22.3693 14.9871 22.4343 15 22.5 15C22.5657 15 22.6307 14.9871 22.6913 14.9619C22.752 14.9368 22.8071 14.9 22.8536 14.8536C22.9 14.8071 22.9368 14.752 22.9619 14.6913C22.9871 14.6307 23 14.5657 23 14.5C23 14.3674 22.9473 14.2402 22.8536 14.1464C22.7598 14.0527 22.6326 14 22.5 14C22.3674 14 22.2402 14.0527 22.1464 14.1464C22.0527 14.2402 22 14.3674 22 14.5Z" fill="#BCE4C5"/>
<path d="M24 12.5C24 12.5657 24.0129 12.6307 24.0381 12.6913C24.0632 12.752 24.1 12.8071 24.1464 12.8536C24.1929 12.9 24.248 12.9368 24.3087 12.9619C24.3693 12.9871 24.4343 13 24.5 13C24.5657 13 24.6307 12.9871 24.6913 12.9619C24.752 12.9368 24.8071 12.9 24.8536 12.8536C24.9 12.8071 24.9368 12.752 24.9619 12.6913C24.9871 12.6307 25 12.5657 25 12.5C25 12.3674 24.9473 12.2402 24.8536 12.1464C24.7598 12.0527 24.6326 12 24.5 12C24.3674 12 24.2402 12.0527 24.1464 12.1464C24.0527 12.2402 24 12.3674 24 12.5Z" fill="#BCE4C5"/>
<defs>
<linearGradient id="paint0_linear_208_2255" x1="23.9642" y1="17.605" x2="24" y2="34.5" gradientUnits="userSpaceOnUse">
<stop stop-color="#F3EEEA"/>
<stop offset="1" stop-color="#5ED486"/>
</linearGradient>
</defs>
</svg>
