<svg width="61" height="60" viewBox="0 0 61 60" fill="none" xmlns="http://www.w3.org/2000/svg">
<g clip-path="url(#clip0_208_2280)">
<path d="M27.139 24.2053C29.2037 26.311 32.5844 26.3442 34.6901 24.2795C36.7958 22.2149 36.829 18.8341 34.7643 16.7284C32.6996 14.6228 29.3189 14.5895 27.2132 16.6542C25.1075 18.7189 25.0743 22.0997 27.139 24.2053Z" fill="#69A646"/>
<path d="M22.5887 29.5759C24.6535 31.6817 28.0345 31.7149 30.1403 29.6501C32.2461 27.5853 32.2793 24.2043 30.2145 22.0985C28.1497 19.9927 24.7687 19.9595 22.6629 22.0243C20.5571 24.0891 20.5239 27.4701 22.5887 29.5759Z" fill="#69A646"/>
<path d="M21.9955 28.5696C24.0603 30.6754 27.4412 30.7086 29.547 28.6438C31.6528 26.579 31.6861 23.198 29.6212 21.0922C27.5564 18.9864 24.1755 18.9532 22.0697 21.018C19.9639 23.0828 19.9306 26.4637 21.9955 28.5696Z" fill="#F05B56"/>
<path d="M17.3983 34.6655C19.4631 36.7713 22.8441 36.8045 24.9499 34.7397C27.0557 32.6749 27.0889 29.2939 25.0241 27.1881C22.9593 25.0823 19.5783 25.0491 17.4725 27.1139C15.3667 29.1787 15.3335 32.5597 17.3983 34.6655Z" fill="#F05B56"/>
<path d="M27.2203 42.5844C29.2851 44.6903 32.6661 44.7235 34.7719 42.6587C36.8777 40.5939 36.9109 37.2129 34.8461 35.1071C32.7813 33.0013 29.4003 32.9681 27.2945 35.0329C25.1887 37.0977 25.1555 40.4786 27.2203 42.5844Z" fill="#F05B56"/>
<path d="M30.3958 38.1931C32.4607 40.2989 35.8416 40.3321 37.9474 38.2673C40.0532 36.2025 40.0865 32.8215 38.0216 30.7157C35.9568 28.6099 32.5759 28.5767 30.4701 30.6415C28.3643 32.7063 28.331 36.0873 30.3958 38.1931Z" fill="#69A646"/>
<path d="M35.1749 34.7849C37.2397 36.8907 40.6207 36.9239 42.7265 34.8591C44.8323 32.7943 44.8655 29.4133 42.8007 27.3075C40.7359 25.2017 37.3549 25.1685 35.2491 27.2333C33.1433 29.2981 33.1101 32.6791 35.1749 34.7849Z" fill="#F05B56"/>
<path d="M16.9302 41.6891C16.3793 42.3128 15.886 42.1436 15.8355 41.3122L14.327 16.8761C14.2762 16.0454 14.9137 15.3236 15.7444 15.2723L40.1812 13.7642C41.012 13.7129 41.2403 14.1814 40.6901 14.8049L16.9302 41.6891Z" fill="#F89E04"/>
<path d="M15.5474 17.956C15.4966 17.1248 16.1348 16.4033 16.9654 16.3517L40.6118 14.8923L40.6902 14.8047C41.2403 14.1813 41.0118 13.7124 40.1813 13.764L15.7448 15.2724C14.9138 15.3234 14.2763 16.0458 14.3274 16.8762L15.8358 41.3123C15.8866 42.1435 16.3796 42.3129 16.9305 41.6892L17.0078 41.6026L15.5474 17.956Z" fill="#B37202"/>
<path d="M45.7486 19.9354C46.3765 19.3892 46.843 19.6208 46.7852 20.4524L45.0871 44.8759C45.029 45.7064 44.3034 46.3378 43.4727 46.2809L19.0477 44.5828C18.2181 44.525 18.0519 44.0307 18.6803 43.4849L45.7486 19.9354Z" fill="#F89E04"/>
<path d="M44.0186 43.6455C43.9603 44.4766 43.2331 45.1085 42.4035 45.0508L18.7681 43.408L18.6801 43.4846C18.0517 44.0304 18.2179 44.5247 19.0475 44.5824L43.4721 46.2806C44.3027 46.3374 45.0284 45.706 45.0864 44.8756L46.7851 20.452C46.8428 19.6204 46.3761 19.3891 45.7487 19.9353L45.6611 20.0115L44.0186 43.6455Z" fill="#B37202"/>
<path d="M34.4645 21.8479L28.2676 19.6015C27.9175 19.4742 27.5311 19.6552 27.4038 20.0063C27.2763 20.3562 27.458 20.7428 27.8083 20.8704L33.5045 22.935L34.4645 21.8479Z" fill="#C78310"/>
<path d="M30.3187 26.5398L22.4615 23.6911C22.1107 23.564 21.724 23.7448 21.5972 24.0953C21.4701 24.4457 21.6511 24.8326 22.0015 24.9601L29.3578 27.627L30.3187 26.5398Z" fill="#C78310"/>
<path d="M26.1157 31.2955L20.412 29.2266C20.0614 29.0997 19.6747 29.2805 19.5474 29.6315C19.4203 29.9819 19.6011 30.3686 19.9519 30.4956L25.1554 32.3822L26.1157 31.2955Z" fill="#C78310"/>
<path d="M41.7387 27.8579L38.1407 26.5536L36.976 27.5665L41.2789 29.1271C41.6295 29.254 42.0167 29.0727 42.1434 28.7221C42.2711 28.3724 42.09 27.9856 41.7387 27.8579Z" fill="#C78310"/>
<path d="M37.3671 33.394L32.3635 31.5803L31.1984 32.5937L36.9063 34.6629C37.2574 34.7902 37.6438 34.6092 37.7711 34.2581C37.8989 33.908 37.7172 33.5213 37.3671 33.394Z" fill="#C78310"/>
<path d="M31.5434 37.8548L27.0308 36.2193L25.8664 37.2325L31.0839 39.1243C31.4345 39.2512 31.8217 39.0699 31.9485 38.7193C32.0757 38.3693 31.8948 37.9823 31.5434 37.8548Z" fill="#C78310"/>
</g>
<defs>
<clipPath id="clip0_208_2280">
<rect width="42.4285" height="42.4285" fill="white" transform="translate(30.7947) rotate(45.5631)"/>
</clipPath>
</defs>
</svg>
