<svg width="50" height="50" viewBox="0 0 50 50" fill="none" xmlns="http://www.w3.org/2000/svg">
<path d="M31.8899 24.8962C36.7601 24.8962 40.7081 20.9482 40.7081 16.078C40.7081 11.2079 36.7601 7.25989 31.8899 7.25989C27.0198 7.25989 23.0718 11.2079 23.0718 16.078C23.0718 20.9482 27.0198 24.8962 31.8899 24.8962Z" fill="#FFD01F"/>
<path d="M32.0126 23.1814C36.0033 23.1814 39.2385 19.9462 39.2385 15.9554C39.2385 11.9647 36.0033 8.72949 32.0126 8.72949C28.0218 8.72949 24.7866 11.9647 24.7866 15.9554C24.7866 19.9462 28.0218 23.1814 32.0126 23.1814Z" fill="#FFD01F"/>
<path d="M32.0126 23.1814C36.0033 23.1814 39.2385 19.9462 39.2385 15.9554C39.2385 11.9647 36.0033 8.72949 32.0126 8.72949C28.0218 8.72949 24.7866 11.9647 24.7866 15.9554C24.7866 19.9462 28.0218 23.1814 32.0126 23.1814Z" fill="white"/>
<path d="M31.6755 15.5474V10.0022C28.5912 10.1414 26.0925 12.5179 25.7573 15.5474H31.6755Z" fill="#FFD01F"/>
<path d="M38.2675 15.4656C37.7594 12.5724 35.3929 10.322 32.4407 9.99487V15.4656H38.2675Z" fill="#FFD01F"/>
<path d="M31.6755 16.3644V21.9092C28.5912 21.77 26.0925 19.3939 25.7573 16.3644H31.6755Z" fill="#FFD01F"/>
<path d="M38.2675 16.4453C37.7594 19.3385 35.3929 21.5892 32.4407 21.9161V16.4453H38.2675Z" fill="#FFD01F"/>
<path d="M30.2112 49.9999H12.0085L9.29199 15.3585H32.9273L30.2112 49.9999Z" fill="#ABD9D5"/>
<path d="M20.4693 49.9999H12.0085L9.29199 15.3585H20.4693V49.9999Z" fill="#CDE8E6"/>
<path d="M28.309 45.5093H13.9101L11.1936 15.3585H31.0261L28.309 45.5093Z" fill="#DDF0EE"/>
<path d="M11.8054 22.0057L13.9102 45.3704H28.3091L30.4139 22.0057H11.8054Z" fill="#FFD01F"/>
<path d="M26.8392 40.8468C26.77 41.5938 26.1086 42.1439 25.3615 42.0746C24.6148 42.0057 24.0651 41.3443 24.134 40.5972L25.4324 26.5299C25.5014 25.7829 26.1628 25.2331 26.9095 25.3021C27.6568 25.3711 28.2063 26.0325 28.1373 26.7795L26.8392 40.8468Z" fill="white"/>
<path d="M21.2455 22.0057H11.8054L13.9102 45.3704H21.2455V22.0057Z" fill="#FFB000"/>
<path d="M21.2455 22.0057H11.8054L13.9102 45.3704H21.2455V22.0057Z" fill="#FFB000"/>
<path d="M11.9297 0L13.5299 15.2143H16.3789L14.7789 0H11.9297Z" fill="#F62D8D"/>
</svg>
