<svg width="50" height="50" viewBox="0 0 50 50" fill="none" xmlns="http://www.w3.org/2000/svg">
<path d="M25.0173 5.98291L10.1392 10.7532L16.147 3.90479L25.0173 5.98291Z" fill="#F05326"/>
<path d="M10.436 21.0952L16.4063 14.8452H33.5938L39.5642 21.0952L25.0001 24.078L10.436 21.0952Z" fill="#F1E7DF"/>
<path d="M10.4361 21.0952L23.6892 23.939C24.5533 24.1249 25.447 24.1249 26.3111 23.939L39.5642 21.0952L39.933 21.9421C44.6002 32.6452 37.6736 45.264 26.2064 46.0546C25.4022 46.1112 24.595 46.1112 23.7908 46.0546C12.3236 45.264 5.39704 32.6468 10.0642 21.9421L10.4361 21.0952Z" fill="#13AD4C"/>
<path d="M40.6499 21.6297L40.2811 20.7828C40.2426 20.6957 40.1886 20.6162 40.1218 20.5484L34.1593 14.3062C34.0865 14.2298 33.999 14.1689 33.9021 14.1273C33.8051 14.0856 33.7007 14.0641 33.5952 14.064H30.0608L32.5624 7.81403H35.9374C36.1446 7.81403 36.3433 7.73172 36.4898 7.58521C36.6363 7.43869 36.7186 7.23998 36.7186 7.03278C36.7186 6.82558 36.6363 6.62687 36.4898 6.48035C36.3433 6.33384 36.1446 6.25153 35.9374 6.25153H32.0311C31.8751 6.25157 31.7227 6.29832 31.5935 6.38576C31.4643 6.4732 31.3642 6.59733 31.3061 6.74215L28.378 14.064H20.2265L18.5608 8.87184L25.2561 6.72497C25.4179 6.67195 25.558 6.56763 25.6552 6.42782C25.7524 6.28801 25.8013 6.12033 25.7946 5.9502C25.7879 5.78008 25.7259 5.61678 25.618 5.48506C25.5101 5.35334 25.3622 5.26038 25.1968 5.22028L16.3249 3.14215C16.187 3.10964 16.0429 3.1153 15.908 3.15852C15.7731 3.20174 15.6526 3.28089 15.5593 3.38747L9.54989 10.2375C9.43729 10.3659 9.36985 10.5276 9.3579 10.6979C9.34595 10.8683 9.39014 11.0379 9.48372 11.1807C9.5773 11.3236 9.71511 11.4318 9.87605 11.4889C10.037 11.546 10.2122 11.5488 10.3749 11.4968L17.0702 9.34997L18.5827 14.064H16.4061C16.3006 14.0638 16.1961 14.0851 16.0991 14.1268C16.002 14.1684 15.9146 14.2295 15.8421 14.3062L9.87958 20.5468C9.81234 20.615 9.7583 20.695 9.7202 20.7828L9.35145 21.6297C8.1701 24.3479 7.65826 27.3099 7.85891 30.2669C8.05956 33.224 8.96685 36.0897 10.5046 38.6234C13.4421 43.464 18.2671 46.4562 23.7405 46.8343C24.5802 46.8912 25.4227 46.8912 26.2624 46.8343C31.7358 46.4562 36.5608 43.464 39.4983 38.6234C41.0351 36.0893 41.9417 33.2236 42.142 30.2667C42.3424 27.3098 41.8307 24.3479 40.6499 21.6297ZM16.4249 4.77184L22.0936 6.09997L12.5858 9.14684L16.4249 4.77184ZM16.7405 15.6265H33.2608L38.0358 20.625L26.1483 23.175C25.3917 23.3359 24.6097 23.3359 23.853 23.175L11.9655 20.625L16.7405 15.6265ZM38.1593 37.8125C35.489 42.2125 31.1124 44.9328 26.153 45.275C25.3905 45.3281 24.6093 45.3281 23.8452 45.275C18.8858 44.9328 14.5093 42.214 11.839 37.8125C10.4309 35.493 9.59983 32.8696 9.41549 30.1625C9.23116 27.4554 9.69894 24.7436 10.7796 22.2547L10.8936 21.9937L23.5233 24.7031C24.4948 24.914 25.5003 24.914 26.4718 24.7031L39.1015 21.9937L39.2155 22.2547C40.2974 24.7431 40.7661 27.455 40.5823 30.1622C40.3985 32.8695 39.5676 35.493 38.1593 37.8125Z" fill="#595959"/>
</svg>
