<svg width="50" height="50" viewBox="0 0 50 50" fill="none" xmlns="http://www.w3.org/2000/svg">
<path d="M36.3011 27.7043L40.1442 25.5444C40.6564 25.2566 41.2773 25.6769 41.2002 26.2593L40.6223 30.6297C40.5528 31.1551 39.9547 31.4237 39.5159 31.1266L36.2507 28.916C35.8119 28.619 35.8392 27.9639 36.3011 27.7043Z" fill="#97814C"/>
<path d="M38.063 12.8606L41.9062 10.7006C42.4183 10.4128 43.0392 10.8331 42.9622 11.4156L42.3842 15.786C42.3148 16.3114 41.7166 16.5799 41.2779 16.2828L38.0127 14.0723C37.5739 13.7752 37.6011 13.1201 38.063 12.8606Z" fill="#DBBA6E"/>
<path d="M39.9064 33.3035L39.0761 28.9739C38.9655 28.3969 39.561 27.9414 40.0889 28.199L44.0509 30.1325C44.5271 30.3649 44.5923 31.0172 44.1714 31.3393L41.0398 33.7354C40.6188 34.0574 40.0062 33.8239 39.9064 33.3035Z" fill="#CDAE67"/>
<path d="M33.6564 33.0147L32.8261 28.6851C32.7155 28.1081 33.311 27.6526 33.8389 27.9102L37.8009 29.8437C38.2771 30.0761 38.3423 30.7284 37.9214 31.0505L34.7898 33.4466C34.3688 33.7686 33.7562 33.5351 33.6564 33.0147Z" fill="#CDAE67"/>
<path d="M35.2189 23.1472L34.3886 18.8176C34.278 18.2407 34.8735 17.7851 35.4014 18.0427L39.3634 19.9762C39.8396 20.2087 39.9048 20.861 39.4839 21.1831L36.3523 23.5792C35.9313 23.9011 35.3187 23.6676 35.2189 23.1472Z" fill="#DBBA6E"/>
<path d="M34.7386 32.3918L38.5817 30.2319C39.0939 29.9441 39.7148 30.3644 39.6377 30.9468L39.0598 35.3172C38.9903 35.8426 38.3922 36.1112 37.9534 35.8141L34.6882 33.6035C34.2494 33.3065 34.2767 32.6514 34.7386 32.3918Z" fill="#F5D07B"/>
<path d="M2.34375 7.03125L3.90625 11.7188V38.2813L2.34375 42.9684L3.90625 45.3121L5.46875 42.9684L7.03125 45.3121L8.59375 42.9684L10.1562 45.3121L11.7188 42.9684L13.2812 45.3121L14.8438 42.9684L16.4062 45.3121L17.9688 42.9684L19.5312 45.3121L21.0938 42.9684L22.6562 45.3121L24.2188 42.9684L25.7812 45.3121L27.3438 42.9684L28.9062 45.3121L30.4688 42.9684L28.9062 38.2813V11.7188L30.4688 7.03125L28.9062 4.6875L27.3438 7.03125L25.7812 4.6875L24.2188 7.03125L22.6562 4.6875L21.0938 7.03125L19.5312 4.6875L17.9688 7.03125L16.4062 4.6875L14.8438 7.03125L13.2812 4.6875L11.7188 7.03125L10.1562 4.6875L8.59375 7.03125L7.03125 4.6875L5.46875 7.03125L3.90625 4.6875L2.34375 7.03125Z" fill="#E0541E"/>
<path d="M28.9062 11.7188H3.90625V38.2812H28.9062V11.7188Z" fill="#2FADF1"/>
<path d="M7.60892 15.2861L11.9897 14.7924C12.5735 14.7265 12.9818 15.3555 12.6841 15.8619L10.4506 19.6628C10.1822 20.1197 9.5267 20.1343 9.23812 19.6898L7.09086 16.3827C6.80228 15.9382 7.08236 15.3454 7.60892 15.2861Z" fill="#F5D07B"/>
<path d="M15.4214 13.9653L19.8022 13.4716C20.386 13.4057 20.7943 14.0347 20.4966 14.5411L18.2631 18.342C17.9947 18.7989 17.3392 18.8135 17.0506 18.369L14.9034 15.0619C14.6148 14.6175 14.8949 14.0247 15.4214 13.9653Z" fill="#F5D07B"/>
<path d="M20.8755 31.9402L24.7187 29.7802C25.2308 29.4924 25.8517 29.9127 25.7747 30.4951L25.1967 34.8656C25.1273 35.3909 24.5292 35.6595 24.0904 35.3624L20.8252 33.1519C20.3864 32.8549 20.4136 32.1998 20.8755 31.9402Z" fill="#F5D07B"/>
<path d="M40.3768 32.4702L44.22 30.3102C44.7321 30.0224 45.353 30.4428 45.2759 31.0252L44.698 35.3956C44.6286 35.921 44.0304 36.1895 43.5917 35.8925L40.3265 33.6819C39.8876 33.3848 39.9148 32.7299 40.3768 32.4702Z" fill="#F5D07B"/>
<path d="M29.0311 32.2832L32.8742 30.1232C33.3863 29.8354 34.0072 30.2557 33.9302 30.8382L33.3523 35.2086C33.2828 35.734 32.6847 36.0025 32.2459 35.7054L28.9807 33.4949C28.5419 33.1979 28.5691 32.5428 29.0311 32.2832Z" fill="#F5D07B"/>
<path d="M13.5887 30.4106L17.4318 28.2507C17.944 27.9629 18.5648 28.3832 18.4878 28.9656L17.9099 33.336C17.8404 33.8614 17.2423 34.13 16.8035 33.8329L13.5383 31.6223C13.0995 31.3254 13.1268 30.6703 13.5887 30.4106Z" fill="#F5D07B"/>
<path d="M6.04642 30.1299L10.4272 29.6361C11.011 29.5703 11.4193 30.1992 11.1216 30.7056L8.88812 34.5065C8.61967 34.9635 7.9642 34.978 7.67562 34.5336L5.52836 31.2264C5.23978 30.7819 5.51986 30.1891 6.04642 30.1299Z" fill="#F5D07B"/>
<path d="M20.9595 17.747L24.3675 14.9505C24.8216 14.5779 25.5063 14.8836 25.5319 15.4706L25.7243 19.8749C25.7474 20.4043 25.2052 20.773 24.7213 20.5569L21.1209 18.9491C20.6372 18.733 20.5499 18.0832 20.9595 17.747Z" fill="#F5D07B"/>
<path d="M28.9062 19.5312H3.90625V30.4688H28.9062V19.5312Z" fill="#D96762"/>
<path d="M28.9062 23.4375H3.90625V26.5625H28.9062V23.4375Z" fill="#5491B2"/>
<path d="M16.4062 28.125C19.858 28.125 22.6562 26.7259 22.6562 25C22.6562 23.2741 19.858 21.875 16.4062 21.875C12.9545 21.875 10.1562 23.2741 10.1562 25C10.1562 26.7259 12.9545 28.125 16.4062 28.125Z" fill="#F5D07B"/>
<path d="M43.75 41.4062H31.25V45.3125H43.75V41.4062Z" fill="#6693AB"/>
<path d="M41.9197 42.1875H33.0802C30.6532 42.1875 28.5636 40.4744 28.0876 38.0945L27.3438 34.375H47.6562L46.9123 38.0945C46.4363 40.4744 44.3468 42.1875 41.9197 42.1875Z" fill="#2FADF1"/>
</svg>
