<svg width="50" height="50" viewBox="0 0 50 50" fill="none" xmlns="http://www.w3.org/2000/svg">
<g clip-path="url(#clip0_208_2798)">
<path d="M35.8258 15.6941L33.4728 16.1733L32.0369 17.9238C32.0369 17.9238 31.4021 20.9765 31.8766 22.0545C32.5518 23.5918 33.3732 25.1883 37.1647 27.2104C38.258 27.7942 38.0032 28.3265 36.9375 28.3377C36.2525 28.3453 34.7055 27.902 34.7055 27.902C32.9026 27.9725 32.4884 28.4903 32.3486 28.965C32.2089 29.4398 32.0172 30.7279 34.6612 32.2761C36.7226 33.4841 39.829 34.1062 41.3709 33.7294C42.9225 33.3494 43.2676 32.5106 43.3595 32.1538C43.4443 31.8213 43.3924 31.1235 42.8068 30.6079C42.5401 30.373 41.5941 30.452 40.9602 30.0785C40.2022 29.6299 39.7918 28.7271 39.7918 28.7271C39.7918 28.7271 39.9552 28.172 40.0856 28.1291C40.216 28.0863 42.7764 28.6735 45.0379 27.8607C47.2993 27.0478 48.9108 25.353 49.4054 23.6727C49.9001 21.9924 49.4881 21.4284 49.4881 21.4284L47.7801 19.5241L35.8258 15.6941Z" fill="#6FA3B0"/>
<path d="M38.9066 27.8573C38.9066 27.8573 38.6191 28.6562 38.6044 28.9728C38.5903 29.2875 38.8034 29.9047 38.6235 30.1158C38.4238 30.3495 37.8676 30.2751 37.1232 29.9361C35.9324 29.3946 36.6158 28.9033 36.3973 29.038C35.9279 29.3283 36.5358 30.2791 37.7764 30.622C38.9121 30.936 39.6162 30.7005 39.7064 30.4163C39.8025 30.1196 39.6124 29.891 39.6244 29.5391C39.6369 29.1854 39.7874 28.726 39.7874 28.726C39.7874 28.726 43.7036 30.2282 43.2578 31.8315C42.8119 33.4348 40.5417 33.8327 37.0327 32.7408C34.7085 32.018 31.9586 30.459 32.4587 28.8493C32.9587 27.2397 36.9982 27.9231 36.9982 27.9231L37.1601 27.9586L37.2668 27.596C37.2938 27.5044 37.3378 27.3102 37.3378 27.3102C37.3378 27.3102 37.6828 27.4869 38.0936 27.618C38.5139 27.7539 38.9066 27.8573 38.9066 27.8573Z" fill="#B9CED3"/>
<path d="M36.7281 22.8462L33.2263 20.4402L32.3554 17.4338L32.2931 16.6152C32.2931 16.6152 31.1734 17.9957 31.3065 20.1147C31.4397 22.2337 33.4801 25.6393 38.5288 27.1256C43.4148 28.564 46.2628 26.9814 47.1836 26.2024C49.0109 24.6565 49.5209 22.7756 49.5209 22.7756L48.4193 23.5907L46.4518 24.5165L43.9529 24.8025L40.1201 24.2692L36.7281 22.8462Z" fill="#BBCED3"/>
<path d="M31.9845 20.2362C31.7124 20.2637 31.8152 21.5817 32.834 22.9967C33.8528 24.4116 35.1556 25.3659 35.3752 25.2274C35.5954 25.0871 34.0644 23.6412 33.5568 22.8906C32.7084 21.6375 32.3128 20.2028 31.9845 20.2362Z" fill="#FFFFFD"/>
<path d="M36.3724 29.0789C36.3091 29.5457 36.8188 29.7262 36.968 29.701C37.1035 29.678 37.4583 29.0431 37.5843 28.6151C37.7103 28.1871 37.6997 27.6823 37.5069 27.5889C37.314 27.4956 37.1942 28.3175 37.0029 28.5597C36.8142 28.8007 36.396 28.8949 36.3724 29.0789Z" fill="#FFFFFD"/>
<path d="M39.658 24.4749C39.5636 24.4471 39.4693 24.4193 39.3755 24.3897C34.7771 22.9669 33.0978 21.069 32.3851 19.7848C31.8794 18.8722 31.7291 17.975 32.0181 17.1339C32.7506 15.0016 36.3867 15.3063 36.5391 15.3147L36.5306 15.9438C36.4983 15.9424 33.4165 15.9552 32.8727 17.5358C32.6548 18.1723 32.751 18.7125 33.1487 19.4287C34.0493 21.0526 36.4348 22.612 39.8061 23.6532C45.1889 25.3232 48.2379 23.7247 48.7096 22.456C49.1219 21.3445 47.856 19.7166 46.4273 18.8715L46.6926 18.2814C48.4019 19.2924 50.055 21.0647 49.5782 22.6325C48.9814 24.6077 45.4895 26.1916 39.658 24.4749Z" fill="#DFEEF5"/>
<path d="M37.4998 15.5244L36.539 15.3127C36.539 15.3127 36.4611 14.5992 36.921 14.3263C37.3809 14.0535 37.9081 14.2635 37.9081 14.2635C37.9081 14.2635 38.1971 12.6445 39.5955 11.5695C40.994 10.4945 42.7393 10.0638 44.9661 11.2657C47.3436 12.5486 47.4157 15.0822 47.4157 15.0822L46.2776 17.2068L41.246 17.7078L37.4998 15.5244Z" fill="#FEA9A6"/>
<path d="M39.9506 16.4943C39.9506 16.4943 40.6423 16.9234 41.4872 16.6989C42.034 16.5532 42.219 16.2583 42.219 16.2583C42.219 16.2583 43.6708 16.8989 44.9314 16.4921C46.192 16.0854 47.3649 14.6576 47.3649 14.6576C47.3649 14.6576 47.5227 15.4108 47.3656 16.3374C47.2505 17.0246 47.0224 17.3921 47.0224 17.3921C47.0224 17.3921 47.6595 17.4212 47.7869 18.2183C47.908 18.9852 47.3716 19.3696 47.3716 19.3696L40.0018 17.9433L39.9506 16.4943Z" fill="#FE7C84"/>
<path d="M44.8794 14.3273C44.7294 14.2364 44.5484 14.3476 44.487 14.4819C44.4242 14.6137 44.4063 14.7933 44.5975 14.8922C44.7887 14.9911 44.9285 14.8272 44.9941 14.686C45.0602 14.543 45.0184 14.4109 44.8794 14.3273Z" fill="#FE7C84"/>
<path d="M41.5352 13.2514C41.3758 13.1557 41.1839 13.2739 41.1184 13.4151C41.0528 13.5562 41.0257 13.7595 41.2368 13.8501C41.4594 13.9461 41.619 13.7818 41.6636 13.6304C41.7104 13.4715 41.6811 13.3411 41.5352 13.2514Z" fill="#FE7C84"/>
<path d="M46.5394 13.6499C46.4096 13.5203 46.2463 13.586 46.1469 13.642C46.0495 13.6987 45.9395 13.9019 46.0604 14.0248C46.1916 14.1569 46.3812 14.1132 46.4865 14.0223C46.6099 13.9144 46.6386 13.7502 46.5394 13.6499Z" fill="#FE7C84"/>
<path d="M42.7937 12.1429C42.7092 12.0003 42.5283 11.9775 42.3706 12.0834C42.2263 12.181 42.19 12.3633 42.2633 12.4702C42.3752 12.6311 42.6146 12.5736 42.7168 12.4859C42.8328 12.388 42.8564 12.2487 42.7937 12.1429Z" fill="#FE7C84"/>
<path d="M40.0974 13.779C39.9781 13.6505 39.7873 13.6613 39.6497 13.7955C39.5214 13.9202 39.5244 14.11 39.6252 14.2046C39.7755 14.3464 40.0213 14.2522 40.0938 14.1395C40.1651 14.0305 40.185 13.8739 40.0974 13.779Z" fill="#FE7C84"/>
<path d="M42.3561 18.2157C42.3726 18.1596 43.9717 17.3813 45.821 18.0719C48.0757 18.9124 48.451 20.6904 48.451 20.6904L47.7961 22.4332L45.6273 23.8725C45.6273 23.8725 43.4201 23.834 43.3479 23.8128C43.2756 23.7915 40.4433 23.2014 40.4433 23.2014L41.1502 18.7035L42.3561 18.2157Z" fill="#FFEBCA"/>
<path d="M40.8687 22.9103C40.8829 22.9511 44.1404 23.8897 46.2198 22.7247C48.3452 21.5367 48.2997 20.2315 48.3018 20.2687C48.304 20.3059 48.6143 20.8746 48.5794 21.8676C48.5584 22.487 48.3383 23.0275 48.3383 23.0275C48.3383 23.0275 47.246 24.2333 44.8571 24.3749C42.0244 24.5423 39.6782 23.5977 39.6782 23.5977L40.8687 22.9103Z" fill="#EAC183"/>
<path d="M45.5991 20.9105C45.4734 20.774 45.2678 20.813 45.1117 20.9357C44.9557 21.0583 44.9262 21.2548 45.066 21.3873C45.1995 21.5119 45.4186 21.4789 45.5559 21.3386C45.6548 21.2397 45.733 21.0556 45.5991 20.9105Z" fill="#EAC183"/>
<path d="M39.7721 22.6882L41.7198 21.9779L42.356 19.7056L43.4294 18.8456C43.4294 18.8456 43.5435 18.1765 43.0418 17.7688C42.5382 17.3606 41.7795 17.5962 41.7795 17.5962C41.7795 17.5962 40.7228 15.5466 38.2271 15.1693C35.9026 14.8181 34.5167 15.7912 33.8224 16.5861C33.2664 17.2226 33.0281 18.558 33.0281 18.558L33.9294 20.0684C33.9294 20.0684 36.9331 21.8991 37.362 22.1168C37.7909 22.3344 39.7721 22.6882 39.7721 22.6882Z" fill="#865C50"/>
<path d="M37.2651 20.8132C37.2651 20.8132 38.6264 22.0873 39.9079 21.9507C41.1893 21.8141 41.7456 20.9542 41.8078 20.4912C41.87 20.0281 41.872 19.6062 41.872 19.6062C41.872 19.6062 42.4541 19.4222 42.8201 19.142C43.1862 18.8618 43.3758 18.2697 43.3758 18.2697C43.3758 18.2697 43.6608 18.9467 43.2777 19.7662C42.9772 20.4089 42.4335 20.6185 42.4335 20.6185C42.4335 20.6185 42.8936 21.345 42.299 22.283C41.749 23.1508 40.722 23.1348 40.722 23.1348C40.722 23.1348 40.7635 23.3644 40.6807 23.5492C40.5979 23.734 40.4822 23.8604 40.4822 23.8604C40.4822 23.8604 37.3015 23.0906 35.2794 21.6158C33.1595 20.0656 32.9412 18.9696 32.9412 18.9696C32.9412 18.9696 33.0514 18.3805 33.0608 18.43C33.0702 18.4795 33.8472 19.8639 35.1634 20.4463C36.4796 21.0288 37.2651 20.8132 37.2651 20.8132Z" fill="#6C4D42"/>
<path d="M36.2818 18.2697C36.1504 18.0787 35.8729 18.1026 35.7243 18.2071C35.5973 18.2977 35.4603 18.5112 35.5889 18.6892C35.744 18.9035 35.9989 18.8303 36.1263 18.7459C36.2593 18.6571 36.3975 18.4398 36.2818 18.2697Z" fill="#6C4D42"/>
<path d="M37.1329 16.5458C36.9094 16.7196 37.0064 16.9757 37.1059 17.0598C37.2401 17.1745 37.4791 17.1555 37.615 17.0127C37.7508 16.8699 37.8212 16.6976 37.6549 16.5288C37.5008 16.3779 37.2638 16.4421 37.1329 16.5458Z" fill="#6C4D42"/>
<path d="M39.0656 19.2043C38.8737 19.026 38.6676 19.1481 38.5565 19.2515C38.4454 19.3548 38.3353 19.5804 38.5372 19.7617C38.739 19.943 38.9874 19.7886 39.0539 19.7107C39.1761 19.5699 39.2371 19.3625 39.0656 19.2043Z" fill="#6C4D42"/>
<path d="M15.8114 46.7741H0L4.02065 40.7644H15.8114V46.7741Z" fill="#F8E2CE"/>
<path d="M25.8631 9.21558L26.2024 9.27646L21.5224 35.2892L21.1831 35.2283L25.8631 9.21558Z" fill="#996250"/>
<path d="M14.5286 7.79919L27.289 2.15063L37.3479 11.8229L14.5286 7.79919Z" fill="#F48F4A"/>
<path d="M27.5486 2.40037L27.2887 2.15063L26.9591 2.29653L21.3347 8.99941L21.7267 9.06845L27.2243 2.51674L30.1494 10.5537L30.5412 10.6227L27.5486 2.40037Z" fill="#FFEFE1"/>
<path d="M19.1585 42.3711L14.1999 13.5285C14.1992 13.5217 14.1968 13.5152 14.193 13.5095C14.1892 13.5038 14.1841 13.4992 14.1781 13.4959C14.1727 13.4925 14.1664 13.4904 14.1599 13.49C14.1534 13.4895 14.147 13.4906 14.141 13.4933L7.09927 16.2192L6.68457 15.1479L13.7262 12.422C13.8911 12.3578 14.0683 12.3312 14.2447 12.3443C14.4212 12.3574 14.5925 12.4097 14.7462 12.4974C14.9002 12.5847 15.0327 12.7052 15.1341 12.8503C15.2355 12.9953 15.3033 13.1611 15.3324 13.3357L20.2908 42.1766L19.1585 42.3711Z" fill="#5962B2"/>
<path d="M29.8285 46.7647H12.0328L7.06934 40.6838V24.6309L14.5144 18.8667H27.3468L34.7919 24.6309V40.6838L29.8285 46.7647Z" fill="#FFF4D4"/>
<path d="M29.8285 46.7647H12.0328L7.06934 40.6838V24.6309L14.5144 18.8667H27.3468L34.7919 24.6309V40.6838L29.8285 46.7647Z" fill="#FFEFE1"/>
<path d="M15.4433 26.1643L7.03076 24.6748V40.6839L12.0328 46.7744H29.8285L34.8306 40.6839V24.6749L26.5406 26.1558C22.8708 26.8114 19.1141 26.8143 15.4433 26.1643Z" fill="#13AD4C"/>
<path d="M34.764 40.7644L29.776 42.5237H12.0852L7.13599 40.8118L12.0327 46.7741H29.8284L34.764 40.7644Z" fill="#68B264"/>
</g>
<defs>
<clipPath id="clip0_208_2798">
<rect width="50" height="50" fill="white"/>
</clipPath>
</defs>
</svg>
