<svg width="50" height="50" viewBox="0 0 50 50" fill="none" xmlns="http://www.w3.org/2000/svg">
<path d="M25 47C37.1503 47 47 37.1503 47 25C47 12.8497 37.1503 3 25 3C12.8497 3 3 12.8497 3 25C3 37.1503 12.8497 47 25 47Z" fill="#233551"/>
<path d="M25 8.59375C15.9531 8.59375 8.59375 15.9531 8.59375 25C8.59375 34.0469 15.9531 41.4062 25 41.4062C34.0469 41.4062 41.4062 34.0469 41.4062 25C41.4062 15.9531 34.0469 8.59375 25 8.59375ZM16.6875 35.1094C16.2734 34.7734 15.875 34.4062 15.5156 34.0156H16.6875V35.1094ZM16.6875 30.8828H13.3047C12.9844 30.25 12.7109 29.5859 12.4922 28.8984C12.4922 28.8906 12.4922 28.8906 12.4844 28.8906C12.3594 28.4844 12.25 28.0625 12.1641 27.6406L12.0937 27.2812H16.6797V30.8828H16.6875ZM16.6875 24.1328H11.9297C11.9531 23.8203 11.9766 23.5078 12.0234 23.2031C12.0391 23.0703 12.0547 22.9531 12.0859 22.8203C12.1094 22.6641 12.1328 22.5156 12.1719 22.3594C12.2031 22.1875 12.2422 22.0156 12.2891 21.8437C12.2969 21.7969 12.3125 21.75 12.3203 21.7031C12.3828 21.4766 12.4453 21.2422 12.5156 21.0156C12.5703 20.8438 12.6328 20.6797 12.6875 20.5156H16.6875V24.1328ZM16.6875 17.3906H14.3516C15.0156 16.4531 15.8047 15.6094 16.6875 14.8828V17.3906ZM23.4375 38C23.4141 38 23.3984 38 23.3828 37.9922C23.3438 37.9922 23.3047 37.9844 23.2656 37.9766C23.1641 37.9688 23.0703 37.9531 22.9688 37.9375C22.8984 37.9297 22.8281 37.9141 22.7578 37.9062C22.6406 37.8828 22.5156 37.8672 22.3984 37.8359C22.1641 37.7891 21.9297 37.7422 21.7031 37.6797C21.2849 37.5718 20.8729 37.4414 20.4688 37.2891C20.3047 37.2344 20.1484 37.1719 19.9844 37.1016L19.8203 37.0313V34.0156H23.4375V38ZM23.4375 30.8828H19.8281V27.2734H23.4375V30.8828ZM23.4375 24.1328H19.8281V20.5156H23.4375V24.1328ZM23.4375 17.3906H19.8281V12.9688C19.8359 12.9609 19.8516 12.9531 19.8672 12.9453C19.8828 12.9375 19.8984 12.9375 19.9062 12.9297C20.0938 12.8516 20.2812 12.7734 20.4766 12.7031C20.5 12.6953 20.5156 12.6875 20.5391 12.6797C20.7266 12.6016 20.9141 12.5391 21.1094 12.4844C21.3047 12.4219 21.5078 12.3672 21.7031 12.3125C21.7344 12.3047 21.7812 12.2969 21.8125 12.2891C21.9688 12.25 22.1172 12.2109 22.2734 12.1875C22.3203 12.1797 22.3594 12.1641 22.4062 12.1641C22.5234 12.1328 22.6484 12.1172 22.7656 12.0937C22.8359 12.0781 22.9062 12.0703 22.9766 12.0625C23.0781 12.0469 23.1719 12.0313 23.2734 12.0234C23.3047 12.0156 23.3516 12.0078 23.3906 12.0078C23.4062 12 23.4219 12 23.4453 12V17.3906H23.4375ZM33.3203 14.8828C33.6484 15.1484 33.9609 15.4375 34.2656 15.7344C34.7109 16.1797 35.125 16.6562 35.5 17.1641C35.5547 17.2422 35.6094 17.3125 35.6562 17.3906H33.3125V14.8828H33.3203ZM33.3203 20.5234H37.3203C37.4609 20.9141 37.5859 21.3125 37.6953 21.7109C37.7031 21.7578 37.7188 21.8047 37.7266 21.8516C37.7734 22.0234 37.8125 22.1953 37.8437 22.3672C37.875 22.5156 37.9062 22.6719 37.9297 22.8281C37.9531 22.9609 37.9766 23.0781 37.9922 23.2109C38.0391 23.5156 38.0703 23.8281 38.0859 24.1406H33.3281V20.5234H33.3203ZM30.1797 37.0313C30.1484 37.0469 30.1172 37.0625 30.0781 37.0781C29.9141 37.1484 29.75 37.2109 29.5859 37.2734C29.4922 37.3125 29.3984 37.3438 29.3047 37.375C28.9766 37.4922 28.6406 37.5938 28.2969 37.6797C28.0625 37.7422 27.8281 37.7969 27.5938 37.8437C27.4766 37.8672 27.3594 37.8906 27.2422 37.9062C27.1719 37.9219 27.1016 37.9297 27.0312 37.9375C26.9297 37.9531 26.8359 37.9688 26.7344 37.9766C26.696 37.9861 26.6567 37.9914 26.6172 37.9922C26.6016 38 26.5859 38 26.5625 38V34.0156H30.1797V37.0313ZM30.1797 30.8828H26.5625V27.2734H30.1797V30.8828ZM30.1797 24.1328H26.5625V20.5156H30.1797V24.1328ZM30.1797 17.3906H26.5625V12C26.5859 12 26.6016 12 26.6172 12.0078C26.6562 12.0078 26.6953 12.0156 26.7344 12.0234C26.8359 12.0313 26.9297 12.0469 27.0312 12.0625C27.1016 12.0703 27.1719 12.0859 27.2422 12.0937C27.3594 12.1172 27.4766 12.1328 27.5938 12.1563C27.8359 12.2031 28.0625 12.2578 28.2969 12.3203C28.4922 12.3672 28.6953 12.4297 28.8906 12.4922C29.0625 12.5391 29.2422 12.6016 29.4141 12.6641C29.4688 12.6875 29.5156 12.7031 29.5703 12.7266C29.7734 12.8047 29.9766 12.8828 30.1797 12.9766V17.3906ZM34.2656 34.2578C33.9609 34.5625 33.6484 34.8437 33.3203 35.1094V34.0156H34.4922C34.4141 34.1016 34.3438 34.1797 34.2656 34.2578ZM37.8359 27.6328C37.7969 27.8281 37.7578 28.0234 37.7031 28.2109C37.6953 28.2344 37.6953 28.25 37.6875 28.2656C37.6328 28.4766 37.5703 28.6797 37.5078 28.8906C37.4453 29.1016 37.375 29.2969 37.3047 29.5C37.2422 29.6719 37.1719 29.8516 37.1016 30.0156C37.0781 30.0781 37.0469 30.1484 37.0234 30.2031C36.9609 30.3359 36.9063 30.4687 36.8359 30.6016C36.7891 30.6953 36.75 30.7891 36.7031 30.8828H33.3125V27.2734H37.8984C37.8828 27.3984 37.8594 27.5156 37.8359 27.6328Z" fill="#E3BC51"/>
</svg>
